{"glyphs":{"0":{"ha":521,"x_min":24,"x_max":486,"o":"m 24 277 q 27 347 24 298 q 38 455 30 396 q 60 576 46 514 q 96 689 75 637 q 146 774 117 741 q 217 807 176 807 q 297 777 260 807 q 363 697 334 746 q 416 589 392 648 q 454 469 439 529 q 477 355 469 408 q 486 269 486 302 q 465 164 486 213 q 409 79 445 115 q 324 21 373 42 q 218 0 275 0 q 127 26 164 0 q 68 94 91 53 q 35 183 45 134 q 24 277 24 232 m 71 305 q 77 218 71 262 q 100 138 83 174 q 149 80 118 103 q 232 57 180 57 q 321 74 282 57 q 386 121 359 91 q 426 192 412 152 q 439 278 439 232 q 437 347 439 311 q 427 417 435 384 q 402 478 419 450 q 355 521 385 506 q 341 539 347 524 q 328 576 335 555 q 313 621 320 597 q 296 664 305 644 q 277 696 288 684 q 255 709 267 709 q 203 691 225 709 q 165 651 182 673 l 155 662 q 123 627 136 652 q 100 568 110 602 q 85 495 91 534 q 75 419 79 456 q 71 352 72 382 q 71 305 71 321 z "},"1":{"ha":130,"x_min":35,"x_max":107,"o":"m 71 735 q 77 734 73 735 q 83 734 81 734 q 93 686 91 705 q 95 640 95 667 q 95 612 95 624 q 94 587 95 600 q 90 562 92 575 q 83 532 87 549 l 83 106 q 88 87 84 100 q 97 59 92 75 q 104 28 102 43 q 107 0 107 12 l 83 0 q 77 8 81 0 q 66 27 72 16 q 56 50 61 38 q 46 71 50 62 q 44 81 46 75 q 40 96 42 88 q 37 110 38 103 q 35 119 35 117 l 35 697 q 47 723 35 711 q 71 735 58 735 z "},"2":{"ha":556,"x_min":23,"x_max":528,"o":"m 94 46 q 94 71 94 62 q 107 95 95 80 q 186 201 144 146 q 263 315 228 256 q 321 438 298 374 q 345 570 345 502 q 309 661 345 635 q 216 688 274 688 q 155 672 176 688 q 119 639 134 656 q 90 606 104 621 q 47 591 75 591 q 27 600 31 591 q 23 623 23 608 q 46 680 23 656 q 101 719 69 704 q 168 740 133 734 q 229 746 203 746 q 296 734 264 746 q 351 699 327 722 q 389 646 376 677 q 403 575 403 614 q 379 439 403 503 q 321 314 355 374 q 244 196 286 254 q 165 83 202 138 q 160 71 164 80 q 155 58 156 61 q 172 48 165 50 q 189 46 178 46 q 196 46 191 46 q 201 46 201 46 l 473 106 l 528 106 q 503 78 528 91 q 442 54 479 65 q 361 32 406 42 q 278 14 317 22 q 210 3 239 7 q 172 -1 180 -1 l 160 -1 q 145 -1 153 -1 q 129 0 137 0 l 119 0 q 96 18 99 5 q 94 46 94 31 z "},"3":{"ha":651,"x_min":23,"x_max":616,"o":"m 23 106 q 24 113 23 109 q 24 119 24 117 q 83 92 57 106 q 134 68 109 79 q 189 52 160 58 q 255 46 217 46 q 354 58 301 46 q 452 97 407 71 q 526 163 496 123 q 556 260 556 203 q 547 316 556 290 q 519 361 537 342 q 477 391 502 380 q 425 403 453 403 q 375 391 397 403 q 332 366 353 380 q 289 342 311 353 q 243 331 267 331 q 223 333 233 331 q 213 349 213 335 q 231 381 213 363 q 276 421 250 399 q 333 469 302 444 q 390 524 363 494 q 434 589 416 555 q 452 662 452 624 q 443 703 452 688 q 420 725 434 718 q 386 734 406 732 q 345 735 366 735 q 250 713 289 735 q 189 640 210 692 q 161 659 168 643 q 153 693 153 675 q 182 745 153 726 q 248 774 210 764 q 324 789 286 785 q 380 792 362 792 q 475 756 441 792 q 510 662 510 720 q 504 612 510 636 q 488 565 498 587 q 465 520 477 543 q 438 473 452 498 q 507 439 475 461 q 564 386 540 416 q 602 319 587 355 q 616 243 616 282 q 581 136 616 182 q 496 60 547 91 q 386 14 445 30 q 278 -1 327 -1 q 214 5 256 -1 q 130 25 172 12 q 55 58 87 38 q 23 106 23 79 z "},"4":{"ha":545,"x_min":9,"x_max":513,"o":"m 401 437 q 399 452 404 442 q 391 461 395 461 q 357 453 382 464 q 296 425 331 442 q 220 388 260 408 q 144 349 180 368 q 78 319 107 331 q 35 307 49 307 q 13 315 16 307 q 9 338 9 324 q 15 363 9 351 q 27 385 20 374 q 43 406 34 396 q 58 426 52 415 q 78 460 65 438 q 104 504 91 481 q 129 545 118 526 q 141 567 140 563 q 157 599 145 575 q 183 656 168 623 q 216 727 198 689 q 252 802 235 765 q 283 871 269 840 q 307 922 298 903 q 318 954 313 937 q 330 985 323 971 q 348 1009 336 1000 q 378 1019 359 1019 q 391 1018 381 1019 q 401 1017 400 1017 q 442 962 423 990 q 476 902 461 933 q 500 838 491 871 q 509 770 509 804 q 504 726 509 746 q 494 685 499 705 l 481 644 q 473 604 475 625 q 467 534 469 567 q 463 471 465 502 q 461 408 461 439 q 461 342 461 376 l 461 288 q 463 245 461 266 q 466 200 464 224 q 473 141 468 176 q 482 104 476 122 q 495 68 488 87 q 507 33 502 50 q 513 -3 513 15 q 466 22 484 -3 q 436 79 448 46 q 420 146 425 111 q 414 201 415 180 q 410 248 412 214 q 406 319 408 282 q 403 391 404 357 q 401 437 401 425 m 118 415 l 130 415 q 153 423 132 415 q 205 442 175 431 q 267 465 235 453 q 319 486 298 477 q 344 497 331 490 q 368 514 357 505 q 385 536 378 524 q 392 564 392 549 q 391 580 392 570 q 391 591 391 590 q 388 618 389 600 q 385 654 387 636 q 382 689 384 673 q 378 709 380 705 q 372 742 376 722 q 366 781 369 762 q 359 813 362 799 q 355 827 355 827 l 343 840 q 336 831 340 838 q 325 817 331 825 q 314 802 319 810 q 307 792 309 795 q 296 770 304 787 q 277 730 288 753 q 254 681 266 707 q 231 631 241 655 q 213 590 221 608 q 201 567 205 572 q 184 538 197 559 q 159 496 172 518 q 135 453 146 473 q 118 426 123 433 l 118 415 m 425 814 q 423 780 425 802 q 422 736 422 758 q 429 696 423 713 q 449 675 434 678 q 467 712 460 690 q 473 751 473 734 l 473 757 q 469 778 472 764 q 461 808 465 792 q 453 836 457 823 q 449 852 449 848 q 444 864 448 856 q 437 876 439 872 q 425 845 425 864 l 425 814 z "},"5":{"ha":591,"x_min":23,"x_max":559,"o":"m 104 130 q 104 138 104 133 q 106 150 104 144 q 110 160 107 156 q 119 165 113 164 q 145 136 138 156 q 160 96 152 115 q 187 61 168 76 q 250 46 206 46 q 349 75 302 46 q 432 147 396 103 q 489 245 468 191 q 510 349 510 298 q 492 405 510 381 q 449 444 475 429 q 393 467 423 460 q 336 475 362 475 q 273 469 304 475 q 210 456 241 463 q 147 443 179 449 q 83 437 115 437 q 46 444 58 437 q 28 465 34 452 q 23 497 23 479 q 23 537 23 515 q 26 607 23 574 q 43 666 30 640 q 79 709 56 692 q 142 734 103 727 q 171 749 152 739 q 214 772 190 760 q 266 800 239 785 q 317 827 293 814 q 361 850 342 840 q 391 864 381 860 q 419 876 407 872 q 442 883 431 880 q 465 887 453 886 q 492 888 477 888 q 523 887 507 888 q 545 864 538 886 q 535 854 547 860 q 505 842 524 848 q 465 829 487 836 q 421 817 442 823 q 382 804 400 810 q 355 792 363 798 q 328 773 346 787 q 288 743 309 760 q 241 707 266 726 q 197 673 217 688 q 161 648 176 658 q 142 640 146 639 q 136 644 140 640 q 130 650 133 647 q 123 657 126 654 q 119 662 119 661 l 115 662 l 114 662 q 113 663 113 662 q 109 663 111 663 q 107 662 107 662 q 94 633 99 646 q 85 608 88 620 q 83 585 83 597 q 83 557 83 572 q 81 548 83 555 q 81 532 80 541 q 84 517 81 524 q 95 510 87 510 q 115 509 99 510 q 136 507 132 507 q 231 515 184 507 q 327 522 278 522 q 413 512 372 522 q 487 480 454 502 q 539 423 519 458 q 559 339 559 388 q 536 220 559 281 q 475 111 514 160 q 383 30 437 61 q 266 -1 330 -1 q 209 7 237 -1 q 157 32 180 15 q 119 73 134 49 q 104 130 104 98 z "},"6":{"ha":545,"x_min":23,"x_max":522,"o":"m 23 225 q 31 297 23 247 q 55 410 39 347 q 93 540 71 473 q 144 661 115 606 q 209 751 174 716 q 285 787 244 787 l 285 746 q 278 737 285 746 q 262 717 271 728 q 242 694 252 705 q 225 675 232 682 q 160 579 189 635 q 112 463 132 524 q 81 340 92 401 q 71 225 71 278 q 71 205 71 217 q 73 180 71 193 q 79 158 75 168 q 95 141 84 148 q 146 189 121 160 q 197 248 172 217 q 249 309 222 278 q 305 363 275 339 q 370 402 335 388 q 444 416 404 416 q 465 416 449 416 q 486 415 480 416 q 507 393 499 406 q 517 368 514 381 q 522 339 521 354 q 522 311 522 324 q 507 235 522 273 q 465 162 491 197 q 404 98 438 127 q 332 46 370 68 q 255 12 294 24 q 180 -1 216 -1 q 105 20 136 -1 q 56 73 75 41 q 31 146 38 106 q 23 225 23 186 m 129 87 q 146 56 129 65 q 183 46 163 46 q 279 71 228 46 q 374 134 331 95 q 446 220 416 172 q 475 313 475 267 q 474 334 475 319 q 473 355 473 350 q 461 361 471 357 q 449 366 452 365 l 444 366 q 404 359 425 366 q 363 341 384 351 q 326 319 343 331 q 296 296 308 307 q 264 267 286 288 q 217 220 241 245 q 172 173 193 195 q 142 141 151 151 q 132 115 134 126 q 129 87 129 104 z "},"7":{"ha":521,"x_min":9,"x_max":487,"o":"m 271 155 q 273 172 271 159 q 276 199 274 184 q 280 229 278 214 q 283 250 282 243 l 414 840 l 414 884 q 347 882 378 884 q 283 873 315 879 q 220 859 252 867 q 153 840 189 850 q 98 818 125 831 q 41 804 71 804 q 18 809 26 804 q 9 827 9 814 q 41 860 9 844 q 120 891 72 876 q 225 919 168 906 q 335 941 282 932 q 430 956 388 949 q 487 962 472 962 q 476 869 487 913 q 449 781 465 825 l 319 165 q 319 152 319 164 q 322 122 320 140 q 327 87 324 104 q 331 58 330 69 q 333 50 331 57 q 337 35 335 42 q 341 20 339 27 q 343 11 343 14 q 333 0 343 1 q 317 -1 323 -1 q 302 8 308 -1 q 292 30 296 18 q 287 54 289 42 q 283 71 285 66 q 280 92 282 79 q 276 118 278 104 q 273 142 274 132 q 271 155 271 152 z "},"8":{"ha":532,"x_min":34,"x_max":510,"o":"m 34 201 q 44 282 34 241 q 65 361 54 323 q 85 434 76 399 q 95 503 95 469 q 89 536 95 522 q 77 566 83 551 q 64 598 71 582 q 58 636 58 614 q 64 686 58 655 q 80 749 69 716 q 106 816 91 783 q 140 876 121 849 q 182 920 160 903 q 229 937 205 937 q 255 930 248 937 q 262 905 262 922 q 261 897 262 903 q 260 887 260 890 q 203 833 231 860 q 153 777 175 807 q 118 711 132 746 q 104 633 104 677 q 122 585 104 604 q 168 567 140 567 q 235 584 203 567 q 289 628 266 601 q 326 689 312 655 q 343 757 340 723 q 343 772 343 758 q 341 801 343 785 q 334 832 339 817 q 319 852 330 848 l 313 852 q 272 840 294 852 q 236 817 250 829 q 235 822 236 818 q 235 827 235 826 q 243 854 235 841 q 265 878 252 867 q 293 895 278 888 q 320 901 308 901 q 354 886 340 901 q 376 850 368 871 q 388 806 384 829 q 392 770 392 784 q 363 650 392 705 q 296 545 334 594 q 389 533 349 552 q 456 478 430 514 q 496 397 483 442 q 510 307 510 351 q 488 182 510 239 q 426 84 467 125 q 328 21 385 43 q 201 -1 271 -1 q 120 14 152 -1 q 69 55 88 28 q 42 119 50 81 q 34 201 34 156 m 95 130 q 131 68 109 91 q 193 46 153 46 q 307 66 258 46 q 391 125 357 87 q 444 213 426 163 q 463 323 463 263 q 456 391 463 359 q 433 448 449 423 q 391 486 416 472 q 327 500 365 500 q 292 500 308 500 q 260 496 275 499 q 231 484 245 492 q 201 461 217 476 q 187 477 190 465 q 184 496 184 488 l 155 496 q 146 480 152 496 q 134 441 141 464 q 119 395 126 419 q 106 355 111 372 q 94 281 95 315 q 94 208 94 248 q 94 191 94 202 q 94 168 94 180 q 95 145 95 156 q 95 130 95 134 z "},"9":{"ha":461,"x_min":24,"x_max":439,"o":"m 153 26 q 171 55 153 31 q 212 107 189 79 q 256 162 235 136 q 285 201 278 189 q 358 370 334 285 q 382 551 382 454 q 382 572 382 556 q 380 606 381 587 q 380 640 380 624 q 380 662 380 656 q 361 719 372 692 q 331 770 351 746 q 316 786 326 776 q 297 806 307 796 q 281 821 288 815 q 273 827 274 827 l 263 827 q 272 783 263 804 q 292 739 281 761 q 311 694 302 718 q 320 644 320 670 q 309 581 320 612 q 277 526 298 549 q 227 487 256 502 q 160 472 197 472 q 108 479 133 472 q 64 499 83 486 q 35 534 46 513 q 24 585 24 555 l 24 591 q 33 635 27 608 q 44 688 38 662 q 54 734 50 715 q 58 757 58 754 q 65 771 60 760 q 79 798 71 783 q 94 829 87 814 q 107 852 102 844 q 120 876 111 861 q 140 903 129 890 q 164 926 152 917 q 189 936 176 936 q 206 930 193 936 q 225 922 220 925 q 327 852 286 890 q 393 768 368 814 q 429 667 418 722 q 439 545 439 612 q 424 407 439 473 q 382 279 408 340 q 318 159 355 217 q 237 46 281 102 q 224 34 232 42 q 209 18 217 26 q 191 5 201 9 q 172 0 180 0 q 157 7 160 0 q 153 26 153 15 m 83 595 q 106 545 83 560 q 161 530 129 530 q 242 561 210 530 q 274 643 274 591 q 268 691 274 661 q 250 749 262 722 q 218 798 237 777 q 172 818 198 818 q 169 817 171 818 q 165 817 167 817 q 104 713 126 770 q 83 595 83 656 z "}," ":{"ha":521,"x_min":0,"x_max":0,"o":""},"!":{"ha":258,"x_min":114,"x_max":233,"o":"m 114 779 l 114 819 q 115 880 114 848 q 115 940 115 911 l 115 979 q 125 991 119 990 q 138 993 132 993 q 152 991 145 993 q 161 979 159 990 q 161 941 161 967 q 160 882 160 916 l 160 745 q 161 686 160 712 q 161 648 161 661 q 171 538 163 595 l 187 427 q 202 317 195 372 q 209 209 209 262 q 208 196 209 202 q 198 186 208 190 q 182 202 189 191 q 174 221 176 213 q 125 498 136 362 q 114 779 114 635 m 161 35 q 174 64 161 54 q 205 73 187 73 q 233 42 233 73 q 231 29 233 37 q 225 16 229 22 q 216 5 221 9 q 205 0 210 0 q 175 10 189 0 q 161 35 161 20 z "},"\"":{"ha":366,"x_min":34,"x_max":331,"o":"m 34 977 l 34 1039 q 35 1080 34 1059 q 35 1120 35 1101 l 35 1147 q 51 1200 37 1176 q 96 1225 65 1225 q 90 1100 96 1161 q 83 978 83 1039 q 83 916 83 945 q 87 860 83 887 q 102 807 92 833 q 130 757 111 781 q 136 745 132 754 q 141 734 141 736 q 132 723 140 732 q 119 709 123 713 l 113 709 q 73 730 87 709 q 50 779 58 751 q 39 834 42 807 q 35 876 35 861 l 35 894 q 35 933 35 911 q 34 977 34 955 m 235 1128 l 235 1146 q 238 1165 235 1157 q 248 1179 241 1173 q 266 1185 254 1185 q 279 1160 273 1185 q 294 1094 286 1134 q 308 1004 301 1054 q 320 905 315 955 q 328 813 326 856 q 331 745 331 770 q 330 732 331 738 q 319 722 330 726 q 288 760 301 731 q 264 827 274 788 q 250 911 255 867 q 241 998 244 956 q 236 1076 237 1040 q 235 1128 235 1111 z "},"#":{"ha":1006,"x_min":23,"x_max":982,"o":"m 309 665 q 271 657 289 665 q 229 650 252 650 q 201 652 213 650 q 189 675 189 655 q 189 681 189 677 q 189 686 189 685 q 248 707 224 701 q 287 720 271 713 q 309 742 302 727 q 315 791 315 757 q 249 785 282 791 q 182 770 216 779 q 115 755 148 762 q 47 746 81 749 q 35 757 43 747 q 24 770 26 766 q 23 772 23 770 l 23 774 q 45 793 23 785 q 101 808 68 800 q 174 821 134 815 q 248 836 213 827 q 305 853 282 844 q 331 876 328 863 q 333 904 332 884 q 334 947 334 924 q 337 996 335 970 q 345 1042 339 1021 q 358 1076 350 1063 q 380 1089 366 1089 q 386 1084 381 1089 q 391 1077 391 1080 l 391 891 q 422 892 404 891 q 457 897 441 892 q 485 909 473 901 q 498 936 496 918 q 500 981 498 952 l 505 1038 q 508 1088 506 1066 q 510 1112 510 1109 q 510 1137 510 1120 q 512 1169 510 1153 q 522 1197 514 1185 q 545 1208 529 1208 q 566 1199 559 1208 q 576 1175 574 1190 q 579 1147 579 1161 q 579 1124 579 1133 l 579 1006 q 581 989 579 1000 q 585 970 583 979 q 589 954 587 960 q 591 947 591 947 l 604 947 l 959 1031 l 970 1031 q 977 1025 972 1029 q 982 1017 982 1020 l 970 1006 l 651 911 q 609 895 621 903 q 594 875 597 887 q 594 845 591 863 q 597 799 597 827 l 840 799 q 857 793 844 799 q 876 781 871 787 l 876 779 q 876 777 876 779 q 876 774 876 776 q 876 772 876 774 q 876 770 876 770 q 804 758 846 757 q 720 760 762 758 q 639 758 677 761 q 579 734 601 754 q 581 713 579 728 q 585 680 583 697 q 589 648 587 663 q 591 627 591 632 q 604 591 594 612 q 624 549 613 570 q 644 514 635 529 q 652 498 652 499 q 644 477 652 481 q 620 473 636 473 q 586 488 600 473 q 563 524 572 502 q 548 574 553 547 q 538 627 543 601 q 530 675 534 654 q 521 709 526 697 q 515 667 518 693 q 506 612 511 640 q 492 554 500 583 q 471 501 483 525 q 441 463 458 477 q 403 449 425 449 q 373 465 384 449 q 356 505 362 480 q 347 556 350 529 q 340 608 345 583 q 330 648 336 632 q 309 665 323 665 m 389 621 q 389 602 389 618 q 389 566 388 585 q 396 533 391 548 q 415 518 401 518 q 441 543 430 518 q 461 601 453 568 q 474 665 469 633 q 479 713 479 697 l 456 713 q 431 711 444 713 q 408 703 419 708 q 391 686 397 697 l 391 674 q 390 654 391 665 q 389 635 389 644 l 389 621 m 486 852 q 446 844 465 849 q 412 831 427 840 q 387 806 396 822 q 377 768 377 791 q 399 769 382 768 q 436 773 416 770 q 471 781 456 776 q 486 793 486 785 l 486 852 z "},"$":{"ha":556,"x_min":22,"x_max":534,"o":"m 336 237 q 321 237 331 237 q 308 236 311 236 q 283 234 302 236 q 243 230 264 232 q 201 227 221 228 q 178 225 182 225 q 60 271 98 225 q 23 391 23 317 q 29 470 23 434 q 58 545 35 506 l 58 526 q 52 459 58 492 q 46 392 46 426 q 83 298 46 327 q 180 270 121 270 q 229 272 199 270 q 287 282 259 274 q 335 308 315 290 q 355 355 355 326 q 353 370 355 359 q 350 391 351 380 q 347 412 349 401 q 343 426 345 422 q 240 480 296 449 q 136 553 184 511 q 54 646 87 594 q 22 761 22 697 q 38 839 22 800 q 81 910 54 878 q 142 968 107 943 q 213 1006 176 994 q 232 1010 217 1006 q 266 1018 247 1013 q 303 1029 285 1023 q 331 1042 321 1035 q 334 1067 332 1048 q 337 1107 335 1086 q 341 1147 339 1128 q 343 1172 343 1165 q 349 1198 345 1181 q 361 1230 354 1214 q 378 1256 368 1245 q 403 1267 389 1267 q 417 1265 411 1267 q 426 1255 423 1264 q 410 1213 416 1232 q 398 1176 403 1194 q 391 1139 393 1158 q 389 1095 389 1120 l 389 1082 q 390 1062 389 1073 q 391 1043 391 1051 l 391 1031 q 481 905 452 978 q 510 751 510 833 q 508 732 510 742 q 491 722 506 722 q 452 742 467 722 q 427 789 437 762 q 412 840 418 815 q 403 876 407 865 l 391 852 q 390 836 391 849 q 389 804 389 822 q 389 767 389 785 q 388 738 388 749 l 388 677 q 389 608 388 643 q 393 538 391 572 q 403 473 396 503 q 433 448 412 454 q 477 437 454 441 q 517 424 500 433 q 534 391 534 415 q 534 379 534 388 q 533 366 534 370 q 511 345 526 359 q 479 314 496 331 q 447 281 461 297 q 426 260 433 266 q 420 249 425 258 q 415 236 415 240 l 415 0 q 399 16 407 5 q 391 35 392 27 l 355 236 l 347 236 q 342 237 345 236 q 336 237 339 237 m 71 757 q 97 667 71 713 q 164 582 123 620 q 254 519 205 544 q 346 494 302 494 l 346 534 q 345 597 346 564 q 344 658 345 629 q 343 697 343 686 q 342 742 343 716 q 340 795 342 768 q 338 850 339 823 q 335 898 336 876 q 332 933 334 920 l 331 947 l 319 958 q 304 961 317 960 q 285 962 290 962 q 207 944 245 962 q 138 899 168 926 q 89 833 107 871 q 71 757 71 796 m 426 415 q 420 410 425 415 q 415 401 416 404 q 414 392 415 400 q 412 376 412 384 q 410 359 411 368 q 408 349 408 351 q 426 351 416 349 q 444 357 435 353 q 458 368 453 361 q 464 384 464 376 l 463 385 l 463 388 q 461 391 461 388 q 455 396 460 392 q 445 404 450 400 q 434 410 439 407 q 426 415 429 412 z "},"%":{"ha":640,"x_min":24,"x_max":616,"o":"m 83 46 q 87 111 83 83 q 107 176 91 140 l 343 770 l 391 936 q 401 946 392 937 q 415 958 410 955 q 418 959 416 958 l 420 960 q 433 955 429 960 q 438 943 437 949 q 439 929 439 937 l 439 917 q 433 871 439 894 q 418 824 427 848 q 398 777 408 800 q 380 734 388 754 q 349 662 368 708 q 309 562 331 616 q 264 452 286 509 q 221 347 241 396 q 186 261 201 297 q 165 213 171 225 q 157 188 164 208 q 143 146 151 168 q 129 102 136 123 q 119 71 122 80 q 117 59 119 68 q 113 40 115 50 q 109 22 111 30 q 107 11 107 14 l 100 5 q 95 0 96 1 q 84 7 87 1 q 81 22 81 14 q 81 39 80 31 q 83 46 83 46 m 449 176 q 449 186 449 180 q 448 201 449 193 q 448 214 448 209 l 448 225 q 454 290 448 250 q 475 367 461 330 q 513 431 490 404 q 572 457 537 457 q 579 417 572 435 q 595 381 586 399 q 610 346 604 363 q 616 307 616 328 q 608 256 616 282 q 586 207 601 229 q 549 170 571 184 q 498 155 526 155 q 470 160 483 155 q 449 176 457 165 m 24 693 q 29 732 24 708 q 43 783 34 755 q 64 838 52 811 q 92 886 76 864 q 125 923 107 909 q 164 937 144 937 q 203 920 193 937 q 214 875 214 903 q 205 804 214 842 q 176 731 195 765 q 127 674 156 697 q 58 651 98 651 q 35 665 45 651 q 24 693 24 680 m 551 355 q 526 338 537 355 q 507 296 514 320 q 495 248 499 273 q 491 210 491 224 q 524 219 510 210 q 549 241 538 228 q 564 272 559 255 q 570 307 570 289 l 570 319 q 568 335 570 327 q 563 349 567 343 q 551 355 559 355 m 142 840 q 117 817 127 831 q 98 784 106 802 q 87 748 91 766 q 83 713 83 730 q 111 724 99 713 q 130 751 123 735 q 140 785 137 768 q 144 817 144 803 q 143 828 144 819 q 142 840 142 837 z "},"&":{"ha":532,"x_min":9,"x_max":498,"o":"m 343 213 q 338 214 342 213 q 331 214 334 214 q 276 206 302 214 q 223 189 250 198 q 169 172 197 180 q 113 164 141 164 l 102 164 q 85 164 94 164 l 69 164 q 58 165 61 165 q 29 187 37 176 q 22 217 22 198 q 40 267 22 243 q 83 313 58 292 q 134 351 107 335 q 176 380 160 368 q 141 375 168 378 q 85 374 114 372 q 33 386 56 376 q 9 422 9 396 q 35 480 9 449 q 94 540 60 511 q 161 592 127 568 q 213 627 194 616 q 238 644 220 632 q 277 669 256 656 q 317 694 298 682 q 343 709 335 705 q 345 728 343 715 q 348 758 346 742 q 352 786 350 773 q 355 806 354 799 q 359 827 355 811 q 367 859 363 842 q 374 890 370 876 q 378 911 377 905 q 384 924 380 916 q 391 936 388 933 l 392 936 l 396 937 q 408 931 403 937 q 418 918 414 925 q 424 901 422 910 q 426 887 426 892 q 422 851 426 868 q 413 817 418 834 q 404 781 408 799 q 400 745 400 762 l 400 726 q 414 709 400 716 q 425 711 416 709 l 431 713 l 431 766 q 441 734 433 746 q 460 709 450 720 q 477 686 469 697 q 486 658 486 674 q 484 643 486 648 q 479 633 481 637 q 474 622 476 628 q 472 605 472 616 q 476 554 472 579 q 485 503 480 529 q 494 452 490 477 q 498 401 498 427 q 484 357 498 376 q 456 321 471 338 q 427 287 441 304 q 414 250 414 270 l 414 0 l 401 0 q 393 12 399 0 q 382 37 388 23 q 372 65 376 52 q 366 83 368 79 q 360 109 363 91 q 353 148 357 127 q 347 186 350 168 q 343 213 343 205 m 83 437 q 87 431 83 435 q 95 426 91 426 q 130 430 104 427 q 184 437 156 433 q 237 444 212 441 q 271 449 262 448 q 286 452 277 450 q 305 455 296 453 q 322 459 315 457 q 331 461 330 461 q 338 467 334 463 q 343 473 343 472 l 343 651 q 307 631 331 646 q 254 595 283 616 q 195 552 225 575 q 140 507 164 529 q 99 466 115 484 q 83 437 83 448 m 319 380 q 300 370 317 380 q 258 347 282 359 q 208 319 233 334 q 165 296 182 305 q 140 281 153 289 q 115 262 126 273 q 95 238 103 251 q 87 210 87 225 q 117 213 95 210 q 166 220 138 216 q 226 231 194 225 q 283 246 258 237 q 326 264 309 255 q 343 285 343 274 l 343 380 l 319 380 m 427 445 q 417 387 427 416 q 401 331 407 358 q 408 331 403 331 q 414 331 412 331 q 430 336 423 331 q 443 348 437 340 q 453 364 449 355 q 461 380 457 373 l 461 393 q 462 416 461 404 q 463 439 463 429 l 463 479 q 462 519 463 498 q 459 565 461 541 q 453 608 457 589 q 442 640 449 628 q 426 652 435 652 q 408 648 415 652 q 401 627 401 643 l 401 496 q 406 481 401 487 q 414 471 410 476 q 423 459 419 465 q 427 445 427 453 z "},"'":{"ha":141,"x_min":9,"x_max":95,"o":"m 9 781 l 9 853 q 14 907 9 880 q 31 952 19 933 q 64 971 42 971 q 89 964 83 971 q 95 941 95 958 q 89 897 95 916 q 71 852 83 879 l 71 583 q 45 597 56 583 q 28 634 34 612 q 18 683 22 656 q 12 735 14 709 q 9 781 9 761 z "},"(":{"ha":567,"x_min":24,"x_max":545,"o":"m 24 336 q 36 441 24 372 q 69 592 47 510 q 121 760 91 674 q 189 917 152 846 q 267 1032 225 987 q 355 1077 309 1077 q 361 1072 357 1077 q 368 1066 365 1067 l 368 1053 q 361 1041 365 1050 q 355 1031 357 1032 q 334 1003 351 1024 q 296 958 316 982 q 258 913 275 935 q 237 887 241 892 q 168 763 198 831 q 116 621 137 694 q 83 473 95 548 q 71 331 71 399 q 91 221 71 269 q 146 140 111 174 q 228 85 182 107 q 326 52 274 64 q 430 36 377 39 q 533 35 483 33 l 545 24 q 522 7 538 12 q 498 0 506 1 l 479 0 q 452 -1 467 0 q 425 -1 438 -1 l 408 -1 q 266 21 335 -1 q 143 86 197 43 q 57 192 90 129 q 24 336 24 255 z "},")":{"ha":426,"x_min":23,"x_max":403,"o":"m 334 526 q 330 604 334 563 q 319 687 327 646 q 296 768 311 728 q 260 840 282 807 q 235 874 250 856 q 205 910 221 892 q 172 943 189 928 q 142 970 156 959 q 116 982 136 975 q 75 998 96 989 q 39 1017 54 1006 q 23 1043 23 1028 q 29 1058 23 1053 q 43 1065 35 1063 q 61 1067 52 1067 l 79 1067 q 133 1050 104 1067 q 189 1010 161 1034 q 237 962 216 986 q 273 922 259 937 q 328 838 304 886 q 369 739 353 791 q 394 633 385 686 q 403 532 403 581 q 383 391 403 458 q 329 264 363 324 q 247 153 294 205 q 142 58 199 102 q 124 45 137 54 q 96 25 111 35 q 64 7 80 15 q 35 -1 47 -1 q 30 -1 34 -1 q 24 0 26 0 q 42 19 35 14 q 55 28 49 24 q 70 37 61 31 q 95 58 79 43 q 195 161 151 110 q 270 267 239 212 q 317 386 301 323 q 334 526 334 449 z "},"*":{"ha":662,"x_min":9,"x_max":639,"o":"m 236 236 q 231 243 235 239 l 225 250 l 213 250 q 189 246 208 248 q 148 242 170 244 q 106 238 126 240 q 83 236 87 236 l 42 236 q 26 239 34 236 q 14 246 19 241 q 9 260 9 251 q 17 276 9 270 q 34 286 24 282 q 54 292 43 290 q 71 296 65 294 q 110 305 81 298 q 170 319 138 312 q 231 334 202 327 q 271 343 260 340 q 305 383 294 359 q 326 432 316 407 q 346 481 335 457 q 378 521 357 505 q 404 493 400 513 q 410 453 408 473 q 417 416 411 433 q 448 400 423 400 q 488 406 469 400 q 526 420 507 412 q 564 433 545 427 q 604 439 583 439 q 628 437 617 439 q 639 415 639 434 q 616 378 639 403 q 557 321 594 353 q 473 252 521 289 q 376 180 426 216 q 279 110 327 144 q 192 50 231 76 q 128 9 153 24 q 100 -7 103 -7 q 102 3 100 -4 q 106 11 104 9 q 114 20 107 14 q 130 34 121 26 q 145 50 138 42 q 153 58 152 57 q 156 69 155 60 q 159 89 157 79 q 163 108 161 99 q 165 119 164 117 q 179 146 170 130 q 199 180 189 163 q 220 212 209 197 l 236 236 m 355 255 q 287 230 313 255 q 260 160 260 205 l 260 155 q 271 160 262 156 q 283 165 281 164 q 304 184 292 172 q 328 207 316 195 q 347 227 339 218 q 355 236 355 235 l 355 255 m 461 345 q 435 315 435 345 q 456 324 448 315 q 473 343 465 334 q 468 344 472 343 q 461 345 464 345 z "},"+":{"ha":449,"x_min":24,"x_max":431,"o":"m 201 403 q 124 396 161 403 q 47 380 87 389 q 33 395 41 384 q 24 415 24 407 q 29 421 24 416 q 35 426 34 426 q 68 433 45 429 q 118 443 91 437 q 169 454 145 449 q 201 461 193 458 q 214 467 205 463 q 225 473 222 471 q 224 505 224 487 q 230 539 225 522 q 245 570 235 556 q 273 591 255 585 l 290 579 l 290 473 l 431 473 q 421 457 431 463 q 403 449 411 452 q 382 444 396 448 q 350 437 368 441 q 317 430 332 433 q 296 426 302 427 q 290 398 293 410 q 287 376 288 387 q 286 355 286 365 q 285 331 285 345 q 292 247 285 289 q 298 163 298 205 q 266 172 281 163 q 250 201 251 180 l 225 401 l 216 401 q 208 402 212 401 q 201 403 203 403 z "},",":{"ha":205,"x_min":75,"x_max":217,"o":"m 159 -106 q 149 -63 159 -87 q 125 -16 138 -39 q 97 26 111 7 q 75 58 83 46 q 75 68 75 61 q 75 77 75 75 q 81 105 75 91 q 103 119 87 119 q 126 107 114 119 q 151 75 138 95 q 176 29 164 54 q 197 -20 189 4 q 212 -64 206 -43 q 217 -95 217 -84 q 209 -149 217 -122 q 184 -197 201 -175 q 144 -231 168 -218 q 91 -243 121 -243 q 102 -207 91 -222 q 125 -177 113 -191 q 148 -146 137 -163 q 159 -106 159 -130 z "},"-":{"ha":477,"x_min":54,"x_max":454,"o":"m 54 448 q 58 469 54 461 q 79 483 62 476 q 161 479 122 480 q 239 479 199 477 q 319 486 278 481 q 408 496 359 490 l 414 496 q 439 488 425 496 q 454 468 454 480 q 452 439 454 453 q 433 425 449 425 q 410 431 420 425 q 389 438 400 438 l 384 438 q 320 425 343 429 q 281 418 297 420 q 253 417 264 416 q 224 419 241 418 q 182 422 208 420 q 115 423 156 423 l 104 423 q 91 424 99 423 q 76 425 83 425 l 66 425 q 56 435 57 429 q 54 448 54 441 z "},".":{"ha":194,"x_min":87,"x_max":160,"o":"m 87 31 q 94 58 87 45 q 118 72 100 72 q 146 61 133 72 q 160 35 160 50 q 148 7 160 16 q 119 -1 136 -1 q 94 5 100 -1 q 87 31 87 12 z "},"/":{"ha":532,"x_min":11,"x_max":513,"o":"m 11 35 q 45 179 26 109 q 95 319 64 250 l 401 1031 l 486 1112 l 513 1112 q 503 1063 513 1090 q 477 1004 494 1035 q 442 940 461 972 q 404 876 423 907 q 368 818 385 845 q 343 770 351 791 q 194 429 266 600 q 58 83 122 258 l 58 68 q 56 43 58 57 q 50 17 54 30 q 35 0 45 4 q 33 -1 34 -1 l 26 -1 q 23 0 24 -1 q 18 10 22 1 q 11 24 14 19 l 11 35 z "},":":{"ha":119,"x_min":9,"x_max":95,"o":"m 22 176 q 36 203 22 193 q 64 213 50 213 q 86 208 77 213 q 95 190 95 202 q 85 156 95 172 q 58 140 76 140 q 33 151 43 140 q 22 176 22 163 m 9 496 q 19 517 9 513 q 42 522 28 522 q 52 522 46 522 q 63 519 58 521 q 71 511 68 517 q 71 496 73 506 q 56 477 66 481 q 35 472 46 472 q 9 496 9 472 z "},";":{"ha":130,"x_min":9,"x_max":130,"o":"m 71 -260 q 64 -222 73 -236 q 42 -199 54 -209 q 20 -179 30 -189 q 9 -153 9 -170 q 18 -134 9 -138 q 41 -129 26 -129 q 76 -138 60 -129 q 104 -163 92 -148 q 123 -199 117 -179 q 130 -236 130 -218 q 123 -288 130 -259 q 101 -342 115 -316 q 66 -387 87 -369 q 19 -404 46 -404 q 26 -368 19 -385 q 43 -333 34 -350 q 61 -298 53 -316 q 71 -260 69 -281 m 34 113 q 48 142 34 138 q 87 146 62 146 q 88 123 87 136 q 87 98 90 110 q 79 79 85 87 q 57 71 72 71 q 37 85 41 71 q 34 113 34 99 z "},"<":{"ha":510,"x_min":23,"x_max":486,"o":"m 23 94 q 47 143 23 110 q 106 217 71 176 q 186 300 142 258 q 270 378 229 343 q 343 435 311 412 q 391 457 376 457 l 391 415 q 364 389 381 407 q 325 349 347 372 q 278 302 302 327 q 231 256 254 278 q 191 215 209 233 q 165 189 174 197 q 154 176 163 186 q 136 155 145 165 q 118 134 126 144 q 107 119 110 123 q 106 115 107 117 q 104 113 104 114 q 106 109 104 111 q 107 106 106 107 q 119 99 110 103 q 130 95 127 95 q 300 64 213 77 q 473 46 388 50 q 480 42 476 46 q 486 35 484 38 l 486 34 q 486 31 486 33 q 486 30 486 30 q 486 28 486 28 q 486 26 486 27 l 486 24 q 480 17 484 22 q 473 11 476 12 q 455 8 469 9 q 427 5 441 7 q 398 1 412 3 q 380 0 384 0 l 368 0 q 321 2 353 0 q 252 9 290 4 q 173 21 213 14 q 100 39 133 28 q 45 63 66 50 q 23 94 23 76 z "},"=":{"ha":686,"x_min":15,"x_max":652,"o":"m 83 225 q 100 225 87 225 q 127 225 113 225 q 155 225 142 225 q 172 225 167 225 q 228 224 191 225 q 309 221 264 224 q 399 215 353 218 q 483 206 445 212 q 545 195 521 201 q 570 183 570 190 q 569 181 570 182 q 568 180 568 180 l 568 176 q 563 170 567 175 q 556 165 559 165 l 15 165 q 20 192 15 182 q 35 208 26 202 q 57 218 45 214 q 83 225 69 221 m 46 412 q 56 435 46 427 q 81 448 66 444 q 109 456 95 453 q 130 461 122 458 q 160 469 141 465 q 198 476 179 472 q 231 483 217 480 q 250 486 245 486 l 628 486 q 640 481 631 486 q 651 473 648 476 l 651 471 q 652 469 651 469 q 652 468 652 469 q 652 466 652 467 q 651 465 651 465 l 651 461 q 646 455 650 460 q 640 449 642 450 q 439 433 538 434 q 237 426 339 431 q 202 409 217 418 q 172 393 187 400 q 139 382 156 387 q 99 377 122 377 q 81 379 91 377 q 64 385 72 381 q 52 396 57 389 q 46 412 46 403 z "},">":{"ha":709,"x_min":23,"x_max":688,"o":"m 153 18 q 163 33 153 22 q 189 59 174 43 q 224 91 205 75 q 260 123 243 107 q 290 149 277 138 q 308 165 302 160 q 330 184 313 170 q 369 218 347 199 q 415 260 391 237 q 461 302 439 282 q 499 336 483 321 q 521 355 515 350 q 541 374 529 362 q 564 397 553 387 q 583 417 575 408 q 591 426 591 426 l 591 461 q 575 467 591 463 q 530 478 559 472 q 467 492 502 484 q 397 507 433 499 q 329 521 362 514 q 273 532 296 528 q 237 537 266 533 q 177 545 209 541 q 118 552 145 549 q 83 556 91 555 q 58 561 69 559 q 39 568 46 563 q 27 581 31 572 q 23 605 23 590 q 38 625 23 621 q 66 628 53 628 q 76 627 69 628 q 83 627 83 627 l 628 510 q 643 505 633 507 q 663 498 652 502 q 680 488 673 494 q 688 475 688 483 q 681 443 688 457 q 663 415 674 429 q 643 394 656 408 q 612 361 629 380 q 576 323 595 343 q 538 287 556 304 q 507 256 521 270 q 486 236 492 241 q 460 214 477 229 q 419 179 442 198 q 371 138 396 160 q 322 96 346 115 q 279 60 298 76 q 250 35 259 43 q 239 29 247 34 q 221 19 231 24 q 202 7 212 14 q 189 0 193 1 l 183 0 l 178 0 q 165 5 174 1 q 155 11 156 9 q 153 14 153 14 l 153 18 z "},"?":{"ha":532,"x_min":9,"x_max":510,"o":"m 247 31 q 254 52 247 41 q 271 73 260 62 q 292 89 281 83 q 313 95 304 95 q 330 81 327 95 q 332 58 332 68 q 314 17 332 35 q 271 -1 296 -1 q 252 7 256 -1 q 247 31 247 16 m 199 433 q 218 507 199 473 q 264 572 237 541 q 325 633 292 604 q 385 694 358 662 q 431 761 412 726 q 450 838 450 796 q 438 901 450 876 q 405 942 426 926 q 354 964 384 958 q 290 971 324 971 q 208 968 250 971 q 130 947 165 966 q 113 936 126 945 q 95 922 99 926 q 90 918 94 921 q 83 910 87 914 q 75 903 79 906 q 71 901 72 901 q 52 899 62 898 q 31 905 41 901 q 16 918 22 910 q 9 937 9 925 q 29 965 9 952 q 79 988 49 978 q 144 1006 109 998 q 214 1020 180 1015 q 273 1028 247 1025 q 308 1031 298 1031 q 393 1016 355 1031 q 456 973 430 1001 q 496 908 481 945 q 510 825 510 871 q 490 749 510 787 q 441 677 471 712 q 378 608 412 642 q 315 544 345 575 q 267 483 286 513 q 248 426 248 453 q 255 384 248 404 q 262 339 262 363 q 232 348 244 339 q 212 370 220 357 q 202 400 205 384 q 199 433 199 416 z "},"@":{"ha":936,"x_min":23,"x_max":913,"o":"m 23 225 q 56 376 23 298 q 145 525 90 453 q 273 661 201 597 q 422 773 345 726 q 579 848 500 821 q 727 876 658 876 q 802 861 768 876 q 860 821 836 846 q 899 759 884 795 q 913 684 913 723 q 888 536 913 605 q 819 417 864 468 q 709 336 774 366 q 563 307 644 307 q 550 307 559 307 q 530 307 541 307 q 511 307 519 307 q 498 307 502 307 q 485 313 494 309 q 473 319 476 317 q 467 323 472 320 q 456 332 461 327 q 445 340 450 336 q 438 343 439 343 q 409 337 423 343 q 380 325 395 331 q 350 313 365 319 q 319 307 335 307 q 294 309 307 307 q 272 319 282 312 q 255 336 262 326 q 248 361 248 347 q 271 422 248 387 q 328 497 293 458 q 408 574 363 536 q 498 642 453 612 q 583 692 543 673 q 651 711 624 711 q 678 709 661 711 q 713 703 696 708 q 745 690 731 699 q 758 669 758 681 q 741 619 758 647 q 696 562 723 591 q 639 503 670 533 q 581 448 608 473 q 537 404 555 423 q 519 377 519 385 q 525 363 519 368 q 539 356 530 358 q 557 354 548 354 q 572 354 567 354 q 695 377 640 354 q 788 441 750 400 q 846 538 826 483 q 865 656 865 593 q 861 711 865 681 q 846 768 857 742 q 814 810 836 793 q 758 827 792 827 q 613 802 690 827 q 459 733 536 777 q 312 630 382 689 q 188 505 241 571 q 102 369 134 439 q 71 231 71 298 q 89 143 71 174 q 135 92 107 113 q 194 53 163 72 q 250 0 225 34 q 234 -2 245 -1 q 218 -3 222 -3 q 144 20 180 -3 q 81 75 109 42 q 39 148 54 107 q 23 225 23 189 m 633 652 q 597 643 618 652 q 552 618 575 633 q 505 585 529 604 q 458 549 480 567 q 418 513 435 530 q 391 486 400 496 q 371 460 382 476 q 347 429 359 445 q 327 403 335 414 q 319 391 319 392 l 319 362 q 379 367 357 362 q 414 380 401 372 q 433 403 427 389 q 446 433 439 416 q 460 468 452 449 q 486 510 468 487 q 524 550 503 533 q 564 582 544 567 q 603 613 583 597 q 640 651 623 629 q 637 652 639 651 q 633 652 635 652 m 616 545 q 591 532 605 543 q 564 510 576 522 q 542 488 551 498 q 533 473 533 477 l 533 461 q 545 471 537 465 q 562 486 553 477 q 580 500 571 494 q 591 510 589 506 q 606 522 597 513 q 616 532 614 530 l 616 534 q 616 536 616 536 q 616 538 616 537 q 616 541 616 538 q 616 545 616 544 z "},"A":{"ha":911,"x_min":23,"x_max":888,"o":"m 118 35 q 119 42 118 38 q 119 46 119 46 q 162 122 140 85 q 208 195 184 159 q 254 268 232 231 q 296 343 277 305 q 269 365 290 355 q 216 385 247 374 q 152 410 186 396 q 90 444 118 425 q 42 490 61 464 q 23 552 23 517 q 47 616 23 589 q 107 663 72 644 q 182 690 142 681 q 250 700 221 700 q 355 680 309 700 q 449 627 400 659 q 477 654 465 639 q 498 686 488 669 q 516 721 502 696 q 545 774 530 746 q 573 828 559 803 q 591 864 587 853 q 609 874 602 872 q 628 876 616 876 q 634 876 629 876 q 640 876 639 876 q 661 760 654 819 q 671 640 667 700 q 677 521 674 581 q 686 401 680 461 q 701 401 690 401 q 718 400 712 400 q 755 404 736 400 q 793 413 774 408 q 832 422 812 418 q 872 426 852 426 l 876 426 q 882 420 878 425 q 888 415 886 416 q 862 391 880 400 q 821 377 844 382 q 774 367 799 372 q 731 356 750 362 q 699 342 712 350 q 686 319 686 334 q 690 264 686 292 q 698 210 693 237 q 707 154 703 182 q 711 98 711 126 q 710 79 711 91 q 707 54 709 66 q 699 33 705 42 q 681 23 693 23 q 656 43 667 23 q 639 95 646 64 q 627 163 632 126 q 619 235 623 201 q 612 296 616 270 q 604 331 608 323 q 564 334 593 332 q 503 337 534 335 q 442 341 471 339 q 403 343 414 343 l 389 343 q 338 318 362 343 q 295 254 315 293 q 256 172 275 216 q 220 89 237 127 q 183 24 202 50 q 142 -1 164 -1 q 123 10 127 -1 q 118 35 118 22 m 391 401 q 417 391 401 395 q 449 388 433 388 q 479 388 465 388 q 505 388 494 388 q 518 389 510 388 q 534 389 526 389 q 549 390 543 389 q 556 391 555 391 l 568 401 q 559 426 571 404 q 528 471 547 448 q 492 515 510 495 q 468 534 475 534 q 465 533 467 534 q 461 532 464 532 q 423 469 441 502 q 391 401 406 437 m 83 553 q 107 492 83 518 q 167 448 132 465 q 241 422 202 430 q 311 414 281 414 q 350 433 330 414 q 387 479 370 453 q 416 532 404 505 q 427 574 427 559 q 406 604 427 590 q 355 629 384 618 q 297 646 326 640 q 255 652 269 652 q 205 646 235 652 q 149 628 176 640 q 102 597 121 616 q 83 553 83 579 m 509 598 q 522 555 509 581 q 555 505 536 529 q 595 463 574 480 q 632 445 616 445 q 631 465 632 452 q 630 495 631 479 q 629 525 629 511 q 628 545 628 538 q 622 595 625 564 q 615 656 618 627 q 608 709 612 686 q 604 734 605 732 l 591 757 q 585 751 590 755 q 579 746 581 747 q 566 720 575 738 q 545 681 556 701 q 524 642 533 661 q 510 616 514 623 q 509 606 510 613 q 509 598 509 600 z "},"B":{"ha":781,"x_min":24,"x_max":758,"o":"m 24 213 q 92 146 57 176 q 167 93 127 115 q 250 58 206 71 q 343 46 294 46 q 465 68 404 46 q 576 131 526 91 q 656 227 625 171 q 688 347 688 282 q 670 412 688 384 q 625 458 652 439 q 562 488 597 477 q 494 498 528 498 q 450 493 476 498 q 393 481 423 488 q 332 463 363 473 q 274 441 301 453 q 228 416 247 429 q 201 391 209 403 q 199 368 201 384 q 195 332 197 351 q 191 295 193 312 q 189 271 190 278 q 186 252 189 263 q 180 229 183 240 q 170 206 176 217 q 155 189 164 195 q 127 215 136 197 q 117 256 119 233 q 117 300 115 278 q 118 338 118 323 q 119 382 118 351 q 121 456 119 414 q 128 547 123 498 q 141 646 133 597 q 161 741 149 696 q 191 823 174 787 q 233 880 209 859 q 286 901 256 901 q 349 884 321 901 q 397 843 377 868 q 428 786 416 818 q 439 722 439 754 q 430 672 439 696 q 410 627 420 648 q 391 583 400 605 q 381 538 381 562 q 454 537 414 538 q 537 530 495 536 q 619 512 579 525 q 690 477 659 499 q 740 420 722 454 q 758 338 758 387 q 741 245 758 289 q 692 163 723 201 q 622 95 662 125 q 536 43 582 65 q 444 10 491 22 q 354 -1 397 -1 q 296 6 331 -1 q 225 26 262 14 q 153 59 189 39 q 88 101 117 79 q 42 151 60 123 q 24 208 24 178 l 24 213 m 302 841 q 271 823 285 841 q 248 778 258 806 q 231 717 237 750 q 220 652 225 684 q 214 594 216 620 q 213 556 213 568 q 213 542 213 552 q 213 521 213 532 q 213 500 213 510 q 213 486 213 490 q 275 533 245 507 q 329 588 305 559 q 367 652 353 617 q 381 728 381 686 q 377 768 381 747 q 364 804 373 788 q 340 831 355 821 q 302 841 324 841 z "},"C":{"ha":627,"x_min":34,"x_max":604,"o":"m 34 255 q 38 336 34 286 q 52 443 42 385 q 80 558 62 500 q 123 663 98 616 q 182 741 148 711 q 260 770 216 770 q 353 739 315 770 q 417 663 392 708 q 456 566 442 617 q 473 473 469 514 q 458 447 471 457 q 433 437 446 437 l 426 437 q 420 444 425 439 q 415 449 416 448 q 414 459 415 453 q 414 473 414 465 q 413 488 414 481 q 412 496 412 494 q 419 543 412 522 q 426 585 426 563 l 426 591 q 393 631 410 610 q 359 670 377 652 q 319 699 340 688 q 270 711 297 711 q 208 686 236 711 q 160 622 180 661 q 125 535 140 583 q 100 440 110 487 q 87 353 91 393 q 83 290 83 313 q 95 193 83 237 q 134 115 107 148 q 201 64 161 83 q 297 46 241 46 q 357 52 326 46 q 418 66 388 57 q 478 90 449 76 q 532 119 507 103 q 541 125 534 119 q 555 136 548 130 q 570 147 563 142 q 579 155 578 152 q 585 155 581 155 q 591 156 590 156 q 598 155 594 156 q 604 155 602 155 q 578 104 597 126 q 532 64 559 81 q 473 34 506 46 q 408 14 441 22 q 347 2 376 5 q 294 -1 317 -1 q 188 16 236 -1 q 105 66 140 34 q 52 146 71 99 q 34 255 34 194 z "},"D":{"ha":697,"x_min":20,"x_max":665,"o":"m 201 11 q 170 35 193 18 q 123 71 148 52 q 77 107 99 91 q 47 130 56 123 q 28 147 35 140 q 20 172 20 155 q 56 162 41 172 q 85 140 71 152 q 115 119 99 129 q 151 110 130 110 q 151 158 151 123 q 153 232 152 193 q 154 306 153 271 q 155 355 155 340 q 153 382 155 361 q 149 427 151 403 q 144 471 146 450 q 142 496 142 491 q 144 512 142 499 q 148 538 145 525 q 153 564 151 552 q 155 579 155 576 l 155 609 l 155 640 q 153 656 155 643 q 148 686 151 670 q 144 716 145 703 q 142 734 142 730 q 144 753 142 739 q 146 781 145 766 q 150 810 148 796 q 155 827 152 823 q 186 849 175 845 q 217 853 197 853 q 330 832 274 853 q 435 774 385 811 q 527 689 486 738 q 599 586 568 640 q 647 474 629 532 q 665 363 665 416 q 640 237 665 302 q 571 119 614 172 q 470 33 528 66 q 347 -1 412 -1 q 311 1 328 -1 q 275 7 293 4 q 238 12 256 9 q 201 11 220 14 m 237 71 q 241 64 237 69 q 250 58 245 60 q 261 54 252 57 q 281 46 270 50 q 304 39 293 42 q 319 35 315 37 l 327 35 q 396 52 361 35 q 464 96 431 69 q 524 159 496 123 q 571 233 551 195 q 604 309 591 271 q 616 380 616 347 q 600 465 616 419 q 555 557 583 511 q 491 646 528 604 q 413 722 454 689 q 329 774 372 754 q 245 793 286 793 q 227 793 236 793 q 209 789 217 792 q 195 780 201 787 q 189 761 189 773 q 189 715 189 738 q 191 668 189 692 q 197 622 193 644 q 213 579 202 600 l 237 71 z "},"E":{"ha":792,"x_min":24,"x_max":758,"o":"m 119 250 q 92 269 100 259 q 83 296 83 278 q 86 312 83 305 q 94 325 90 319 q 103 338 99 331 q 107 354 107 345 q 108 392 107 370 q 106 436 109 414 q 96 478 103 458 q 71 510 88 498 q 83 520 75 511 q 95 532 92 529 l 95 534 q 95 536 95 534 q 95 538 95 537 q 86 563 95 556 q 66 572 77 570 q 42 578 54 575 q 24 591 30 581 q 73 627 39 612 q 150 653 107 642 q 239 673 193 665 q 331 687 286 681 q 411 695 376 693 q 467 697 446 697 l 498 697 q 530 695 510 697 q 568 691 549 693 q 602 688 587 689 q 616 686 616 686 l 628 675 l 616 662 q 389 646 498 658 q 165 604 279 635 q 163 593 164 601 q 159 575 161 585 q 156 557 157 566 q 155 545 155 548 q 155 536 155 543 q 155 524 155 530 q 156 511 156 517 q 156 502 156 506 q 376 512 267 502 q 595 522 484 522 q 612 522 604 522 q 626 520 620 522 q 636 512 632 518 q 640 495 640 506 q 607 476 640 488 q 524 448 574 464 q 414 414 473 433 q 305 374 355 395 q 222 332 255 354 q 189 290 189 311 l 189 286 q 189 285 189 286 q 195 279 190 283 q 201 271 201 274 q 202 270 201 270 l 202 267 q 203 266 202 266 q 203 265 203 266 q 202 263 202 264 q 201 260 201 262 q 195 254 201 259 q 189 250 190 250 q 182 236 187 245 q 178 225 178 227 q 193 149 178 180 q 235 97 209 117 q 295 68 260 77 q 368 58 330 58 q 464 73 420 58 q 545 114 507 88 q 618 174 583 140 q 686 250 652 209 q 691 256 688 250 q 699 271 694 263 q 706 286 703 278 q 709 296 709 293 q 710 302 709 297 q 711 309 711 307 q 706 322 711 317 q 694 330 701 327 q 680 333 688 332 q 665 334 673 334 q 682 359 665 353 q 718 366 700 366 q 748 353 738 366 q 758 319 758 339 q 738 242 758 281 q 685 168 718 203 q 610 101 652 132 q 522 48 567 71 q 434 12 477 26 q 355 -1 391 -1 q 256 18 296 -1 q 190 73 217 38 q 147 153 163 107 q 119 250 132 198 m 152 477 q 155 429 152 449 q 158 395 156 410 q 165 380 160 380 l 178 380 q 195 386 179 380 q 234 401 212 392 q 280 421 256 411 q 319 437 304 431 q 329 442 323 438 q 343 450 335 446 q 357 457 351 453 q 368 461 363 461 q 315 471 343 468 q 257 476 286 475 q 200 477 228 477 q 152 477 172 477 z "},"F":{"ha":627,"x_min":23,"x_max":605,"o":"m 130 331 q 115 331 126 331 q 90 331 103 331 q 64 331 76 331 q 47 331 52 331 q 27 338 31 334 q 23 354 23 343 q 37 376 23 365 q 68 397 50 387 q 104 417 87 407 q 130 437 122 427 l 130 452 q 131 473 130 461 q 132 494 132 484 l 132 552 q 130 591 132 572 q 125 631 127 610 q 121 661 123 644 l 121 654 q 115 644 119 647 q 105 639 111 640 q 91 637 99 637 q 61 649 75 637 q 47 681 47 661 q 73 731 47 708 q 136 774 98 754 q 223 808 175 793 q 317 833 271 823 q 404 848 363 844 q 468 853 445 853 l 486 853 q 512 852 498 853 q 538 852 526 852 l 556 852 q 605 789 605 837 l 605 776 q 604 757 605 766 q 599 740 602 747 q 587 732 595 732 q 583 733 585 732 q 579 734 581 734 q 570 765 575 750 q 558 789 564 777 q 545 806 552 800 l 532 806 q 512 806 522 806 q 492 807 502 807 l 479 807 q 406 803 450 807 q 318 787 362 799 q 237 753 274 774 q 189 697 201 731 l 189 678 q 189 648 189 665 q 189 618 189 632 l 189 598 q 189 511 189 555 q 201 426 189 468 q 210 425 203 426 q 218 425 217 425 q 292 433 255 425 q 364 450 328 441 q 437 467 400 460 q 511 475 473 475 q 530 476 517 475 q 558 475 544 477 q 584 468 572 473 q 595 449 595 463 q 593 444 595 448 q 591 437 591 439 q 565 435 583 437 q 526 433 547 434 q 488 429 506 431 q 461 426 469 427 q 438 420 457 425 q 397 410 419 416 q 353 399 374 404 q 319 391 331 393 q 296 383 312 388 q 264 373 281 378 q 232 362 247 368 q 213 355 217 357 q 208 350 212 354 l 201 343 l 201 334 q 201 319 201 327 q 201 305 201 312 l 201 296 q 201 239 201 270 q 204 178 201 209 q 215 120 208 148 q 237 71 222 92 q 243 66 237 71 q 254 59 248 62 q 266 52 260 56 q 273 46 271 47 l 273 41 q 273 36 273 38 q 274 31 274 34 q 267 5 274 12 q 241 -1 260 -1 q 203 18 218 -1 q 178 68 189 38 q 163 138 168 99 q 154 213 159 176 q 144 281 149 250 q 130 331 140 313 z "},"G":{"ha":887,"x_min":42,"x_max":1002,"o":"m 635 247 q 452 110 543 174 q 256 -3 361 46 q 236 -1 245 0 q 218 -6 227 -3 q 199 -12 209 -9 q 179 -15 189 -15 q 127 -4 152 -15 q 83 25 102 7 q 53 68 64 43 q 42 119 42 92 q 77 277 42 201 q 162 424 111 354 q 274 557 213 494 q 387 673 335 620 l 350 697 l 362 708 q 416 714 392 707 q 463 731 441 722 q 507 749 484 741 q 556 757 529 757 q 572 757 564 757 q 587 755 581 757 q 596 747 593 753 q 600 732 600 742 q 578 713 600 728 q 520 672 556 697 q 438 613 484 647 q 344 537 392 579 q 250 447 296 495 q 168 347 205 399 q 110 237 132 294 q 88 122 88 180 q 98 85 88 99 q 121 61 107 71 q 154 48 136 52 q 190 45 172 45 q 315 76 250 45 q 441 152 380 107 q 555 248 502 197 q 647 342 609 300 q 657 358 655 350 q 659 377 659 366 q 659 384 659 380 q 658 388 658 388 q 582 370 617 380 q 512 348 547 359 q 444 323 477 336 q 374 294 411 311 q 372 294 373 294 q 368 293 372 293 q 353 301 357 293 q 349 317 349 309 q 371 348 349 332 q 423 376 393 363 q 483 399 453 389 q 528 412 513 408 q 551 419 532 414 q 593 431 571 425 q 633 441 614 437 q 658 448 652 446 q 677 456 669 450 q 693 469 685 463 q 709 479 701 475 q 730 484 718 484 q 743 483 736 484 q 753 472 749 481 l 966 472 q 972 471 967 472 q 984 467 978 469 q 994 463 990 465 q 1001 461 998 461 q 1002 458 1001 460 q 1002 456 1002 457 q 1002 454 1002 456 q 1002 452 1002 453 q 1002 450 1002 452 q 1001 448 1001 449 q 996 441 1000 445 q 990 437 991 437 q 954 435 979 437 q 901 431 929 433 q 847 427 872 429 q 812 425 822 426 q 766 412 783 420 q 741 377 750 404 q 718 284 726 327 q 706 201 709 241 q 703 117 703 160 q 703 22 703 73 q 703 -11 703 14 q 703 -62 703 -35 q 705 -111 704 -88 q 705 -144 705 -134 q 712 -172 707 -152 q 724 -215 718 -193 q 734 -258 730 -237 q 741 -286 738 -278 q 743 -300 742 -289 q 743 -316 743 -312 q 706 -300 722 -316 q 680 -258 690 -283 q 663 -201 669 -232 q 653 -140 656 -170 q 648 -85 650 -110 q 647 -49 647 -61 q 645 7 646 -33 q 644 93 644 47 q 645 178 644 138 q 647 235 646 218 l 635 247 z "},"H":{"ha":662,"x_min":24,"x_max":632,"o":"m 510 616 q 433 578 472 595 q 354 545 393 562 q 276 512 315 529 q 201 473 237 495 q 201 463 201 471 q 201 447 201 456 q 201 431 201 438 q 201 420 201 423 q 205 292 201 357 q 225 165 210 227 q 230 154 225 164 q 237 141 235 144 q 237 136 237 140 q 237 130 237 132 q 233 113 237 122 q 218 104 229 104 q 195 122 205 104 q 177 166 184 140 q 165 223 170 193 q 158 280 160 254 q 155 325 156 307 q 155 343 155 343 q 150 370 152 354 q 146 400 148 385 q 144 426 145 415 q 142 437 142 437 l 130 454 l 35 454 l 24 486 q 61 501 43 496 q 92 513 79 506 q 112 532 104 521 q 119 567 119 544 q 112 625 119 595 q 96 682 104 654 q 79 738 87 709 q 71 792 71 766 q 73 812 71 802 q 79 832 75 823 q 89 847 83 841 q 107 853 95 853 q 134 830 125 853 q 149 772 144 807 q 157 699 155 738 q 165 625 160 659 q 177 567 170 590 q 201 544 184 544 q 223 547 214 544 q 250 556 232 551 q 292 572 266 563 q 349 592 319 581 q 409 618 378 604 q 465 650 439 632 q 509 689 491 669 q 533 734 528 709 q 535 771 534 746 q 540 822 536 796 q 555 867 544 848 q 587 887 566 887 q 603 879 597 887 q 612 859 609 871 q 616 837 616 848 q 616 819 616 826 q 616 810 616 817 q 616 798 616 804 q 616 787 616 792 q 616 781 616 783 q 612 716 614 760 q 606 618 609 673 q 599 502 602 563 q 591 387 595 441 q 585 289 587 332 q 579 225 582 245 q 581 201 579 218 q 585 165 583 184 q 589 130 587 146 q 591 106 591 113 q 601 78 594 91 q 614 52 608 65 q 626 24 620 38 q 632 -5 632 11 q 593 14 612 -5 q 559 60 574 34 q 536 113 545 87 q 526 155 526 140 l 526 616 l 510 616 z "},"I":{"ha":176,"x_min":23,"x_max":156,"o":"m 47 225 q 31 477 38 355 q 23 728 23 600 q 23 741 23 731 q 24 760 23 750 q 24 780 24 770 q 24 792 24 789 q 34 816 26 802 q 53 830 42 830 q 68 822 62 830 q 77 803 75 814 q 81 783 80 792 q 83 770 83 773 q 86 737 84 760 q 90 690 88 715 q 93 644 91 666 q 95 616 95 623 q 95 579 95 606 q 95 515 95 552 q 95 437 95 479 q 95 359 95 396 q 95 296 95 323 q 95 260 95 270 q 105 192 95 225 q 126 125 115 159 q 146 59 137 92 q 156 -8 156 26 q 125 7 140 -8 q 100 44 111 22 q 79 94 88 66 q 64 146 71 121 q 53 193 57 172 q 47 225 49 214 z "},"J":{"ha":746,"x_min":9,"x_max":722,"o":"m 331 -408 q 332 -345 331 -378 q 340 -276 334 -311 q 358 -210 346 -241 q 391 -153 370 -178 q 435 -113 404 -138 q 498 -60 465 -88 q 555 -5 530 -31 q 581 42 581 22 q 580 57 581 46 q 579 72 579 68 q 532 79 563 75 q 461 89 500 83 q 378 101 422 95 q 294 113 334 107 q 224 123 255 119 q 176 130 193 127 q 146 134 168 132 q 100 138 125 136 q 54 141 76 140 q 23 142 33 142 q 12 153 14 145 q 9 168 9 160 q 14 182 9 180 q 35 189 18 184 q 70 201 42 193 q 130 219 98 209 q 189 238 161 229 q 225 250 217 247 q 276 268 245 256 q 339 295 307 279 q 404 329 372 311 q 463 369 437 347 q 506 414 490 391 q 522 463 522 437 q 518 529 522 496 q 509 595 514 562 q 499 661 503 628 q 495 726 495 693 q 498 751 495 739 q 521 770 500 764 q 559 730 547 754 q 577 678 571 707 q 588 621 583 650 q 604 568 593 593 l 644 24 l 722 24 q 705 9 716 15 q 681 -2 693 3 q 660 -13 669 -7 q 651 -28 651 -19 q 654 -143 651 -85 q 663 -258 658 -201 q 671 -372 667 -315 q 675 -487 675 -430 q 675 -528 675 -503 q 675 -576 675 -552 q 674 -619 674 -601 q 674 -639 674 -637 q 671 -685 673 -658 q 665 -743 670 -712 q 652 -804 661 -773 q 632 -861 644 -836 q 601 -903 620 -886 q 556 -922 582 -921 q 455 -819 498 -879 q 385 -692 412 -760 q 344 -551 357 -624 q 331 -408 331 -479 m 376 -397 q 385 -522 376 -458 q 416 -646 395 -585 q 471 -760 437 -707 q 556 -853 506 -812 q 559 -853 557 -853 q 562 -853 560 -853 q 585 -837 575 -853 q 600 -798 594 -821 q 610 -755 606 -776 q 616 -723 613 -734 q 618 -699 616 -715 q 622 -665 620 -682 q 625 -633 624 -647 q 627 -616 627 -620 q 627 -595 627 -613 q 627 -555 627 -578 q 628 -508 628 -532 q 628 -471 628 -484 q 626 -271 628 -372 q 604 -72 624 -170 q 598 -58 602 -68 q 591 -47 594 -49 l 590 -47 q 587 -47 589 -47 q 585 -46 586 -46 q 520 -65 549 -46 q 468 -115 491 -84 q 428 -184 445 -145 q 399 -262 411 -224 q 382 -337 388 -301 q 376 -397 376 -373 m 236 168 q 307 164 271 168 q 376 155 342 160 q 446 146 411 151 q 515 142 480 142 q 541 144 532 142 q 567 155 551 145 q 568 172 567 159 q 568 189 568 184 q 568 210 568 197 q 567 225 567 222 q 562 262 566 240 q 555 304 559 283 q 548 340 551 326 q 544 355 545 355 l 521 355 q 382 267 453 308 q 236 189 311 225 l 236 168 z "},"K":{"ha":686,"x_min":35,"x_max":677,"o":"m 35 709 q 41 730 35 726 q 58 735 46 735 q 82 724 75 735 q 95 697 90 713 q 94 647 95 681 q 94 570 94 613 q 94 480 94 528 q 94 389 94 433 q 94 311 94 346 q 95 260 95 277 q 96 233 95 254 q 99 191 98 213 q 102 148 100 168 q 106 119 104 127 q 112 106 107 115 q 119 95 117 96 q 121 94 119 94 l 123 94 q 151 125 132 94 q 196 205 171 156 q 252 313 221 254 q 313 431 282 373 q 372 538 343 490 q 426 616 401 587 q 429 616 427 616 q 433 616 431 616 q 448 606 445 616 q 450 585 450 595 q 431 515 450 551 q 390 438 412 480 q 349 349 368 396 q 330 243 330 301 q 330 230 330 239 q 330 210 330 221 q 331 190 331 199 q 331 176 331 180 q 370 121 340 142 q 437 87 399 99 q 517 69 475 75 q 595 61 560 64 q 654 54 631 58 q 677 42 677 50 q 675 35 677 38 q 613 23 643 23 q 551 23 583 23 q 433 31 479 23 q 357 62 388 39 q 305 123 327 84 q 260 225 283 163 q 233 195 244 216 q 214 150 222 175 q 197 98 205 125 q 179 49 190 71 q 152 13 168 27 q 113 -1 136 -1 q 77 20 91 -1 q 57 70 64 42 q 48 123 50 98 q 46 155 46 148 l 35 709 z "},"L":{"ha":697,"x_min":34,"x_max":686,"o":"m 34 334 q 43 534 34 435 q 71 734 52 633 q 79 760 75 750 q 89 777 83 770 q 105 785 95 783 q 132 787 115 787 q 132 766 132 781 q 130 746 132 750 q 125 707 129 736 q 117 639 122 678 q 106 556 111 600 q 96 473 100 513 q 87 405 91 434 q 83 366 83 376 l 83 355 q 100 234 83 290 q 152 136 117 178 q 239 70 187 94 q 359 46 290 46 q 440 55 400 46 q 519 75 480 64 q 597 96 559 87 q 675 106 636 106 l 686 106 l 675 83 q 665 79 674 83 q 642 68 655 75 q 614 56 628 62 q 591 46 601 50 q 474 12 533 24 q 351 -1 415 -1 q 210 22 270 -1 q 111 88 151 45 q 53 193 72 132 q 34 334 34 255 z "},"M":{"ha":1031,"x_min":24,"x_max":982,"o":"m 823 616 q 804 602 808 610 q 793 579 799 593 q 783 554 791 574 q 764 507 774 534 q 740 450 753 480 q 716 393 727 420 q 697 346 705 366 q 686 319 689 326 q 663 269 677 297 q 629 214 648 240 q 585 171 609 189 q 533 153 562 153 q 461 188 488 153 q 420 277 434 222 q 400 401 406 332 q 391 534 395 469 q 384 656 388 600 q 368 746 380 713 q 363 746 365 746 q 361 746 362 746 q 359 746 359 746 q 358 746 359 746 l 355 746 q 330 722 342 738 q 309 687 319 705 q 294 652 300 669 q 285 627 288 636 l 130 130 q 126 119 129 126 q 119 106 123 113 q 108 96 114 100 q 95 95 102 92 q 85 101 91 95 q 73 115 79 107 q 64 130 68 122 q 58 141 60 137 q 35 420 38 278 q 35 697 33 563 q 29 709 34 700 q 24 722 24 719 q 31 741 24 731 q 45 761 37 751 q 64 777 54 770 q 83 783 75 783 q 102 775 96 783 q 107 754 107 768 q 100 609 107 681 q 94 463 94 537 q 94 435 94 453 q 94 401 94 418 q 95 370 95 384 q 95 355 95 357 l 107 307 q 113 313 109 309 q 119 319 118 317 q 129 339 122 324 q 143 371 136 354 q 157 404 151 388 q 165 426 164 419 q 175 451 168 433 q 191 496 182 469 q 212 551 201 522 q 233 605 224 579 q 250 650 243 631 q 260 675 258 669 q 277 714 266 686 q 306 770 289 742 q 342 819 323 798 q 384 841 362 841 q 415 814 404 841 q 432 743 426 787 q 441 642 438 699 q 446 526 444 586 q 452 410 448 467 q 467 310 457 354 q 493 239 476 266 q 538 212 510 212 q 557 220 547 212 q 576 241 567 229 q 593 266 586 254 q 604 285 601 278 q 631 340 613 302 q 671 426 648 378 q 718 526 693 473 q 764 627 742 579 q 803 713 785 675 q 829 770 821 751 q 847 815 836 787 q 864 864 859 844 q 897 854 880 861 q 913 830 913 848 q 912 823 913 827 q 911 817 911 818 q 884 600 892 705 q 875 384 875 495 q 875 351 875 374 q 876 299 875 327 q 876 248 876 271 q 876 213 876 224 q 916 111 883 157 q 982 24 948 65 l 982 -7 q 952 6 970 -7 q 917 39 935 19 q 882 85 899 60 q 852 136 865 111 q 831 180 840 160 q 823 213 823 201 l 823 616 z "},"N":{"ha":781,"x_min":34,"x_max":746,"o":"m 155 532 q 151 509 155 532 q 144 453 148 486 q 137 387 141 420 q 130 331 133 354 l 130 319 q 123 275 127 307 q 113 207 118 243 q 102 139 107 171 q 95 95 96 107 q 79 68 91 79 q 52 58 68 58 q 40 64 43 58 q 35 80 37 71 q 34 98 34 90 q 34 111 34 107 q 41 264 34 184 q 60 423 47 343 q 90 582 72 503 q 130 734 107 661 q 136 743 132 741 q 147 746 141 746 q 159 746 153 746 q 168 746 165 746 q 174 746 171 746 q 180 746 178 746 l 189 746 q 191 740 189 746 q 195 726 193 734 q 199 710 197 718 q 201 697 201 703 q 225 600 209 661 q 267 467 241 538 q 323 323 292 396 q 394 191 355 250 q 476 95 433 132 q 567 58 519 58 q 609 75 590 58 q 642 117 628 91 q 667 176 656 144 q 684 239 677 209 q 695 296 692 270 q 699 336 699 323 q 676 545 699 444 q 616 746 654 646 q 591 766 608 757 q 567 781 575 776 q 578 792 571 791 q 593 793 585 793 q 640 762 618 793 q 677 684 661 731 q 708 579 694 636 q 730 469 722 522 q 742 374 738 416 q 746 317 746 332 q 739 219 746 274 q 711 115 731 164 q 654 33 690 66 q 562 -1 618 -1 q 466 32 510 -1 q 385 117 422 65 q 315 234 347 170 q 256 360 283 298 q 207 474 229 422 q 165 556 184 526 l 155 532 z "},"O":{"ha":640,"x_min":23,"x_max":605,"o":"m 23 231 q 32 319 23 270 q 58 417 41 368 q 101 513 75 467 q 162 595 127 559 q 239 654 197 632 q 331 675 281 675 q 411 656 374 675 q 478 606 448 636 q 532 534 509 575 q 571 451 555 494 q 596 367 587 408 q 605 292 605 326 q 589 203 605 244 q 545 130 572 163 q 479 73 517 98 q 400 32 442 49 q 314 7 358 15 q 227 -1 270 -1 q 130 15 168 -1 q 67 62 91 31 q 33 135 43 92 q 23 231 23 178 m 71 201 q 83 135 71 163 q 117 90 95 107 q 168 66 138 73 q 235 58 198 58 q 350 71 292 58 q 454 113 408 84 q 530 188 500 142 q 559 298 559 233 q 543 396 559 339 q 499 505 528 453 q 429 592 471 556 q 338 628 388 628 q 299 626 315 628 q 260 616 283 624 l 260 609 l 260 604 q 262 597 260 602 q 267 585 264 591 q 271 574 270 579 q 273 567 273 568 q 266 549 273 555 q 250 540 259 543 q 231 536 241 537 q 213 532 221 534 q 140 475 168 513 q 97 390 113 437 q 76 293 81 343 q 71 201 71 243 z "},"P":{"ha":567,"x_min":20,"x_max":545,"o":"m 107 307 q 83 318 98 311 q 54 335 68 326 q 31 356 41 345 q 20 381 20 368 q 58 374 41 381 q 92 368 75 368 q 87 562 92 465 q 83 757 83 658 q 83 776 83 762 q 83 804 83 789 q 83 833 83 819 q 83 852 83 848 q 123 925 91 901 q 203 949 155 949 q 272 933 235 949 q 347 891 309 917 q 421 831 385 865 q 484 759 457 796 q 528 685 511 722 q 545 616 545 648 q 519 465 545 525 q 446 369 494 406 q 333 313 399 332 q 189 285 267 294 q 195 227 193 254 q 199 176 198 201 q 202 125 201 151 q 203 73 203 100 q 203 54 203 66 q 199 30 202 42 q 191 8 197 18 q 172 -1 184 -1 q 161 3 167 -1 q 152 13 156 7 q 145 25 148 19 q 142 35 142 31 l 107 307 m 164 514 q 161 463 164 492 q 161 406 159 433 q 178 361 164 380 q 224 342 191 342 q 326 361 278 342 q 409 416 373 381 q 465 498 445 450 q 486 600 486 545 q 473 663 486 629 q 438 731 460 697 q 387 795 416 765 q 326 850 358 826 q 262 887 294 873 q 201 901 229 901 q 160 886 176 901 q 134 848 144 871 q 121 800 125 826 q 118 755 118 774 q 127 713 118 726 q 149 695 137 701 q 170 684 160 689 q 179 663 179 678 q 176 639 179 648 q 165 616 172 629 q 165 595 165 609 q 165 565 165 581 q 164 535 164 549 q 164 514 164 521 z "},"Q":{"ha":852,"x_min":24,"x_max":818,"o":"m 587 260 q 559 253 575 260 q 529 235 544 245 q 500 216 514 225 q 473 201 486 206 q 427 183 449 190 q 385 172 406 176 q 341 166 363 168 q 290 164 319 164 q 197 174 236 164 q 132 205 157 183 q 95 264 107 227 q 83 359 83 302 q 89 439 83 401 q 95 518 95 477 q 84 556 95 537 q 60 593 73 575 q 35 632 46 612 q 24 675 24 652 q 43 774 24 730 q 95 852 62 818 q 171 911 127 886 q 262 952 214 936 q 359 976 311 968 q 454 983 408 983 q 591 952 533 983 q 686 870 648 921 q 743 753 724 819 q 761 616 761 686 q 747 526 761 567 q 718 446 734 486 q 688 366 701 406 q 674 279 674 326 q 678 196 674 237 q 709 119 682 155 q 732 99 716 111 q 765 73 747 87 q 797 47 783 60 q 817 24 811 34 l 817 22 l 817 18 q 818 18 817 18 q 817 16 818 16 q 817 14 817 15 l 817 11 q 811 5 815 9 q 806 0 807 1 l 799 0 q 737 19 765 0 q 688 67 709 38 q 651 130 667 96 q 623 193 635 164 q 602 241 610 221 q 587 260 593 260 m 118 362 q 132 293 118 321 q 171 246 146 264 q 227 220 195 228 q 296 212 259 212 q 375 222 327 212 q 469 254 423 233 q 547 302 514 274 q 581 366 581 331 q 578 425 581 399 q 568 486 576 452 q 553 486 564 486 q 538 486 543 486 q 439 479 488 486 q 338 472 389 472 q 288 472 311 472 q 244 474 266 472 q 201 481 222 476 q 155 496 180 486 q 137 457 144 473 q 125 427 130 441 q 119 397 121 412 q 118 362 118 381 m 677 624 q 671 578 677 600 q 659 535 666 556 q 648 491 652 514 q 643 437 643 468 l 663 437 q 682 462 673 437 q 698 519 692 487 q 707 579 704 551 q 711 616 711 608 q 700 725 711 669 q 663 829 689 781 q 595 907 637 876 q 491 937 553 937 q 463 936 477 937 q 438 922 449 935 q 473 907 456 917 q 503 882 490 897 q 525 850 517 868 q 533 811 533 831 l 533 806 q 526 798 530 803 q 521 792 522 793 l 449 864 l 448 864 q 446 865 446 864 q 444 865 445 865 q 392 848 419 865 q 340 808 365 831 q 294 757 315 784 q 260 709 274 730 q 243 682 255 701 q 218 639 232 662 q 193 595 205 616 q 178 567 182 575 q 177 565 178 567 q 176 563 176 563 q 200 533 176 544 q 254 517 224 522 q 311 511 283 513 q 347 510 339 510 q 369 511 351 510 q 412 515 387 513 q 465 520 437 517 q 518 527 494 524 q 558 535 543 530 q 574 545 574 540 l 574 697 q 581 707 574 704 q 595 710 587 709 q 609 711 602 711 q 616 711 616 711 q 646 703 635 711 q 665 683 658 696 q 674 655 671 670 q 677 624 677 640 m 71 675 q 75 653 71 667 q 87 625 80 639 q 105 602 95 612 q 125 591 115 591 l 127 591 q 130 591 129 591 q 136 597 132 593 q 142 604 140 602 q 195 690 170 647 q 249 773 221 732 q 308 851 277 814 q 380 922 339 888 q 367 923 376 922 q 355 924 358 924 q 256 904 307 924 q 164 851 205 884 q 97 772 123 818 q 71 675 71 727 z "},"R":{"ha":697,"x_min":35,"x_max":677,"o":"m 155 250 q 152 241 153 250 q 149 221 151 233 q 144 197 146 209 q 141 176 142 184 q 138 154 140 171 q 135 118 137 137 q 132 83 133 99 q 130 58 130 66 q 125 53 129 57 q 119 46 121 49 q 115 46 117 46 l 113 46 l 109 46 q 106 46 107 46 q 94 58 103 49 q 83 71 84 68 q 75 109 80 81 q 64 165 71 136 q 54 222 58 195 q 46 260 49 250 l 46 271 q 45 308 46 281 q 43 372 45 335 q 41 449 42 408 q 39 526 39 490 q 37 590 38 563 q 35 627 35 617 l 35 635 q 55 743 35 689 q 109 840 75 796 q 192 910 144 883 q 297 937 240 937 q 358 925 328 937 q 411 892 388 913 q 448 844 434 872 q 463 783 463 815 q 439 692 463 735 q 382 610 416 648 q 307 538 347 572 q 233 475 267 505 q 175 418 198 445 q 152 366 152 391 q 169 323 152 347 q 212 275 186 300 q 271 226 239 250 q 336 181 304 202 q 395 144 368 160 q 437 119 422 127 q 458 107 442 115 q 494 90 475 99 q 531 71 514 80 q 556 58 548 62 q 588 52 568 54 q 628 47 608 50 q 663 39 648 45 q 677 18 677 33 q 676 16 677 16 q 675 14 675 15 l 675 11 q 669 5 673 9 q 662 0 665 1 q 654 0 661 0 q 642 -1 648 0 q 629 -1 635 -1 q 620 -1 623 -1 q 495 24 557 -1 q 374 86 433 49 q 263 167 316 123 q 165 250 210 210 l 155 250 m 129 713 q 127 653 129 685 q 127 590 126 621 q 134 529 127 559 q 155 473 140 499 q 191 501 167 481 q 245 547 216 521 q 304 605 274 574 q 359 667 335 636 q 400 726 384 697 q 416 774 416 754 q 404 825 416 806 q 373 857 392 845 q 330 872 354 868 q 279 876 305 876 q 165 831 202 876 q 129 713 129 787 z "},"S":{"ha":697,"x_min":24,"x_max":677,"o":"m 24 307 q 41 359 24 338 q 83 392 58 380 q 136 410 107 404 q 189 415 164 415 q 208 410 194 415 q 225 401 221 404 l 225 400 q 225 397 225 399 q 215 380 225 385 q 189 371 205 374 q 154 365 172 368 q 119 355 136 362 q 93 336 103 349 q 83 302 83 324 q 111 241 83 273 q 184 183 140 210 q 282 132 228 156 q 388 92 336 109 q 481 66 439 75 q 545 58 524 57 q 559 62 549 58 q 581 69 570 65 q 602 77 591 73 q 616 83 612 81 q 616 94 616 85 q 617 106 617 103 q 613 134 617 122 q 602 155 609 145 q 583 176 594 165 q 556 201 571 186 q 519 237 544 213 q 464 292 495 262 q 398 356 433 323 q 331 420 363 389 q 274 474 298 450 q 237 510 250 498 q 176 609 198 560 q 153 722 153 658 q 176 825 153 779 q 250 901 198 871 q 260 901 252 901 q 278 901 269 901 q 296 901 288 901 q 308 901 305 901 q 388 886 346 901 q 465 846 430 872 q 524 784 500 821 q 547 704 547 747 q 545 687 547 699 q 533 675 544 675 q 497 688 513 675 q 467 722 481 701 q 439 764 453 742 q 409 807 426 787 q 370 840 392 827 q 319 853 347 853 q 275 840 297 853 q 237 808 254 827 q 211 766 221 789 q 201 723 201 743 q 209 661 201 693 q 232 600 217 629 q 267 545 247 571 q 308 496 286 518 l 628 189 q 663 141 648 171 q 677 84 677 111 q 667 46 677 62 q 643 20 658 30 q 608 5 628 9 q 568 0 589 0 l 556 0 q 522 7 545 1 q 475 19 499 14 q 429 29 450 24 q 403 35 408 34 q 345 56 381 42 q 267 90 309 71 q 182 135 225 110 q 104 189 138 160 q 47 248 69 217 q 24 307 24 278 z "},"T":{"ha":806,"x_min":11,"x_max":785,"o":"m 461 58 q 460 109 461 75 q 458 186 458 144 q 455 277 457 229 q 452 369 453 326 q 450 446 452 412 q 449 496 449 480 q 450 528 449 509 q 448 563 450 547 q 437 591 445 579 q 410 604 429 604 q 310 599 359 604 q 212 582 260 594 q 119 549 164 570 q 35 496 75 528 q 21 507 30 498 q 11 521 12 515 q 32 563 5 543 q 104 601 58 583 q 205 632 149 618 q 312 656 260 646 q 405 671 363 666 q 461 677 446 677 q 479 674 473 677 q 496 662 486 671 l 785 662 q 775 646 785 652 q 751 635 765 640 q 726 629 738 631 q 709 627 713 627 q 674 624 700 625 q 621 621 648 623 q 568 617 593 618 q 532 616 543 616 q 513 606 522 612 q 496 591 503 601 q 500 568 498 585 q 504 532 502 551 q 507 497 506 514 q 509 473 509 480 q 509 437 509 465 q 509 370 509 408 q 509 289 509 331 q 509 209 509 247 q 509 143 509 171 q 509 106 509 115 q 510 91 509 103 q 513 64 511 79 q 517 39 515 50 q 521 24 519 27 l 521 16 q 513 2 521 5 q 496 -1 506 -1 q 479 5 486 -1 q 469 20 472 11 q 464 40 465 30 q 461 58 463 50 z "},"U":{"ha":532,"x_min":24,"x_max":498,"o":"m 53 605 q 66 599 60 605 q 75 585 72 593 q 81 568 79 576 q 83 556 83 560 l 83 250 q 95 185 83 218 q 127 123 107 152 q 175 77 148 95 q 235 58 202 58 q 309 79 277 58 q 367 132 342 99 q 410 207 392 164 q 440 292 429 250 q 456 376 452 335 q 461 449 461 416 q 461 489 461 461 q 458 551 461 517 q 449 623 454 586 q 433 688 444 659 q 406 733 422 716 q 368 746 391 750 q 366 748 368 746 q 365 751 365 750 q 378 774 365 766 q 403 783 391 783 q 434 770 420 783 q 458 740 448 758 q 476 698 469 722 q 488 652 483 674 q 494 610 492 629 q 498 579 496 591 q 498 562 498 578 q 498 526 498 547 q 498 484 498 506 q 498 449 498 463 q 498 422 498 441 q 498 384 498 404 q 498 345 498 363 q 498 319 498 327 q 465 216 486 271 q 413 112 445 160 q 336 32 381 64 q 231 0 292 0 q 149 24 187 0 q 83 84 111 47 q 40 165 56 121 q 24 250 24 209 l 24 579 q 33 591 24 582 q 47 604 42 600 l 50 604 q 51 604 50 604 q 53 605 52 605 z "},"V":{"ha":591,"x_min":24,"x_max":556,"o":"m 24 627 q 27 650 24 636 q 36 678 30 665 q 50 701 42 692 q 71 711 58 711 q 85 709 79 711 q 95 697 91 708 q 91 586 87 637 q 108 485 95 534 q 139 387 121 435 q 178 285 157 338 q 179 279 179 283 q 178 271 179 274 q 189 250 180 266 q 206 218 197 235 q 224 186 216 201 q 237 165 233 172 q 253 136 244 153 q 273 105 262 119 q 297 81 283 91 q 327 71 311 71 q 359 85 345 71 q 384 122 373 100 q 402 166 395 144 q 415 201 410 189 q 453 319 437 262 q 481 433 469 376 q 503 551 494 491 q 521 675 513 610 l 533 686 q 553 671 551 678 q 556 652 556 665 l 556 640 q 550 591 555 627 q 540 517 545 556 q 528 441 534 477 q 521 391 522 404 q 511 340 518 376 q 491 261 503 305 q 463 171 479 217 q 425 87 446 125 q 380 24 404 49 q 327 -1 355 -1 q 271 26 300 -1 q 216 96 243 53 q 162 190 189 138 q 115 292 136 241 q 80 384 95 342 q 58 449 65 426 q 52 480 57 457 q 42 530 47 503 q 31 581 37 556 q 24 616 26 605 l 24 627 z "},"W":{"ha":876,"x_min":31,"x_max":841,"o":"m 380 355 q 372 327 377 347 q 361 284 368 307 q 350 241 355 262 q 343 213 345 221 q 326 162 335 191 q 303 107 317 133 q 268 64 289 81 q 217 46 247 46 q 144 69 175 46 q 94 130 114 92 q 62 216 73 168 q 44 311 50 263 q 36 404 38 359 q 34 479 34 448 q 32 531 34 498 q 34 597 30 564 q 52 654 38 631 q 98 678 66 678 q 97 648 98 670 q 96 600 96 625 q 95 553 95 575 q 95 521 95 530 q 93 508 95 518 q 89 486 91 498 q 85 463 87 473 q 83 449 83 453 q 85 414 83 441 q 92 358 88 388 q 100 300 96 328 q 106 260 103 273 q 117 215 109 241 q 138 164 125 189 q 170 122 152 140 q 214 104 189 104 q 263 136 245 104 q 291 212 281 167 q 307 313 301 258 q 321 413 313 368 q 340 490 328 458 q 373 521 351 521 l 380 521 q 385 515 381 519 q 391 510 389 511 q 438 386 411 449 q 500 263 465 323 q 578 151 534 203 q 675 58 621 99 q 684 58 677 58 q 693 58 690 58 q 728 77 718 58 q 746 119 738 95 q 755 153 749 130 q 766 201 761 176 q 777 245 772 225 q 781 271 781 266 q 781 288 781 273 q 782 324 781 304 q 783 366 783 345 q 783 400 783 388 q 783 441 783 416 q 782 490 783 465 q 781 534 781 515 q 781 556 781 553 q 778 603 780 586 q 770 632 776 620 q 752 654 764 644 q 722 675 741 663 l 722 680 q 726 710 722 697 q 749 723 730 723 q 787 712 774 723 q 806 675 800 701 q 810 640 807 662 q 817 590 814 617 q 825 535 821 563 q 832 482 829 507 q 838 439 836 457 q 840 415 840 420 q 840 404 840 412 q 840 386 840 396 q 841 366 841 376 q 841 349 841 355 q 838 294 841 328 q 829 222 836 260 q 813 143 823 183 q 786 71 803 103 q 746 19 769 39 q 693 -1 723 -1 q 677 -1 689 -1 q 662 0 666 0 q 578 85 613 46 q 513 164 543 123 q 454 250 483 205 q 391 355 426 296 l 380 355 z "},"X":{"ha":697,"x_min":9,"x_max":662,"o":"m 483 229 q 490 302 483 266 q 507 374 498 339 q 524 444 517 408 q 532 514 532 479 l 532 532 q 494 472 514 510 q 452 389 473 434 q 408 298 431 345 q 358 214 384 252 q 305 153 332 176 q 248 129 278 129 q 227 139 231 129 q 222 164 222 149 q 243 256 222 213 q 294 336 263 298 q 360 408 324 374 q 426 473 396 441 q 427 488 426 477 q 427 503 427 498 q 414 577 427 543 q 378 636 401 612 q 322 675 355 661 q 247 689 289 689 q 180 673 213 689 q 119 640 148 658 q 66 606 90 621 q 30 591 42 591 q 14 600 18 591 q 9 616 9 608 q 41 667 9 644 q 114 708 72 690 q 197 736 156 726 q 260 746 239 746 q 353 728 320 746 q 408 682 387 711 q 444 618 429 654 q 486 545 460 583 q 487 544 486 544 l 490 544 q 525 556 510 544 q 552 587 540 568 q 574 627 564 606 q 593 667 583 648 q 614 699 604 686 q 639 711 625 711 q 655 707 648 711 q 662 693 662 703 l 662 686 q 622 580 644 632 q 579 474 600 528 q 545 366 559 420 q 530 254 530 311 q 538 176 530 209 q 560 117 545 144 q 600 68 575 91 q 662 24 625 46 l 662 -5 q 579 17 613 -5 q 524 73 545 39 q 492 149 502 107 q 483 229 483 190 m 366 343 q 337 311 349 332 q 319 271 326 290 q 347 304 335 285 q 366 343 358 324 z "},"Y":{"ha":604,"x_min":22,"x_max":568,"o":"m 331 -61 q 336 9 331 -26 q 349 79 342 45 q 361 149 355 114 q 368 218 368 183 l 368 225 q 231 267 294 239 q 122 339 168 294 q 50 446 76 384 q 23 590 23 507 q 22 623 23 602 q 26 663 22 644 q 40 696 30 682 q 71 711 50 711 q 98 707 90 711 q 107 682 107 703 q 103 648 107 665 q 95 616 99 632 q 87 584 91 601 q 83 551 83 567 q 103 455 83 502 q 158 373 123 408 q 237 316 193 338 q 331 294 282 294 q 341 294 335 294 q 355 295 347 294 q 370 296 363 296 q 380 296 376 296 q 418 352 404 312 q 442 441 433 392 q 458 545 452 491 q 476 644 465 600 q 503 717 487 688 q 545 746 518 746 q 551 741 547 746 q 556 734 555 736 q 559 724 557 732 q 562 703 560 715 q 565 680 563 692 q 568 662 567 669 l 568 656 q 554 530 568 591 q 519 409 540 468 q 473 292 498 350 q 428 176 449 235 q 393 56 407 117 q 378 -72 378 -5 q 386 -168 378 -121 q 393 -263 393 -214 q 363 -251 376 -263 q 345 -220 351 -239 q 334 -177 338 -201 q 330 -131 331 -153 q 330 -90 330 -109 q 331 -61 331 -71 z "},"Z":{"ha":840,"x_min":23,"x_max":819,"o":"m 237 113 q 266 212 237 161 q 338 313 294 262 q 433 415 382 363 q 527 520 483 467 q 600 628 571 574 q 628 738 628 682 q 608 798 628 777 q 557 828 587 819 q 491 838 526 837 q 426 840 456 840 q 372 838 401 840 q 313 833 343 837 q 254 822 283 829 q 201 806 225 815 q 188 798 198 803 q 165 786 178 792 q 143 775 153 780 q 130 770 133 770 q 123 768 129 769 q 111 767 118 768 q 95 766 103 766 q 83 766 87 766 q 73 766 80 766 q 59 767 66 766 q 45 768 52 768 q 35 770 38 769 q 24 779 26 773 q 23 792 23 785 q 50 825 23 811 q 119 850 77 840 q 212 867 161 860 q 311 880 263 875 q 397 886 359 884 q 450 888 434 888 q 534 882 492 888 q 610 857 576 875 q 666 808 644 840 q 688 727 688 777 q 659 614 688 669 q 586 509 629 560 q 491 406 543 457 q 395 307 439 355 q 323 210 351 258 q 294 113 294 161 q 296 81 294 95 q 319 58 298 66 q 328 58 323 58 q 340 58 334 58 q 353 58 347 58 q 361 58 359 58 q 400 60 384 58 q 431 64 416 61 q 463 75 445 68 q 510 95 481 83 q 538 108 518 99 q 585 128 559 117 q 640 153 612 140 q 693 177 667 165 q 739 199 719 189 q 770 213 760 209 l 819 213 q 816 199 819 205 q 806 189 812 193 l 438 11 q 428 9 437 11 q 408 6 419 8 q 385 3 396 4 q 368 0 374 1 l 349 0 q 267 30 297 0 q 237 113 237 60 z "},"[":{"ha":852,"x_min":24,"x_max":829,"o":"m 95 675 q 136 701 107 684 q 201 741 164 719 q 277 787 237 762 q 353 834 317 812 q 418 874 389 856 q 461 901 448 892 q 473 906 465 902 q 489 913 481 910 q 502 920 496 917 q 510 922 507 922 q 530 918 526 925 q 534 901 534 910 q 505 851 534 878 q 430 798 475 825 q 332 744 385 770 q 231 693 278 718 q 150 648 184 669 q 107 616 115 628 q 98 585 103 608 q 88 538 94 563 q 77 492 83 514 q 71 461 72 471 l 71 435 q 71 366 71 404 q 75 287 71 327 q 87 210 79 247 q 113 140 95 172 q 157 87 130 109 q 225 58 184 66 q 251 58 232 58 q 290 58 270 58 q 329 57 311 57 q 355 57 347 57 q 468 66 412 57 q 578 88 524 76 q 687 110 632 100 q 799 119 742 119 q 814 119 803 119 q 829 119 825 119 q 774 76 810 95 q 692 43 738 57 q 594 22 646 30 q 493 8 543 14 q 399 1 444 3 q 327 -1 355 -1 q 299 -1 319 -1 q 258 -1 279 -1 q 216 0 236 0 q 189 0 197 0 q 117 31 148 7 q 65 90 85 56 q 35 167 45 125 q 24 250 24 209 l 24 616 q 30 643 24 632 q 45 661 35 654 q 68 670 56 667 q 95 675 80 673 z "},"\\":{"ha":366,"x_min":-31,"x_max":368,"o":"m 336 83 q 357 37 347 64 q 368 -11 368 11 q 329 7 346 -11 q 299 50 312 26 q 278 100 286 75 q 266 140 270 125 q 119 605 191 373 q -31 1069 47 837 l -31 1076 q -16 1097 -31 1088 q 14 1105 0 1105 q 21 1105 16 1105 q 26 1103 26 1104 l 336 83 z "},"]":{"ha":817,"x_min":5,"x_max":770,"o":"m 5 122 q 21 121 9 122 q 35 119 33 119 q 140 92 92 103 q 236 73 189 80 q 334 62 283 65 q 444 58 384 58 q 473 58 452 58 q 517 58 494 58 q 562 58 541 58 q 591 58 583 58 q 633 65 613 62 q 667 74 652 68 q 690 93 681 80 q 699 129 699 106 q 696 180 699 156 q 692 227 694 203 q 684 277 689 251 q 674 331 680 302 l 674 827 q 669 835 674 830 q 662 840 665 840 q 533 863 601 860 q 401 865 465 865 q 269 859 335 865 q 136 852 203 852 q 124 852 132 852 q 109 852 117 852 q 93 852 100 852 q 83 852 85 852 q 69 863 79 854 q 58 876 60 872 q 57 878 57 876 l 57 882 q 66 903 57 897 q 87 911 75 909 q 111 912 99 913 q 130 911 123 911 q 161 912 137 911 q 216 915 184 913 q 283 918 248 917 q 351 920 319 918 q 406 922 382 921 q 437 922 429 922 q 466 921 444 922 q 514 917 488 920 q 563 913 540 914 q 591 911 586 911 q 623 911 601 911 q 669 910 644 910 q 715 911 693 910 q 746 911 738 911 q 754 905 751 910 q 758 896 757 901 q 758 886 758 891 q 758 876 758 880 q 754 773 758 825 q 745 669 750 722 q 736 565 741 617 q 732 461 732 513 q 732 416 732 444 q 733 363 732 389 q 734 317 734 336 q 734 296 734 297 q 739 261 734 289 q 751 201 745 233 q 762 140 757 168 q 769 106 768 113 q 770 94 769 103 q 770 80 770 85 q 746 33 770 49 q 689 9 722 16 q 622 0 656 1 q 567 -1 587 -1 q 550 -1 562 -1 q 527 -1 538 -1 q 507 0 515 0 q 496 0 498 0 q 451 4 486 1 q 377 10 416 7 q 301 18 338 14 q 248 24 264 22 q 220 31 241 26 q 172 43 198 35 q 116 60 145 50 q 62 81 87 71 q 22 102 38 91 q 5 122 5 113 z "},"^":{"ha":545,"x_min":171,"x_max":410,"o":"m 293 844 q 284 836 290 844 q 270 817 278 827 q 256 798 262 807 q 250 788 250 789 q 196 732 214 746 q 172 722 178 718 q 171 746 167 727 q 185 790 175 765 q 209 843 195 815 q 235 892 222 871 q 258 926 248 914 q 271 929 269 937 q 290 947 278 941 q 313 954 302 954 l 319 954 q 343 892 335 913 q 355 863 351 872 q 363 851 359 854 q 372 838 368 848 q 385 805 376 827 q 410 738 393 783 q 376 711 389 718 q 355 710 363 705 q 340 728 346 715 q 328 761 334 742 q 313 802 321 780 q 293 844 305 823 z "},"_":{"ha":1278,"x_min":11,"x_max":1242,"o":"m 11 11 q 33 40 20 26 q 61 64 46 54 q 94 80 76 75 q 130 83 111 85 q 310 92 222 87 q 483 104 397 98 q 654 119 568 111 q 827 141 739 127 q 920 158 872 148 q 1015 178 967 168 q 1110 194 1063 187 q 1202 201 1157 201 q 1214 198 1206 201 q 1230 190 1222 195 q 1242 178 1237 184 q 1242 165 1246 172 q 1222 138 1236 148 q 1192 126 1208 129 q 1157 125 1175 123 q 1124 130 1139 126 l 414 46 l 366 46 q 319 44 349 46 q 262 40 290 42 q 213 37 235 38 q 189 35 191 35 q 164 29 183 34 q 123 18 145 24 q 82 7 102 12 q 58 0 62 1 q 53 -1 57 0 q 46 -1 49 -1 q 28 1 35 -1 q 11 11 22 3 z "},"`":{"ha":197,"x_min":0,"x_max":164,"o":"m 72 774 q 47 797 62 783 q 18 828 31 811 q 1 862 5 845 q 9 891 -4 879 q 27 901 20 901 q 45 892 34 901 q 78 858 58 878 q 106 818 98 838 l 164 734 q 138 722 152 720 q 113 733 125 724 q 91 754 102 742 q 72 774 80 766 z "},"a":{"ha":621,"x_min":23,"x_max":656,"o":"m 331 165 q 284 114 311 141 q 227 64 258 87 q 163 25 197 41 q 95 9 130 9 q 23 79 23 9 q 47 154 23 107 q 109 252 71 201 q 193 352 146 304 q 285 432 239 400 q 370 472 331 464 q 433 449 408 480 q 427 376 433 412 q 416 303 422 339 q 406 232 411 267 q 400 160 400 197 q 402 135 400 152 q 409 101 404 118 q 422 71 414 84 q 444 58 430 58 q 497 66 476 58 q 534 86 518 75 q 561 113 549 98 q 585 142 572 127 q 614 171 598 157 q 656 193 631 184 q 656 189 656 193 q 656 182 656 184 q 636 115 656 148 q 585 56 616 81 q 515 14 553 30 q 439 -1 476 -1 q 389 16 408 -1 q 359 58 370 34 q 342 112 347 83 q 331 165 336 141 m 355 343 q 366 404 369 388 q 346 417 362 420 q 304 394 330 414 q 248 347 278 374 q 189 285 218 319 q 133 220 159 251 q 91 165 107 190 q 71 130 75 141 q 68 83 62 99 q 87 60 75 66 q 116 58 100 54 q 142 71 132 62 q 201 125 165 91 q 269 199 236 160 q 327 277 302 239 q 355 343 351 316 z "},"b":{"ha":453,"x_min":-92,"x_max":430,"o":"m 50 11 q 38 31 39 22 q 37 53 37 41 q 37 64 37 57 q 38 71 38 71 q 62 195 50 137 q 81 310 73 254 q 94 425 90 366 q 98 551 98 483 q 98 581 98 559 q 97 630 98 604 q 96 679 96 656 q 96 709 96 701 q 85 722 95 722 q 68 723 75 723 q 33 721 47 723 q 8 714 19 719 q -12 701 -3 709 q -31 682 -20 693 q -44 682 -35 682 q -56 681 -53 681 q -79 683 -66 681 q -92 700 -92 685 q -92 703 -92 701 q -91 705 -91 705 q -52 749 -71 731 q -14 776 -34 766 q 33 789 7 785 q 92 793 58 793 q 128 783 115 793 q 147 755 141 772 q 155 717 153 738 q 156 675 156 696 q 156 646 156 666 q 156 602 156 627 q 155 551 156 578 q 154 499 155 524 q 153 455 153 475 q 152 426 152 435 l 168 426 q 186 445 172 431 q 216 473 199 458 q 252 499 233 488 q 286 510 270 510 q 328 493 308 510 q 363 448 347 476 q 391 387 378 420 q 412 320 404 353 q 425 260 420 288 q 430 217 430 233 q 406 133 430 172 q 344 64 381 94 q 261 16 307 34 q 175 -1 216 -1 q 143 -1 157 -1 q 115 1 129 0 q 85 4 100 1 q 50 11 69 7 m 274 449 q 202 366 233 414 q 149 263 171 317 q 117 152 127 209 q 107 42 107 95 q 191 52 145 42 q 277 82 237 61 q 345 138 317 103 q 372 224 372 172 q 366 284 372 251 q 349 349 361 317 q 319 408 338 381 q 274 449 301 435 z "},"c":{"ha":353,"x_min":23,"x_max":393,"o":"m 23 136 q 26 179 23 146 q 36 253 30 212 q 52 340 42 294 q 75 423 61 385 q 107 486 90 461 q 148 510 125 510 q 193 488 176 510 q 218 437 209 467 q 230 378 227 408 q 233 330 233 347 q 197 339 205 330 q 185 362 189 349 q 178 390 182 376 q 155 415 174 404 q 107 361 123 396 q 82 286 91 327 q 72 206 73 245 q 71 136 71 167 q 85 72 71 98 q 142 46 99 46 q 208 60 176 46 q 267 94 239 73 q 321 140 296 115 q 368 189 346 165 l 393 189 q 393 184 393 189 q 391 176 392 179 q 343 104 372 137 q 281 49 315 72 q 207 12 247 26 q 123 -1 167 -1 q 73 9 92 -1 q 42 37 53 19 q 27 81 31 56 q 23 136 23 106 z "},"d":{"ha":437,"x_min":9,"x_max":415,"o":"m 106 83 q 62 99 80 83 q 33 138 45 115 q 16 187 22 161 q 9 232 9 213 q 25 319 9 274 q 67 406 41 365 q 128 479 94 446 q 201 532 163 513 q 230 541 217 540 q 252 542 243 541 q 267 550 262 543 q 271 579 271 557 l 271 806 q 283 828 271 817 q 307 840 296 840 q 318 833 313 840 q 326 819 323 827 q 330 802 328 811 q 331 788 331 792 q 327 486 331 635 q 323 180 323 338 q 345 184 334 180 q 368 194 355 189 q 391 205 380 199 q 414 213 403 210 q 414 208 414 212 q 415 201 415 203 q 402 170 415 182 q 372 149 389 159 q 340 130 355 140 q 319 106 324 121 q 316 87 317 103 q 311 50 315 71 q 298 14 307 30 q 278 -1 290 -1 q 253 9 259 -1 q 248 35 247 20 q 253 64 250 50 q 256 83 256 77 l 106 83 m 57 232 q 85 158 57 187 q 159 129 114 129 q 181 129 168 129 q 208 131 194 129 q 232 138 221 133 q 248 155 243 144 q 248 224 245 191 q 252 291 250 258 q 258 357 255 324 q 260 427 260 391 q 254 453 260 444 q 231 463 248 463 q 162 439 194 463 q 106 379 130 415 q 70 303 83 343 q 57 232 57 263 z "},"e":{"ha":486,"x_min":9,"x_max":530,"o":"m 35 170 q 20 167 26 164 q 13 175 15 170 q 10 188 11 180 q 9 198 9 195 q 16 231 9 225 q 34 239 23 237 q 57 245 45 241 q 80 271 69 250 q 109 342 96 305 q 141 412 122 380 q 189 465 160 445 q 270 486 218 486 q 288 484 278 486 q 307 479 298 483 q 322 469 316 476 q 328 449 328 461 q 314 398 328 420 q 279 357 300 376 q 233 323 258 339 q 189 292 209 307 q 154 260 168 277 q 140 225 140 244 l 140 95 q 151 71 140 80 q 178 57 163 62 q 209 49 193 52 q 233 46 225 46 q 298 58 266 46 q 361 87 331 69 q 419 125 392 104 q 471 165 446 146 q 485 180 479 172 q 497 194 491 187 q 511 205 503 201 q 530 213 518 210 q 530 208 530 212 q 530 201 530 203 q 528 182 530 190 q 518 165 526 174 q 454 102 488 132 q 382 49 420 72 q 302 12 345 26 q 213 -1 260 -1 q 140 12 165 -1 q 100 52 114 26 q 80 113 85 77 q 68 189 75 148 l 35 170 m 210 380 q 205 379 210 382 q 195 370 201 376 q 186 360 189 365 q 186 355 183 355 q 202 363 193 354 q 210 380 212 373 z "},"f":{"ha":610,"x_min":-64,"x_max":589,"o":"m 66 -315 q 71 -220 66 -269 q 81 -121 75 -171 q 96 -23 87 -72 q 114 71 104 26 l 31 -11 q 30 -12 30 -12 q 26 -14 28 -14 q 22 -12 23 -14 q 19 -11 22 -12 q 13 -5 18 -11 q 7 0 8 0 q -1 -1 5 0 q -16 -5 -8 -3 q -32 -9 -24 -7 q -39 -11 -39 -11 l -46 -11 q -58 -7 -54 -11 q -62 1 -61 -4 q -64 14 -64 7 q -64 26 -64 20 q -62 52 -64 39 q -39 71 -60 64 q -32 71 -39 71 q -16 71 -24 71 q -1 71 -8 71 q 7 71 5 71 q 52 97 24 75 q 106 150 80 119 q 149 214 132 180 q 161 271 165 247 q 177 328 165 288 q 201 414 189 368 q 227 500 214 460 q 244 556 239 540 q 254 583 247 563 q 273 623 262 602 q 299 661 283 644 q 334 677 315 677 q 352 670 346 677 q 361 654 358 663 q 363 633 363 644 q 363 616 363 623 q 363 597 363 610 q 362 579 363 583 q 344 525 357 564 q 316 443 331 486 q 288 361 301 400 q 267 307 274 323 q 261 293 266 302 q 251 272 256 283 q 239 250 245 260 q 232 236 233 240 l 237 236 l 244 236 q 268 245 250 237 q 309 260 286 252 q 350 275 331 269 q 374 285 369 282 q 386 286 376 285 q 401 286 396 286 q 486 267 450 286 q 545 215 522 247 q 578 141 567 183 q 589 54 589 99 q 586 5 589 37 q 577 -67 583 -27 q 563 -150 571 -107 q 544 -231 555 -193 q 519 -299 533 -269 q 492 -345 506 -330 l 351 -486 q 321 -505 339 -498 q 286 -516 304 -513 q 248 -521 267 -519 q 214 -522 229 -522 q 140 -505 168 -522 q 95 -460 111 -488 q 73 -394 79 -431 q 66 -315 66 -357 m 113 -304 q 114 -369 113 -338 q 125 -423 115 -400 q 158 -460 136 -446 q 221 -475 180 -475 q 324 -450 278 -475 q 406 -382 370 -425 q 467 -287 441 -340 q 509 -176 492 -233 q 534 -64 526 -119 q 541 37 541 -8 q 538 108 541 72 q 521 172 534 144 q 482 219 507 201 q 415 237 457 237 q 295 212 345 237 q 212 144 245 186 q 159 46 178 102 q 130 -69 140 -9 q 116 -190 119 -129 q 113 -304 113 -251 m 279 510 q 271 498 277 510 q 261 470 266 487 q 251 433 256 453 q 243 397 245 414 q 239 369 240 380 q 241 358 239 358 q 250 369 245 358 q 259 397 254 380 q 269 433 264 414 q 277 470 274 453 q 281 498 281 487 q 279 510 282 510 z "},"g":{"ha":415,"x_min":-37,"x_max":391,"o":"m -37 -231 q -36 -198 -37 -216 q -32 -163 -35 -180 q -22 -130 -28 -145 q 0 -106 -15 -115 q 1 -144 0 -117 q 5 -201 3 -171 q 8 -258 7 -231 q 11 -296 9 -286 q 25 -355 14 -324 q 51 -416 37 -385 q 80 -474 65 -446 q 106 -521 95 -502 q 133 -541 115 -536 q 167 -547 151 -547 q 220 -523 197 -547 q 262 -463 244 -499 q 293 -381 279 -426 q 315 -294 307 -336 q 327 -216 323 -251 q 331 -165 331 -182 q 331 -151 331 -164 q 332 -119 331 -137 q 332 -82 332 -100 q 332 -53 332 -64 q 330 75 332 11 q 308 201 328 140 q 304 201 307 201 q 302 202 302 202 q 271 183 293 202 q 220 142 250 164 q 156 101 190 119 q 87 83 122 83 q 51 92 64 83 q 32 117 38 102 q 24 150 26 132 q 23 186 23 168 q 42 276 23 228 q 92 366 61 324 q 165 435 123 408 q 254 463 208 463 q 285 456 271 463 q 313 449 298 449 q 326 453 321 449 q 336 462 331 457 q 346 471 340 467 q 359 475 351 475 q 387 464 384 475 q 391 430 391 453 q 388 267 391 347 q 382 105 385 186 q 378 -58 380 24 q 380 -225 377 -140 q 367 -283 374 -247 q 348 -361 359 -320 q 320 -442 336 -401 q 283 -517 304 -483 q 234 -572 262 -551 q 172 -593 206 -593 q 111 -573 140 -593 q 59 -522 83 -553 q 18 -452 35 -491 q -12 -372 0 -412 q -31 -295 -24 -332 q -37 -231 -37 -258 m 71 176 q 77 146 71 152 q 107 140 83 140 q 170 159 136 140 q 236 206 205 178 q 288 268 267 235 q 309 330 309 301 q 300 384 309 363 q 254 404 290 404 q 183 382 217 404 q 124 325 149 359 q 85 250 99 290 q 71 176 71 210 z "},"h":{"ha":441,"x_min":-23,"x_max":506,"o":"m 28 50 q 39 195 28 123 q 64 337 50 266 q 90 479 79 408 q 100 621 100 549 q 100 635 100 625 q 100 654 100 644 q 99 674 99 665 q 99 686 99 684 q 94 707 100 701 q 76 712 87 712 q 71 711 75 712 q 64 709 66 709 q 54 700 58 703 q 46 694 50 697 q 37 689 42 692 q 24 681 31 686 q 2 669 15 673 q -23 666 -11 666 l -23 704 l 64 781 q 81 791 72 789 q 100 793 91 793 q 136 774 123 793 q 154 728 148 754 q 160 675 160 701 q 160 636 160 648 q 160 621 160 631 q 160 603 160 612 q 160 587 160 594 q 160 579 160 581 q 155 553 159 574 q 147 504 152 532 q 137 444 142 476 q 126 385 132 412 q 117 336 121 357 q 113 307 114 315 l 113 302 l 113 296 q 119 301 115 297 q 123 307 123 305 q 135 325 126 311 q 153 355 144 339 q 172 385 163 372 q 183 401 180 399 q 201 422 189 408 q 230 450 214 435 q 258 478 245 465 q 278 496 271 491 q 289 497 279 496 q 301 498 298 498 q 344 469 332 498 q 357 395 355 439 q 355 300 359 351 q 353 206 351 250 q 365 134 354 163 q 408 104 376 104 q 434 113 423 104 q 456 130 445 121 q 478 148 467 140 q 506 156 490 156 q 495 115 506 136 q 468 79 484 95 q 431 54 452 62 q 391 45 410 45 q 333 69 351 45 q 309 127 315 94 q 302 198 302 161 q 301 260 302 235 q 298 303 300 277 q 295 354 297 330 q 292 397 293 378 q 290 415 290 415 l 278 426 q 213 357 241 393 q 164 281 184 321 q 128 197 144 241 q 99 106 113 153 q 94 75 95 90 q 91 48 94 61 q 83 24 88 35 q 64 0 77 12 q 33 22 38 12 q 28 50 28 31 z "},"i":{"ha":321,"x_min":26,"x_max":353,"o":"m 114 190 q 118 260 114 225 q 127 329 122 294 q 136 398 132 363 q 140 469 140 433 q 136 488 140 477 q 119 498 133 498 q 96 495 102 498 q 89 488 91 492 q 82 479 87 484 q 61 468 77 473 l 54 468 q 26 498 26 468 q 44 524 26 506 q 87 557 62 541 q 133 584 111 572 q 161 591 155 595 q 170 587 164 591 q 180 576 175 582 q 191 564 186 570 q 197 556 195 559 q 197 545 197 553 q 197 528 197 537 q 198 509 198 518 q 198 496 198 500 q 193 418 198 457 q 180 340 187 380 q 167 262 172 301 q 161 183 161 222 q 163 156 161 176 q 169 114 164 136 q 183 75 174 92 q 209 58 193 58 q 258 67 241 58 q 286 87 274 76 q 313 106 298 98 q 353 115 327 115 q 311 28 353 58 q 203 -1 269 -1 q 152 20 170 -1 q 125 73 134 42 q 115 136 117 103 q 114 190 114 168 m 127 757 q 132 780 127 772 q 155 788 137 788 q 172 779 167 788 q 176 757 176 770 q 172 736 176 745 q 155 727 167 727 q 132 734 137 727 q 127 757 127 742 z "},"j":{"ha":307,"x_min":-381,"x_max":274,"o":"m -381 -194 q -380 -151 -381 -170 q -368 -107 -378 -132 q -349 -243 -363 -180 q -308 -361 -335 -307 q -241 -463 -281 -415 q -142 -556 -201 -511 q -78 -591 -114 -578 q -7 -605 -42 -605 q 66 -578 35 -605 q 117 -509 96 -552 q 151 -415 138 -467 q 172 -311 164 -363 q 182 -214 179 -259 q 189 -142 186 -170 q 193 -106 189 -136 q 201 -42 197 -76 q 209 21 205 -8 q 213 58 213 50 q 213 81 213 62 q 214 121 213 99 q 214 165 214 144 q 214 199 214 187 q 214 222 214 208 q 214 253 214 237 q 213 281 213 269 q 213 296 213 293 l 201 319 q 165 295 184 311 q 127 263 146 279 q 90 235 109 247 q 54 222 71 222 q 33 225 43 222 q 23 243 23 228 q 45 285 23 263 q 96 325 66 307 q 157 355 126 343 q 206 368 189 368 q 215 368 209 368 q 228 367 221 368 q 240 366 235 366 q 248 366 245 366 q 262 350 258 359 q 271 331 267 340 q 272 307 271 324 q 273 269 273 289 q 274 231 274 250 q 274 206 274 213 q 274 176 274 195 q 273 136 274 156 q 272 100 273 115 q 271 83 271 85 q 266 37 270 71 q 255 -41 262 4 q 241 -138 248 -85 q 226 -238 233 -190 q 212 -327 218 -286 q 201 -391 205 -368 q 184 -474 194 -430 q 154 -555 174 -518 q 102 -617 134 -593 q 22 -642 71 -642 q -142 -604 -68 -642 q -269 -505 -216 -567 q -351 -361 -321 -442 q -381 -194 -381 -279 m 194 556 q 199 579 194 571 q 221 587 205 587 q 238 578 233 587 q 243 556 243 568 q 238 534 243 543 q 221 526 233 526 q 199 534 205 526 q 194 556 194 543 z "},"k":{"ha":430,"x_min":34,"x_max":547,"o":"m 35 11 q 35 32 35 18 q 35 62 35 46 q 34 93 34 79 q 34 113 34 107 q 42 399 34 258 q 46 686 50 541 q 51 700 47 690 q 58 722 54 709 q 66 743 62 734 q 71 757 69 753 q 76 764 72 760 q 83 770 80 768 l 85 770 q 87 770 87 770 q 88 770 87 770 q 101 766 98 770 q 106 756 104 762 q 107 743 107 750 q 107 730 107 735 q 106 701 107 713 q 104 674 106 688 q 100 646 103 661 q 95 616 98 632 q 93 560 94 598 q 91 474 92 522 q 88 373 90 426 q 85 273 87 320 q 83 186 84 225 q 83 130 83 148 l 83 119 l 83 106 q 142 222 117 167 q 192 333 167 278 q 247 443 217 388 q 319 556 277 498 q 334 573 327 567 q 350 583 342 579 q 368 587 358 586 q 393 587 378 587 q 385 537 393 560 q 361 492 376 514 q 332 446 347 469 q 302 396 316 423 q 279 336 289 369 q 270 260 270 302 q 272 208 270 232 q 283 166 274 184 q 309 138 292 148 q 359 129 327 129 q 410 134 388 129 q 452 150 433 140 q 490 174 471 160 q 532 201 509 187 q 538 196 534 201 q 545 189 543 191 l 545 186 l 545 184 q 547 183 545 183 q 546 180 547 182 q 545 176 545 179 q 461 100 506 130 q 355 71 416 71 q 286 86 311 71 q 246 127 260 102 q 222 184 232 152 q 201 250 213 217 q 184 213 193 237 q 164 161 175 189 q 142 105 153 134 q 118 53 132 76 q 90 14 104 30 q 58 -1 75 -1 q 45 0 52 -1 q 35 11 39 1 z "},"l":{"ha":385,"x_min":-14,"x_max":437,"o":"m -14 100 q 4 114 -14 109 q 44 127 22 119 q 89 147 66 136 q 119 176 111 159 q 121 300 117 241 q 134 415 125 358 q 158 530 144 472 q 190 651 172 587 q 196 693 187 665 q 220 749 205 722 q 253 797 235 776 q 286 818 271 818 q 310 800 302 818 q 320 760 317 783 q 321 713 323 736 q 320 677 320 689 q 312 543 320 608 q 287 418 304 479 q 245 297 270 357 q 190 176 221 237 q 189 172 190 176 q 189 165 189 168 q 217 97 190 117 q 281 75 244 77 q 359 84 319 73 q 425 106 399 95 l 437 95 q 417 70 430 83 q 389 47 404 57 q 360 31 374 37 q 338 24 346 24 q 277 27 302 24 q 229 38 251 30 q 187 62 208 46 q 142 106 167 79 l 132 106 q 109 89 119 95 q 85 80 99 83 q 55 77 72 77 q 16 76 38 76 q -6 81 1 76 q -14 100 -14 85 m 273 697 q 227 614 245 661 q 198 519 209 568 q 182 420 187 471 q 176 324 176 370 q 177 312 176 321 q 178 292 178 302 q 178 273 178 282 q 179 260 179 263 q 184 266 180 262 q 190 271 189 270 l 190 285 q 226 372 210 330 q 252 456 241 414 q 269 544 263 499 q 274 640 274 589 q 274 652 274 643 q 274 669 274 661 q 273 686 274 678 q 273 697 273 694 z "},"m":{"ha":799,"x_min":-72,"x_max":841,"o":"m 141 366 l 129 415 l 104 401 l -37 260 q -47 264 -38 259 q -60 271 -56 269 q -67 279 -62 274 q -72 285 -72 283 l -72 290 q -60 316 -72 298 q -30 355 -49 334 q 13 401 -11 377 q 60 443 37 425 q 106 473 84 461 q 142 486 127 486 q 181 462 168 486 q 199 406 194 438 q 202 342 203 374 q 201 296 201 311 q 218 319 205 302 q 247 356 232 336 q 275 392 262 376 q 294 415 289 408 q 313 435 298 419 q 344 467 327 450 q 380 497 361 484 q 412 510 399 510 q 448 496 437 510 q 462 461 458 481 q 464 418 465 441 q 463 381 463 396 q 456 279 463 330 q 449 176 449 229 l 449 165 q 498 237 477 198 q 541 315 519 277 q 588 389 563 354 q 650 449 613 425 q 659 451 652 450 q 667 452 665 452 q 690 443 682 452 q 699 421 697 434 q 700 395 701 408 q 699 372 699 381 q 692 257 699 313 q 685 142 685 201 q 699 102 685 111 q 745 92 713 92 q 771 97 760 92 q 793 108 783 102 q 816 119 804 114 q 841 123 827 123 q 830 86 841 103 q 803 58 819 69 q 766 40 787 46 q 728 34 746 34 q 698 38 713 34 q 669 51 682 42 q 648 73 656 60 q 639 106 639 87 l 639 366 q 606 327 624 355 q 568 262 587 298 q 528 184 548 225 q 490 111 509 144 q 453 56 471 79 q 420 34 435 34 q 399 47 406 34 q 390 78 392 61 q 388 110 388 95 q 388 130 388 125 q 392 195 388 163 q 401 261 396 228 q 411 327 407 294 q 415 392 415 359 q 415 404 415 396 q 413 420 415 412 q 407 433 411 427 q 396 439 403 439 q 394 439 395 439 q 392 438 393 438 q 389 437 392 437 q 384 433 388 437 q 378 426 380 429 q 339 377 363 407 q 292 319 315 347 q 252 270 269 290 q 235 250 236 250 q 220 210 231 241 q 199 143 210 179 q 178 75 187 107 q 164 35 168 43 q 146 5 157 14 q 114 -3 136 -3 q 118 88 114 43 q 127 178 122 133 q 137 269 133 224 q 141 362 141 315 l 141 366 z "},"n":{"ha":541,"x_min":-87,"x_max":604,"o":"m 106 95 q 114 131 109 106 q 125 187 119 156 q 138 254 132 218 q 150 320 144 289 q 160 377 156 351 q 165 415 164 403 q 165 431 167 420 q 163 456 164 442 q 160 480 161 469 q 159 496 159 491 q 145 499 155 496 q 125 504 136 502 q 107 508 115 506 q 95 510 99 510 q 47 479 62 498 q 18 444 31 461 q -12 413 5 426 q -64 400 -30 400 q -81 410 -76 400 q -87 431 -87 419 l -87 437 q -31 495 -57 471 q 26 536 -4 519 q 91 562 56 553 q 172 570 126 570 q 203 562 193 570 q 218 543 213 555 q 224 517 224 532 q 225 484 225 502 q 218 412 225 448 q 201 340 210 376 q 184 268 193 304 q 176 194 176 232 l 176 189 q 194 224 180 199 q 222 278 208 250 q 252 332 237 307 q 271 366 266 357 q 281 378 273 368 q 300 401 289 388 q 323 428 312 415 q 343 449 335 441 q 363 472 351 460 q 387 495 374 484 q 414 513 400 506 q 444 521 429 521 q 462 511 456 521 q 471 488 468 502 q 473 460 473 475 q 473 437 473 446 q 464 355 473 396 q 444 275 454 315 q 422 194 433 235 q 412 113 412 153 q 418 83 412 95 q 442 71 423 71 q 487 84 467 71 q 526 113 507 98 q 562 142 544 129 q 604 156 581 156 l 604 130 q 597 122 604 129 q 581 106 590 115 q 561 87 571 96 q 544 71 551 77 q 519 50 533 61 q 492 31 506 39 q 461 16 477 22 q 430 9 445 9 q 397 21 410 9 q 377 50 384 33 q 368 85 370 66 q 365 119 365 104 q 372 200 365 160 q 388 279 380 240 q 403 357 396 317 q 410 437 410 396 l 401 437 q 392 429 400 437 q 372 410 384 420 q 350 387 361 399 q 331 366 339 374 q 316 347 324 358 q 300 321 308 335 q 284 295 292 308 q 271 271 277 282 q 258 243 267 262 q 237 199 248 224 q 212 148 225 175 q 188 96 199 121 q 167 53 176 72 q 153 24 157 34 q 142 10 152 19 q 130 0 133 1 q 127 -1 127 -1 l 123 -1 l 121 -1 q 118 0 119 -1 q 111 5 115 1 q 106 11 106 9 l 106 95 z "},"o":{"ha":366,"x_min":9,"x_max":332,"o":"m 11 46 q 11 60 11 50 q 10 82 11 71 q 9 104 9 94 q 9 119 9 114 q 15 201 9 157 q 31 286 20 244 q 60 366 42 327 q 106 433 79 404 q 171 480 134 463 q 255 498 208 498 q 302 479 286 498 q 325 434 319 461 q 332 377 331 407 q 332 324 332 347 q 321 214 332 271 q 286 109 311 156 q 219 30 262 61 q 113 -1 176 -1 q 80 0 94 -1 q 56 7 66 1 q 34 22 45 14 q 11 46 23 31 m 58 71 q 87 58 71 58 q 118 58 103 58 q 202 85 170 58 q 253 151 235 111 q 279 237 271 190 q 286 324 286 283 q 287 366 286 343 q 283 408 288 388 q 266 440 278 427 q 229 453 254 453 q 224 420 229 431 q 210 406 218 410 q 189 401 201 401 q 165 396 178 400 q 140 384 152 392 q 118 355 127 376 q 77 238 96 294 q 57 119 57 182 q 57 109 57 115 q 58 95 57 103 q 58 81 58 87 q 58 71 58 75 z "},"p":{"ha":500,"x_min":-23,"x_max":475,"o":"m -23 -313 q 18 -184 1 -239 q 43 -82 34 -129 q 60 9 53 -35 q 74 109 66 54 q 92 235 81 164 q 122 403 103 305 q 119 450 122 433 q 105 473 115 468 q 77 471 95 477 q 30 449 58 465 l 23 449 q 3 454 12 449 q -7 472 -7 458 q -5 486 -7 481 q 5 496 -4 490 q 54 528 26 510 q 109 551 83 545 q 155 544 136 557 q 180 486 175 530 q 212 523 195 503 q 248 558 229 543 q 290 583 267 574 q 339 593 312 593 q 408 566 381 593 q 450 499 435 538 q 470 416 465 460 q 475 339 475 372 q 448 199 475 260 q 374 94 420 137 q 262 26 327 50 q 121 0 197 3 q 106 -52 110 -35 q 102 -79 103 -68 q 99 -104 100 -91 q 90 -146 98 -118 q 66 -224 83 -174 q 20 -358 50 -274 q -9 -343 4 -358 q -23 -313 -23 -328 m 132 71 q 134 58 130 62 q 144 50 138 53 q 156 47 149 47 q 167 46 163 46 q 242 62 202 46 q 317 104 282 79 q 376 164 351 130 q 404 236 400 198 q 427 337 425 286 q 418 430 429 388 q 388 500 408 472 q 340 534 368 529 q 280 518 312 540 q 216 437 248 496 l 132 71 z "},"q":{"ha":415,"x_min":23,"x_max":581,"o":"m 235 -191 q 241 -62 235 -125 q 247 66 247 1 q 212 58 229 66 q 176 38 195 49 q 136 18 157 27 q 94 9 115 9 q 38 35 53 9 q 23 99 23 60 q 35 172 23 129 q 66 262 46 216 q 112 355 85 309 q 169 439 138 401 q 233 499 199 476 q 298 522 266 522 q 338 505 323 522 q 363 463 354 487 q 376 412 373 438 q 380 370 380 387 q 365 235 380 301 q 332 104 350 170 q 299 -28 315 38 q 283 -165 283 -95 q 283 -205 283 -179 q 288 -258 283 -232 q 304 -302 293 -283 q 338 -320 315 -320 q 346 -320 339 -320 q 355 -320 353 -320 q 421 -261 396 -289 q 466 -203 446 -233 q 506 -139 486 -174 q 556 -60 526 -104 q 568 -47 559 -56 q 579 -35 576 -38 q 580 -45 579 -38 q 581 -54 581 -52 q 568 -115 581 -80 q 536 -186 556 -149 q 488 -257 515 -222 q 431 -319 461 -292 q 371 -363 401 -346 q 313 -380 340 -380 q 269 -357 285 -380 q 245 -304 254 -335 q 236 -241 237 -273 q 235 -191 235 -210 m 71 71 q 89 60 83 62 q 107 58 95 58 q 174 77 144 58 q 227 125 203 95 q 269 194 251 156 q 298 271 286 232 q 315 346 309 311 q 320 408 320 381 q 315 437 320 423 q 296 461 309 452 q 210 410 251 449 q 138 322 170 372 q 89 219 107 273 q 71 123 71 165 q 71 113 71 121 q 71 98 71 106 q 71 82 71 90 q 71 71 71 75 z "},"r":{"ha":502,"x_min":-34,"x_max":473,"o":"m 60 46 q 79 144 73 100 q 87 231 85 189 q 89 319 90 273 q 88 423 88 365 q 56 420 66 423 q 42 414 46 418 q 37 407 38 411 q 32 399 35 403 q 19 393 28 396 q -11 391 9 391 q -28 400 -23 391 q -34 422 -34 410 q -20 445 -34 433 q 14 469 -5 457 q 55 490 34 481 q 91 498 76 498 q 106 493 96 498 q 126 481 117 488 q 142 465 136 473 q 148 449 148 457 l 148 260 q 191 316 161 281 q 258 386 221 351 q 332 446 294 420 q 400 472 370 472 q 457 446 441 472 q 473 380 473 419 q 448 385 457 380 q 431 397 438 391 q 415 409 423 404 q 393 414 407 414 q 312 370 350 406 q 242 288 274 335 q 185 187 210 240 q 141 91 160 134 q 111 20 122 47 q 96 -1 99 -7 q 71 12 83 -1 q 60 42 60 24 l 60 46 z "},"s":{"ha":355,"x_min":23,"x_max":343,"o":"m 23 231 q 23 239 23 233 q 24 251 23 244 q 24 264 24 258 q 24 271 24 270 q 35 281 26 275 q 47 285 43 286 q 62 266 56 282 q 76 227 69 250 q 92 176 83 203 q 115 124 100 148 q 150 82 129 100 q 201 58 171 64 q 216 59 210 57 q 223 66 221 61 q 225 77 225 71 q 225 87 225 83 q 206 138 224 111 q 164 195 189 164 q 115 260 140 225 q 75 333 91 294 q 54 416 58 372 q 71 510 50 460 q 83 543 71 522 q 115 581 96 563 q 153 613 133 600 q 189 627 174 627 q 230 618 210 627 q 260 591 250 610 q 292 545 274 574 q 325 487 311 515 q 343 435 339 458 q 331 408 347 412 q 299 419 312 408 q 278 446 286 430 q 263 482 270 463 q 248 518 256 502 q 229 546 240 534 q 201 557 218 557 q 158 543 176 557 q 128 506 140 528 q 112 459 117 484 q 107 415 107 434 q 120 352 107 381 q 153 296 133 323 q 196 244 172 270 q 239 192 220 218 q 273 137 259 165 q 286 76 286 109 q 280 50 286 62 q 264 25 274 37 q 240 7 254 14 q 213 0 227 0 q 141 23 175 0 q 81 81 107 46 q 39 157 54 117 q 23 231 23 197 z "},"t":{"ha":415,"x_min":9,"x_max":457,"o":"m 165 46 q 165 60 165 50 q 165 82 165 71 q 164 104 164 94 q 164 119 164 114 q 171 196 164 159 q 186 271 178 233 q 202 346 195 308 q 209 423 209 384 q 170 408 193 423 q 123 374 148 393 q 78 336 99 355 q 46 307 57 316 q 42 307 46 307 q 35 307 38 307 q 9 331 9 307 q 26 366 9 347 q 68 402 43 384 q 123 437 94 420 q 177 467 152 453 q 219 492 202 481 q 236 510 236 503 q 247 605 248 567 q 237 666 245 643 q 212 698 228 689 q 180 705 197 707 q 145 693 163 704 q 115 666 127 682 q 103 684 106 677 q 100 701 100 692 q 162 741 132 732 q 220 740 193 749 q 269 709 247 731 q 302 659 290 688 q 313 596 313 629 q 296 532 312 563 q 307 537 298 533 q 324 545 315 541 q 342 551 334 548 q 355 556 351 555 l 359 556 l 366 556 q 370 547 368 556 q 375 527 372 538 q 381 507 378 515 q 384 496 384 498 l 283 449 q 275 420 282 448 q 258 355 267 392 q 239 277 248 317 q 225 213 229 237 q 220 192 222 208 q 217 159 218 176 q 214 127 216 142 q 213 106 213 111 q 214 87 213 98 q 219 67 216 76 q 229 52 222 58 q 247 46 236 46 q 317 62 286 46 q 370 96 347 77 q 412 132 393 115 q 445 148 430 148 q 452 147 448 148 q 457 145 457 146 q 435 78 453 106 q 390 33 416 50 q 328 7 363 15 q 252 -1 293 -1 q 225 0 240 -1 q 198 7 210 1 q 177 22 186 12 q 165 46 168 31 z "},"u":{"ha":612,"x_min":-12,"x_max":685,"o":"m 111 556 q 73 545 84 556 q 56 522 62 534 q 45 499 50 510 q 24 488 39 488 q -2 494 8 488 q -12 518 -12 500 q 1 552 -11 536 q 32 581 14 568 q 71 601 50 594 q 111 605 91 608 q 146 602 130 605 q 175 591 163 600 q 194 569 187 583 q 201 532 201 555 l 201 83 l 224 106 q 237 128 225 107 q 263 178 248 149 q 294 236 278 206 q 319 285 309 266 q 369 406 350 347 q 401 532 388 465 q 414 545 404 543 q 431 547 425 547 q 439 546 433 547 q 449 545 446 545 q 450 513 449 534 q 452 464 450 491 q 454 408 453 437 q 457 351 456 378 q 460 303 458 324 q 461 271 461 282 q 463 242 461 263 q 471 199 465 221 q 488 159 477 176 q 519 141 499 141 q 557 167 538 152 q 596 197 576 182 q 635 226 616 213 q 677 245 655 239 q 685 225 688 239 q 670 194 682 212 q 639 158 658 176 q 597 124 620 140 q 550 100 574 109 q 506 94 526 91 q 446 118 467 94 q 416 177 425 142 q 406 250 407 212 q 404 315 404 288 q 375 291 389 315 q 346 232 361 267 q 315 156 331 197 q 279 81 298 115 q 239 22 260 46 q 194 -1 218 -1 q 165 8 176 -1 q 149 33 155 18 q 142 64 144 47 q 141 95 141 80 l 141 521 q 138 531 141 525 q 132 543 136 537 q 122 552 127 548 q 111 556 117 556 z "},"v":{"ha":486,"x_min":11,"x_max":457,"o":"m 165 46 q 130 124 152 76 q 84 223 107 172 q 41 319 61 274 q 11 391 22 365 q 21 405 12 396 q 35 415 30 414 q 66 397 50 418 q 99 341 83 376 q 133 265 115 307 q 166 188 151 224 q 195 128 182 152 q 218 104 209 104 q 221 105 220 104 q 225 106 222 106 q 229 119 225 110 q 237 137 233 127 q 243 155 240 146 q 248 165 247 163 q 257 182 250 168 q 273 213 264 197 q 288 243 281 229 q 296 260 294 258 q 304 283 298 266 q 319 324 311 301 q 338 373 328 347 q 355 422 347 399 q 370 462 363 445 q 378 486 376 479 q 408 557 388 529 q 441 591 427 585 q 456 578 456 597 q 426 510 457 559 q 414 474 423 499 q 396 420 406 449 q 378 367 387 392 q 366 331 369 342 q 352 284 361 315 q 332 216 343 254 q 307 141 320 179 q 277 71 293 103 q 245 19 262 39 q 213 -1 229 -1 q 197 4 205 -1 q 184 16 190 9 q 173 32 178 23 q 165 46 168 41 z "},"w":{"ha":670,"x_min":-80,"x_max":639,"o":"m 298 439 q 296 439 297 439 q 294 438 296 438 q 292 437 294 437 q 279 426 288 435 q 269 415 270 416 l 138 141 q 131 129 138 140 q 113 104 123 118 q 91 81 102 91 q 73 71 80 71 l 71 71 q 68 71 69 71 q 60 77 65 72 q 54 83 56 81 q 54 95 54 87 q 54 112 54 103 q 54 130 54 121 q 54 141 54 138 q 58 222 54 182 q 67 302 62 262 q 76 381 72 342 q 80 461 80 420 q 80 475 80 465 q 79 497 80 486 q 79 518 79 509 q 79 532 79 528 q 72 554 83 551 q 50 557 61 557 q 14 553 23 557 q -2 543 4 548 q -18 532 -8 537 q -56 528 -27 528 q -80 555 -80 528 q -62 586 -80 572 q -19 608 -43 600 q 30 622 5 617 q 68 627 54 627 q 101 616 84 627 q 126 591 118 606 q 127 564 126 583 q 127 524 127 545 q 127 482 127 502 q 127 454 127 463 q 121 345 127 397 q 115 236 115 292 l 115 213 q 193 374 152 292 q 279 532 233 457 q 286 539 281 534 q 292 545 290 544 l 298 545 q 320 538 311 545 q 336 520 330 530 q 345 497 342 510 q 351 473 349 484 q 354 448 351 468 q 361 404 357 429 q 368 349 365 378 q 376 295 372 320 q 382 250 380 270 q 387 225 385 231 q 394 194 388 216 q 408 148 400 172 q 424 101 416 123 q 434 71 431 79 q 454 81 442 75 q 469 95 465 87 q 493 137 479 111 q 520 187 507 163 q 543 230 533 212 q 552 250 552 248 l 552 271 l 612 521 q 610 530 612 521 q 609 549 609 538 q 612 568 609 559 q 624 579 616 578 l 636 567 q 636 559 636 566 q 637 544 636 552 q 638 527 637 536 q 639 514 639 518 q 625 359 639 433 q 589 201 612 285 q 566 151 581 184 q 531 83 551 117 q 488 23 511 49 q 441 -3 465 -3 q 387 30 408 -3 q 353 112 366 62 q 333 218 339 161 q 321 325 327 275 q 311 407 316 374 q 298 439 307 439 z "},"x":{"ha":555,"x_min":-14,"x_max":639,"o":"m 335 285 q 328 279 332 283 q 321 271 323 274 q 283 227 308 255 q 235 171 259 199 q 191 121 210 142 q 168 95 172 99 q 157 78 163 88 q 144 58 152 68 q 128 41 137 49 q 110 34 119 34 q 89 39 96 34 q 75 58 81 45 q 126 123 99 94 q 178 182 153 153 q 220 241 202 212 q 243 305 237 271 q 239 380 250 339 q 201 469 229 420 q 138 457 164 469 q 90 431 113 445 q 43 404 66 416 q -14 392 19 392 l -14 442 q -5 450 -14 444 q 17 464 4 456 q 45 481 30 472 q 75 496 61 490 q 131 522 100 510 q 191 534 161 534 q 247 512 229 534 q 264 452 264 490 q 277 406 273 429 q 286 366 282 384 q 296 337 290 347 q 311 331 301 327 q 336 370 324 347 q 359 412 347 392 q 388 448 372 433 q 429 463 404 463 q 438 463 433 463 q 449 463 444 464 q 458 458 454 461 q 465 449 463 456 q 412 328 433 392 q 392 194 392 263 q 394 155 392 179 q 404 108 396 132 q 427 66 412 84 q 465 46 441 49 q 510 50 490 45 q 551 63 530 56 q 593 77 572 71 q 639 84 614 84 q 621 47 639 62 q 576 20 602 31 q 524 4 551 9 q 481 -1 498 -1 q 394 26 425 -1 q 350 97 363 54 q 335 190 336 140 q 335 285 334 240 z "},"y":{"ha":566,"x_min":-98,"x_max":530,"o":"m -75 -616 q -88 -507 -83 -564 q -98 -376 -94 -450 q -97 -336 -98 -363 q -94 -273 -96 -308 q -85 -201 -91 -239 q -73 -131 -80 -164 q -54 -73 -65 -98 q -27 -37 -43 -47 l -27 -47 q -33 -127 -27 -88 q -45 -207 -39 -167 q -58 -288 -52 -247 q -64 -369 -64 -328 q -62 -416 -64 -385 q -56 -483 -60 -446 q -43 -558 -52 -519 q -22 -628 -35 -597 q 11 -679 -8 -659 q 56 -699 30 -699 q 127 -675 91 -699 q 196 -615 163 -652 q 258 -531 229 -578 q 311 -437 286 -484 q 351 -347 335 -389 q 376 -273 368 -304 q 392 -178 384 -228 q 408 -77 400 -129 q 420 27 415 -24 q 425 130 425 79 q 425 138 425 132 q 424 153 425 145 q 423 167 423 160 q 423 176 423 174 q 383 131 404 156 q 338 84 362 106 q 286 47 313 62 q 225 33 258 33 q 181 49 199 33 q 151 89 163 65 q 134 140 140 113 q 127 189 127 167 q 125 233 126 201 q 121 300 123 264 q 117 368 119 336 q 115 414 115 400 l 103 426 q 79 410 94 420 q 47 389 64 399 q 14 372 30 380 q -15 365 -3 365 q -41 376 -31 365 q -52 401 -52 388 q -39 420 -52 408 q -6 446 -26 433 q 39 472 14 458 q 87 496 64 486 q 129 515 110 507 q 156 522 148 522 q 174 521 161 522 q 186 509 186 519 l 186 189 q 189 165 186 180 q 197 133 191 149 q 212 105 202 117 q 233 94 221 94 q 251 98 240 94 q 272 107 262 102 q 290 119 282 113 q 304 130 298 125 q 389 221 350 171 q 446 331 427 271 q 451 349 448 335 q 458 380 454 363 q 465 413 461 397 q 469 437 469 429 q 471 458 471 446 q 475 482 472 471 q 484 502 477 494 q 506 510 491 510 q 528 498 526 510 q 530 469 530 486 q 528 434 530 452 q 522 399 525 416 q 517 366 518 382 q 518 331 515 349 q 455 -125 503 76 q 341 -463 407 -326 q 203 -671 275 -601 q 66 -735 130 -742 q 21 -725 43 -735 q -20 -697 -1 -715 q -54 -659 -39 -680 q -75 -616 -68 -637 z "},"z":{"ha":426,"x_min":18,"x_max":400,"o":"m 178 236 q 197 277 184 256 q 220 321 209 298 q 241 365 232 343 q 250 408 250 387 q 246 429 250 416 q 237 454 243 442 q 222 476 231 467 q 201 486 213 486 l 47 486 q 39 492 42 486 q 34 506 35 498 q 31 529 31 517 q 58 532 46 529 q 80 538 69 534 q 103 544 91 541 q 129 547 115 547 q 199 541 167 547 q 256 521 232 536 q 294 479 281 506 q 308 408 308 452 q 285 309 308 359 q 227 212 262 259 q 154 126 193 165 q 83 58 115 87 q 91 58 85 58 q 104 58 96 58 q 117 57 111 57 q 125 57 123 57 q 212 76 175 57 q 277 123 250 95 q 323 184 304 152 q 356 245 342 217 q 380 293 370 274 q 400 312 391 312 q 370 163 400 224 q 289 64 340 102 q 168 11 237 27 q 18 -5 98 -5 q 18 14 18 1 q 20 38 18 26 q 25 62 22 50 q 35 83 28 75 l 178 236 z "},"{":{"ha":426,"x_min":24,"x_max":815,"o":"m 201 -19 q 218 100 201 43 q 258 207 236 156 q 297 304 279 258 q 315 396 315 351 l 155 396 q 143 400 148 396 q 135 412 138 404 q 130 426 132 419 q 129 438 129 433 l 129 445 q 130 449 129 448 l 250 574 l 58 574 q 50 585 58 574 q 35 604 41 597 q 29 616 34 608 q 24 627 24 625 q 49 722 24 678 q 109 804 73 765 q 182 878 144 842 q 250 947 221 913 q 264 977 263 964 q 267 996 264 989 q 283 1006 270 1002 q 335 1009 296 1009 q 317 939 335 970 q 274 880 300 907 q 216 827 248 852 q 157 775 184 802 q 109 718 129 749 q 83 651 88 688 q 87 637 83 647 q 95 627 91 628 q 107 627 98 627 q 127 626 117 627 q 147 625 138 625 q 160 625 156 625 q 212 629 186 625 q 262 639 237 633 q 311 648 286 644 q 362 652 336 652 q 386 646 380 652 q 392 620 392 639 q 391 604 392 606 q 380 591 389 601 q 349 565 370 583 q 302 526 327 547 q 256 488 278 506 q 225 461 233 469 q 243 454 229 460 q 260 449 256 449 q 277 451 263 449 q 307 455 292 453 q 337 459 323 457 q 355 461 351 461 q 399 453 381 461 q 416 420 416 445 q 410 391 416 404 q 395 366 404 377 q 374 344 385 355 q 355 319 363 332 q 311 240 331 282 q 277 154 292 198 q 256 64 263 110 q 248 -24 248 19 q 271 -88 248 -64 q 328 -125 294 -113 q 399 -140 361 -137 q 468 -144 437 -144 q 479 -144 472 -144 q 492 -143 486 -144 q 505 -142 499 -142 q 510 -142 510 -142 l 793 -72 l 815 -72 q 793 -103 815 -88 q 734 -132 770 -118 q 656 -156 699 -145 q 572 -174 613 -167 q 497 -186 530 -182 q 448 -190 464 -190 q 359 -183 403 -190 q 279 -157 315 -176 q 222 -105 244 -138 q 201 -19 201 -72 z "},"|":{"ha":176,"x_min":24,"x_max":156,"o":"m 95 58 q 79 373 88 217 q 58 686 71 529 q 56 730 58 697 q 50 806 53 762 q 42 900 46 850 q 34 993 38 949 q 28 1069 30 1036 q 24 1112 26 1101 l 24 1120 q 26 1131 24 1124 q 33 1145 28 1138 q 41 1157 37 1153 q 53 1161 46 1161 q 55 1161 54 1161 q 57 1161 56 1161 l 58 1161 q 74 1147 65 1157 q 83 1137 83 1138 l 142 155 q 154 105 152 125 q 156 58 156 85 q 156 41 156 52 q 154 22 156 31 q 147 5 152 12 q 132 -1 142 -1 q 113 5 119 -1 q 102 20 106 11 q 97 39 99 28 q 95 58 95 50 z "},"}":{"ha":426,"x_min":-225,"x_max":403,"o":"m -214 -130 q -186 -117 -205 -126 q -143 -97 -167 -109 q -94 -73 -119 -85 q -45 -47 -68 -60 q -3 -26 -22 -35 q 24 -11 15 -16 q 131 58 75 18 q 235 150 187 99 q 313 259 282 201 q 345 380 345 317 q 299 546 345 488 q 155 628 254 604 q 123 639 145 629 q 79 661 102 648 q 39 686 57 673 q 22 709 22 699 q 35 740 22 726 q 69 768 49 754 q 113 797 90 783 q 156 828 136 811 q 189 865 176 845 q 202 910 202 884 q 199 945 202 929 q 172 960 195 960 q 148 953 157 960 q 131 935 138 945 q 117 918 123 925 q 99 910 110 910 q 87 916 92 910 q 78 929 81 921 q 73 945 75 937 q 71 959 71 954 q 79 990 71 978 q 102 1010 88 1002 q 133 1019 115 1017 q 165 1021 151 1021 q 175 1021 168 1021 q 189 1019 182 1020 q 203 1019 197 1019 q 213 1019 210 1019 q 243 978 237 1002 q 250 928 250 954 q 250 911 250 922 q 250 901 250 901 q 237 846 243 871 q 224 799 232 822 q 205 754 217 776 q 176 709 194 732 q 176 708 176 709 l 176 704 q 176 701 176 703 q 176 699 176 700 q 281 643 239 670 q 351 581 324 616 q 391 497 378 547 q 403 374 403 448 q 376 260 403 315 q 305 159 349 206 q 206 69 262 111 q 92 -7 151 27 q -21 -70 34 -42 q -119 -118 -76 -98 q -165 -135 -140 -129 q -214 -141 -190 -141 l -225 -141 l -214 -130 z "},"~":{"ha":377,"x_min":-14,"x_max":385,"o":"m 385 848 q 384 803 387 831 q 375 745 381 774 q 361 692 369 715 q 343 669 353 670 q 298 690 321 673 q 250 730 274 708 q 200 776 225 753 q 151 815 175 799 q 102 836 126 831 q 54 826 77 840 q 21 741 39 770 q -7 715 3 711 q -14 758 -18 719 q 19 879 -9 798 q 81 902 50 903 q 142 885 113 901 q 197 844 171 869 q 248 795 224 819 q 292 752 271 770 q 330 734 312 734 q 336 749 332 734 q 341 785 339 765 q 344 826 343 806 q 343 857 345 846 l 385 848 z "},"":{"ha":521,"x_min":0,"x_max":0,"o":""},"":{"ha":258,"x_min":96,"x_max":214,"o":"m 97 102 l 97 65 q 98 11 97 40 q 99 -43 99 -17 l 99 -78 q 109 -89 103 -88 q 121 -90 115 -90 q 134 -89 128 -90 q 144 -78 141 -88 q 143 -44 144 -67 q 142 9 142 -21 l 142 132 q 143 184 142 161 q 144 218 144 207 q 153 316 145 265 l 169 416 q 183 514 177 465 q 190 611 190 564 q 189 622 190 617 q 179 631 189 628 q 164 617 170 627 q 156 600 158 607 q 108 352 119 474 q 97 102 97 230 m 144 766 q 156 741 144 749 q 186 732 169 732 q 214 760 214 732 q 212 771 214 765 q 206 784 210 778 q 196 793 202 789 q 186 798 191 798 q 157 788 170 798 q 144 766 144 779 z "},"":{"ha":353,"x_min":23,"x_max":393,"o":"m 23 136 q 25 176 23 146 q 33 243 27 205 q 46 321 38 281 q 67 395 54 362 q 98 451 80 429 q 138 473 115 473 l 148 473 q 149 517 148 498 q 155 571 151 559 q 168 547 160 583 q 183 469 175 521 q 217 461 201 467 q 264 427 250 448 q 278 382 279 406 q 255 339 277 358 q 241 355 244 346 q 237 376 237 365 q 234 397 236 387 q 224 413 232 407 q 201 420 217 419 q 191 420 197 420 q 193 416 191 419 q 227 155 206 323 q 237 104 235 125 q 240 75 239 91 q 267 95 254 84 q 321 140 296 115 q 368 189 346 165 l 393 189 q 393 184 393 189 q 391 176 392 179 q 343 104 372 137 q 281 49 315 72 q 240 24 262 35 q 239 -12 241 7 q 233 -52 237 -35 q 217 -69 229 -69 q 199 -52 206 -69 q 187 -15 193 -35 q 184 5 184 -4 q 123 -1 155 -1 q 73 9 92 -1 q 42 37 53 19 q 27 81 31 56 q 23 136 23 106 m 179 58 q 166 156 172 95 q 156 283 160 217 q 151 412 152 349 q 107 361 123 393 q 82 286 91 327 q 72 206 73 245 q 71 136 71 167 q 85 72 71 98 q 142 46 99 46 q 180 50 161 46 q 179 58 179 54 z "},"":{"ha":658,"x_min":22,"x_max":612,"o":"m 122 46 q 120 124 117 91 q 128 187 123 157 q 139 248 133 217 q 148 319 145 278 q 98 306 118 319 q 58 274 79 293 q 53 274 57 274 q 46 274 49 274 q 22 298 22 274 q 46 340 22 323 q 99 368 71 357 q 152 388 127 380 q 176 404 176 396 q 175 548 161 486 q 219 653 189 610 q 292 719 250 696 q 376 745 334 742 q 458 730 419 747 q 522 677 498 713 q 510 667 518 681 q 495 636 502 654 q 483 605 488 618 q 477 597 477 591 q 444 652 469 636 q 387 663 419 667 q 321 639 355 659 q 263 587 288 618 q 229 514 239 555 q 235 429 220 473 q 246 433 237 429 q 264 441 255 437 q 282 448 274 445 q 294 452 290 450 l 307 452 q 309 442 307 452 q 315 422 312 433 q 321 403 319 412 q 323 392 323 393 l 222 346 q 214 328 221 347 q 200 279 208 309 q 186 210 193 248 q 179 138 180 172 q 183 79 178 104 q 203 46 189 53 q 253 73 222 60 q 320 96 283 87 q 397 111 357 106 q 473 113 437 115 q 543 98 510 110 q 597 61 575 85 q 600 54 598 61 q 605 37 602 46 q 609 20 608 28 l 612 14 q 594 16 614 11 q 540 28 574 22 q 462 41 506 35 q 372 47 418 47 q 284 35 327 46 q 209 -1 241 24 q 182 0 197 -1 q 155 7 167 1 q 133 22 142 12 q 122 46 123 31 z "},"":{"ha":754,"x_min":83,"x_max":689,"o":"m 288 119 q 256 121 270 119 q 231 127 241 123 q 211 140 221 132 q 189 164 201 149 q 176 149 186 160 q 155 126 167 138 q 134 104 144 114 q 119 95 123 95 q 98 100 106 95 q 83 119 91 106 q 105 146 91 129 q 134 183 119 164 q 163 220 149 202 q 184 245 178 237 q 190 323 184 282 q 205 403 195 363 q 232 478 216 442 q 271 544 248 514 q 251 583 264 562 q 192 573 216 583 q 153 558 168 563 q 132 562 138 553 q 125 610 125 571 q 182 635 152 623 q 243 648 213 648 q 293 630 275 648 q 315 583 311 612 q 366 609 338 600 q 430 618 395 618 q 469 607 454 618 q 492 575 484 595 q 515 587 496 575 q 555 611 534 598 q 594 633 576 624 q 613 639 612 643 q 638 628 633 636 q 635 610 643 620 q 613 587 628 600 q 578 565 598 575 q 539 548 559 555 q 503 538 519 541 q 507 490 507 515 l 507 445 q 496 330 507 391 q 454 220 484 270 q 477 180 463 197 q 515 160 492 163 q 561 164 540 159 q 603 177 582 170 q 644 191 624 184 q 689 198 665 198 q 671 160 689 176 q 627 134 652 144 q 576 118 602 123 q 533 113 549 113 q 463 129 490 113 q 419 172 435 145 q 363 134 395 148 q 288 119 331 119 m 229 180 q 258 168 241 168 l 290 168 q 374 195 342 168 q 425 261 407 221 q 450 348 444 301 q 457 435 457 395 q 445 541 457 509 q 414 577 433 572 q 375 566 396 582 q 336 529 354 551 q 304 488 317 507 q 290 465 290 469 q 249 348 269 404 q 229 229 229 292 l 229 218 q 229 205 229 213 q 229 190 229 197 l 229 180 z "},"":{"ha":621,"x_min":22,"x_max":627,"o":"m 180 61 l 194 61 q 216 62 205 61 q 237 62 227 62 l 250 62 q 294 61 266 62 q 343 58 317 60 q 349 79 347 69 q 361 148 355 114 l 365 175 q 262 170 313 172 q 234 153 245 161 q 210 138 222 145 q 184 127 198 132 q 152 123 171 123 q 125 131 140 123 q 111 156 111 138 q 119 178 111 170 q 138 192 127 187 q 159 199 148 197 q 176 203 171 201 q 201 209 186 206 l 229 217 q 257 223 245 221 q 270 225 269 225 l 361 225 q 232 266 292 240 q 122 339 168 294 q 50 446 76 384 q 23 590 23 507 q 22 623 23 602 q 26 663 22 644 q 40 696 30 682 q 71 711 50 711 q 98 707 90 711 q 107 682 107 703 q 103 648 107 665 q 95 616 99 632 q 87 584 91 601 q 83 551 83 567 q 103 455 83 502 q 158 373 123 408 q 237 316 193 338 q 331 294 282 294 l 340 294 q 355 295 347 294 q 369 296 363 296 l 380 296 q 422 350 404 312 q 457 436 441 388 q 488 536 473 484 q 519 629 502 587 q 556 699 536 671 q 604 726 576 726 q 609 722 605 726 q 614 713 613 718 q 617 703 616 712 q 620 684 618 694 q 623 661 621 673 q 627 643 625 648 l 627 637 q 593 513 617 572 q 537 399 568 454 q 473 288 506 343 q 441 225 457 258 l 570 225 q 578 221 571 225 q 587 214 586 217 l 587 213 l 589 209 l 587 206 l 587 203 q 583 197 587 201 l 579 193 q 420 176 499 178 l 416 176 q 380 58 392 119 q 380 54 380 56 q 430 52 404 54 q 496 44 467 49 q 545 34 526 39 q 564 22 564 28 q 564 20 564 22 q 563 18 563 19 l 563 16 q 559 9 563 14 q 553 5 555 5 l 373 5 q 378 -72 372 -31 q 386 -168 378 -121 q 393 -263 393 -214 q 363 -251 376 -263 q 345 -220 351 -239 q 334 -177 338 -201 q 330 -131 331 -153 q 330 -90 330 -109 q 331 -61 331 -71 q 335 5 331 -27 l 127 5 q 132 31 127 22 q 143 46 136 41 q 160 55 151 52 q 180 61 170 58 z "},"":{"ha":126,"x_min":27,"x_max":103,"o":"m 27 452 l 30 774 q 41 800 30 788 q 66 812 53 812 q 72 812 68 812 q 77 811 76 811 q 94 675 92 762 q 83 448 96 587 l 27 452 m 79 395 q 83 256 80 315 q 88 156 85 197 q 94 89 91 115 q 98 45 96 62 q 102 18 100 27 q 103 0 103 8 l 43 -5 q 37 13 39 -5 q 33 77 34 31 q 33 201 33 123 l 33 396 l 79 395 z "},"":{"ha":461,"x_min":66,"x_max":420,"o":"m 80 148 q 81 169 80 153 q 81 189 81 184 q 92 198 83 193 q 104 202 100 203 q 121 188 113 201 q 140 157 130 175 q 163 117 151 138 q 195 76 176 95 q 235 43 213 57 q 289 23 258 28 q 303 24 298 22 q 311 30 308 26 q 313 39 313 34 l 313 50 q 302 108 320 77 q 254 173 285 138 q 187 245 224 208 q 121 325 151 283 q 75 411 91 366 q 66 502 58 456 q 77 531 66 514 q 102 566 87 548 l 102 571 q 109 577 103 574 q 119 583 115 581 q 161 612 140 604 q 133 704 140 655 q 148 810 126 753 q 161 843 148 823 q 192 882 174 863 q 231 913 210 901 q 267 926 252 926 q 308 918 289 926 q 339 892 327 910 q 370 844 351 873 q 403 787 389 815 q 420 736 416 758 q 408 708 425 713 q 377 719 389 708 q 356 746 365 730 q 340 783 347 762 q 326 819 334 803 q 307 846 319 836 q 278 857 296 857 q 236 842 254 857 q 207 805 218 827 q 190 758 195 783 q 184 713 184 734 q 195 662 184 686 q 218 614 205 637 q 298 562 269 590 q 341 501 327 533 q 359 438 355 469 q 363 376 363 407 q 357 350 363 363 q 341 326 351 336 q 318 307 331 315 q 292 300 305 300 q 269 305 283 300 q 235 317 254 311 q 196 330 216 323 q 161 342 176 338 q 229 281 191 316 q 298 208 266 247 q 351 125 330 168 q 373 39 373 83 q 367 13 373 26 q 351 -12 361 0 q 328 -30 340 -23 q 301 -37 315 -37 q 223 -20 262 -37 q 153 22 184 -4 q 100 82 121 49 q 80 148 80 115 m 278 359 q 319 391 308 372 q 327 431 330 410 q 311 473 324 452 q 280 510 298 494 q 241 537 262 526 q 201 549 220 548 q 198 549 199 549 l 197 551 q 152 533 172 551 q 130 486 127 514 q 152 433 132 458 q 205 386 172 407 q 278 359 239 365 z "},"":{"ha":515,"x_min":114,"x_max":381,"o":"m 114 741 q 120 768 114 754 q 144 781 126 781 q 173 770 160 781 q 186 745 186 760 q 174 717 186 726 q 145 708 161 708 q 121 715 127 708 q 114 741 114 722 m 308 741 q 315 768 308 754 q 339 781 321 781 q 368 770 354 781 q 381 745 381 760 q 368 717 381 726 q 340 708 355 708 q 315 715 321 708 q 308 741 308 722 z "},"":{"ha":650,"x_min":19,"x_max":602,"o":"m 19 241 q 28 330 19 282 q 54 428 37 378 q 98 524 72 477 q 158 606 123 570 q 235 663 193 642 q 328 685 278 685 q 408 666 372 685 q 475 616 445 647 q 528 544 505 585 q 568 461 552 503 q 593 377 585 419 q 602 302 602 335 q 567 174 602 229 q 477 83 532 119 q 355 28 422 46 q 224 9 288 9 q 126 26 165 9 q 63 73 87 42 q 29 146 39 103 q 19 241 19 189 m 66 212 q 79 145 66 172 q 113 101 91 118 q 165 77 136 84 q 232 69 195 69 q 347 82 289 69 q 451 123 404 95 q 526 197 498 152 q 555 308 555 243 q 548 372 555 336 q 528 444 541 407 q 496 516 515 481 q 453 578 477 551 q 398 622 429 605 q 335 639 368 639 q 296 637 312 639 q 258 625 281 635 l 258 614 q 260 607 258 612 q 264 596 262 602 q 268 585 266 590 q 270 578 270 579 q 263 559 270 564 q 247 551 256 553 q 227 547 237 548 q 210 543 217 547 q 138 485 165 524 q 94 399 110 446 q 73 303 79 353 q 66 212 66 254 m 178 228 q 180 256 178 235 q 187 303 182 277 q 199 359 193 330 q 216 412 206 388 q 240 452 227 437 q 270 468 254 468 q 302 454 290 468 q 322 420 315 439 q 332 382 330 401 q 334 351 334 362 q 305 357 312 351 q 296 372 298 363 q 292 391 294 381 q 274 406 289 400 q 239 372 252 393 q 220 324 227 350 q 214 273 214 298 q 213 228 213 247 q 223 186 213 202 q 266 171 233 171 q 315 180 292 171 q 359 202 339 189 q 399 231 380 216 q 433 262 418 247 l 452 262 q 449 254 452 258 q 369 172 420 203 q 252 140 317 140 q 215 146 229 140 q 193 165 201 153 q 181 193 184 176 q 178 228 178 209 z "},"":{"ha":430,"x_min":4,"x_max":395,"o":"m 194 290 q 165 262 181 277 q 130 236 149 248 q 91 215 111 224 q 49 207 70 207 q 5 244 5 207 q 19 283 5 259 q 57 335 34 308 q 109 388 80 363 q 165 431 137 414 q 217 452 194 447 q 256 439 241 456 q 253 401 256 420 q 246 362 250 381 q 240 325 243 343 q 236 287 236 306 q 237 273 236 282 q 242 256 239 264 q 250 240 245 247 q 263 233 255 233 q 296 237 283 233 q 318 248 309 242 q 335 262 328 254 q 350 277 342 270 q 368 292 358 285 q 394 304 378 300 q 394 302 394 304 q 394 298 394 300 q 381 263 394 280 q 350 231 369 245 q 307 210 330 218 q 260 201 283 201 q 230 211 241 201 q 211 233 218 220 q 200 261 204 246 q 194 290 197 277 m 209 384 q 215 416 217 407 q 203 423 213 424 q 177 410 193 421 q 143 385 161 400 q 106 353 125 371 q 72 319 88 335 q 46 290 56 302 q 34 271 36 277 q 33 246 29 254 q 44 234 36 237 q 62 233 52 231 q 78 239 71 235 q 114 268 92 250 q 156 308 135 287 q 191 349 176 328 q 209 384 206 369 z "},"":{"ha":830,"x_min":26,"x_max":749,"o":"m 278 267 q 317 306 283 282 q 399 355 351 330 q 502 407 446 381 q 608 452 557 433 q 696 481 658 471 q 749 486 735 491 l 734 445 q 677 419 718 438 q 589 378 636 400 q 502 338 543 357 q 445 311 461 319 q 430 301 441 308 q 406 287 419 294 q 382 273 393 279 q 368 263 372 266 q 365 260 366 262 q 363 258 363 259 l 363 252 q 372 241 365 250 q 381 232 380 233 q 532 146 453 187 q 689 72 610 104 q 693 64 690 71 q 694 57 696 58 l 694 50 l 693 49 q 692 46 692 47 q 685 42 689 45 l 677 38 q 658 43 671 39 q 630 49 644 46 q 602 55 616 52 q 583 58 589 58 q 578 60 582 58 q 572 64 575 62 q 530 81 559 69 q 467 111 502 94 q 397 149 433 127 q 333 191 361 170 q 289 231 305 212 q 278 267 273 251 m 26 281 q 64 319 31 296 q 145 369 98 343 q 248 420 193 395 q 353 464 302 445 q 442 493 404 483 q 494 498 480 503 l 479 460 q 446 444 468 454 q 395 419 423 433 q 335 391 366 406 q 275 363 304 376 q 225 339 247 350 l 193 323 q 176 314 187 320 q 152 300 164 308 q 128 286 140 293 q 113 274 117 278 q 111 271 113 274 l 110 270 q 109 266 109 270 q 110 263 109 264 q 118 254 111 262 q 127 245 125 247 q 277 159 198 201 q 434 84 355 117 q 439 77 437 83 q 441 71 441 72 l 441 68 q 440 65 441 66 q 439 62 439 64 l 438 60 q 437 58 437 58 q 430 54 435 56 q 422 50 425 52 q 403 55 416 52 q 374 62 389 58 q 347 68 359 65 q 330 72 335 71 q 323 75 328 73 q 317 77 319 76 q 275 94 304 81 q 212 124 247 107 q 142 161 178 141 q 79 203 107 182 q 35 244 50 224 q 26 281 20 264 z "},"":{"ha":667,"x_min":121,"x_max":600,"o":"m 579 286 l 514 294 l 517 461 q 504 466 514 463 q 492 469 494 469 q 404 480 449 477 q 312 484 358 483 q 220 488 266 486 q 133 494 175 490 q 132 496 132 495 q 132 498 132 498 q 132 502 132 499 l 132 505 q 132 506 132 506 q 130 513 132 507 q 125 526 127 519 q 121 538 123 533 q 121 544 119 544 q 176 557 134 553 q 275 559 218 560 q 391 551 331 557 q 501 535 452 545 q 579 511 551 525 q 600 481 608 498 l 579 286 z "},"":{"ha":477,"x_min":54,"x_max":454,"o":"m 54 448 q 58 469 54 461 q 79 483 62 476 q 161 479 122 480 q 239 479 199 477 q 319 486 278 481 q 408 496 359 490 l 414 496 q 439 488 425 496 q 454 468 454 480 q 452 439 454 453 q 433 425 449 425 q 410 431 420 425 q 389 438 400 438 l 384 438 q 320 425 343 429 q 281 418 297 420 q 253 417 264 416 q 224 419 241 418 q 182 422 208 420 q 115 423 156 423 l 104 423 q 91 424 99 423 q 76 425 83 425 l 66 425 q 56 435 57 429 q 54 448 54 441 z "},"":{"ha":715,"x_min":72,"x_max":654,"o":"m 72 293 q 81 380 72 332 q 106 478 90 429 q 150 574 123 528 q 211 656 176 620 q 288 715 245 693 q 380 736 330 736 q 460 717 423 736 q 527 667 496 697 q 581 595 557 636 q 620 512 604 555 q 645 428 636 469 q 654 353 654 387 q 618 226 654 281 q 528 134 583 171 q 406 79 473 98 q 275 60 339 60 q 178 76 217 60 q 116 123 140 92 q 82 196 92 153 q 72 293 72 239 m 119 262 q 132 197 119 224 q 165 153 144 170 q 218 127 187 136 q 285 119 248 119 q 417 138 351 119 q 530 197 483 156 q 460 195 495 190 q 395 216 426 201 q 340 254 365 231 q 302 305 316 277 l 298 305 q 295 294 297 305 q 292 274 293 282 q 291 253 290 267 q 292 224 292 239 q 290 195 292 209 q 285 179 289 182 l 264 178 l 260 178 q 254 182 258 179 q 250 189 250 186 q 248 211 248 193 q 246 250 247 229 q 245 288 245 270 q 244 311 245 305 l 244 315 q 243 344 244 321 q 240 393 241 366 q 238 442 239 419 q 237 471 237 465 l 237 473 q 246 525 237 498 q 272 576 255 552 q 312 616 289 600 q 363 632 335 632 q 398 623 380 632 q 433 600 416 613 q 459 570 449 586 q 469 538 469 553 q 470 495 476 515 q 450 457 464 475 q 418 424 437 439 q 381 395 400 408 q 347 372 362 382 q 323 353 331 361 q 337 323 323 339 q 370 293 351 308 q 408 266 388 278 q 441 248 429 254 q 453 243 445 247 q 471 235 461 240 q 489 227 480 231 q 502 221 498 222 q 525 218 510 218 q 551 213 540 217 q 592 277 576 241 q 608 359 608 313 q 600 422 608 388 q 580 494 593 457 q 548 567 567 532 q 505 629 529 602 q 450 673 480 656 q 387 689 420 689 q 348 687 363 689 q 309 677 332 685 l 309 665 q 239 591 274 633 q 178 498 205 549 q 136 388 152 448 q 119 262 119 328 m 286 509 q 284 454 286 483 q 298 403 282 426 q 329 425 307 408 q 374 461 351 441 q 413 502 396 481 q 430 534 430 522 q 409 570 430 562 q 361 579 388 579 q 304 559 323 579 q 286 509 286 540 z "},"":{"ha":477,"x_min":47,"x_max":449,"o":"m 47 723 q 52 745 47 738 q 73 758 57 751 q 154 755 115 755 q 232 755 193 754 q 313 761 271 757 q 401 772 354 765 l 408 772 q 433 764 418 772 q 449 743 449 755 q 446 715 449 730 q 426 701 442 701 q 404 707 414 701 q 384 713 395 713 l 378 713 q 315 701 339 705 q 274 694 290 696 q 246 692 258 692 q 218 694 235 693 q 176 697 201 696 q 109 699 151 699 l 99 699 q 85 699 92 699 q 71 700 77 700 l 61 700 q 49 710 50 704 q 47 723 47 716 z "},"":{"ha":224,"x_min":0,"x_max":208,"o":"m 1 206 q 1 212 1 208 q 1 222 1 217 q 1 232 1 228 q 1 240 1 237 q 4 277 1 257 q 14 316 8 297 q 33 353 21 335 q 63 384 45 371 q 104 406 80 398 q 157 414 127 414 q 188 406 177 414 q 202 385 198 397 q 206 358 206 372 q 207 334 207 345 q 200 283 207 310 q 177 235 193 256 q 134 198 162 213 q 66 184 107 184 q 46 184 54 184 q 30 188 37 185 q 16 195 23 191 q 1 206 9 199 m 32 217 q 50 211 40 211 q 70 211 60 211 q 124 224 103 211 q 156 254 144 236 q 172 294 168 272 q 177 334 177 315 q 178 353 177 343 q 175 373 178 363 q 164 388 172 382 q 141 393 156 393 q 137 378 141 383 q 128 372 134 373 q 115 369 123 370 q 100 367 108 369 q 84 362 92 365 q 70 348 76 358 q 43 294 56 320 q 31 240 31 268 q 31 235 31 238 q 31 228 31 232 q 32 222 32 225 q 32 217 32 219 z "},"":{"ha":449,"x_min":24,"x_max":473,"o":"m 72 175 q 77 196 72 189 q 96 210 81 203 q 174 206 137 208 q 248 206 212 205 l 225 401 l 216 401 q 208 402 212 401 q 201 403 203 403 q 124 396 161 403 q 47 380 87 389 q 33 395 41 384 q 24 415 24 407 q 29 421 24 416 q 35 426 34 426 q 68 433 45 429 q 118 443 91 437 q 169 454 145 449 q 201 461 193 458 q 214 467 205 463 q 225 473 222 471 q 224 505 224 487 q 230 539 225 522 q 245 570 235 556 q 273 591 255 585 l 290 579 l 290 473 l 431 473 q 421 457 431 463 q 403 449 411 452 q 382 444 396 448 q 350 437 368 441 q 317 430 332 433 q 296 426 302 427 q 290 398 293 410 q 287 376 288 387 q 286 355 286 365 q 285 331 285 345 q 289 271 285 301 q 296 209 293 240 q 359 215 327 212 q 426 224 391 218 l 431 224 q 457 216 441 224 q 473 194 473 208 q 470 166 473 180 q 449 152 467 152 q 428 159 437 152 q 407 165 419 165 l 401 165 q 338 152 362 156 q 298 146 315 148 q 270 144 282 144 q 241 145 258 144 q 199 148 225 146 q 132 149 174 149 l 122 149 q 108 150 115 149 q 94 151 100 151 l 84 151 q 73 162 75 156 q 72 175 72 168 z "},"":{"ha":311,"x_min":16,"x_max":281,"o":"m 54 208 q 54 219 54 215 q 61 231 55 223 q 102 281 80 255 q 142 334 124 306 q 172 392 160 362 q 184 454 184 422 q 166 497 184 485 q 117 510 148 510 q 86 502 97 510 q 67 487 75 495 q 52 471 60 478 q 30 464 44 464 q 20 468 22 464 q 17 479 17 472 q 29 506 17 495 q 58 524 41 517 q 93 534 74 531 q 125 537 111 537 q 159 531 143 537 q 188 515 175 526 q 208 490 201 504 q 215 457 215 475 q 202 392 215 423 q 172 334 190 362 q 132 278 154 305 q 91 225 110 251 q 89 219 91 223 q 86 213 86 215 q 95 208 91 209 q 103 208 98 208 q 107 208 105 208 q 110 208 110 208 l 251 236 l 280 236 q 267 223 280 229 q 235 211 254 216 q 193 201 216 206 q 150 193 170 196 q 114 187 129 189 q 95 185 99 185 l 89 185 q 81 185 85 185 q 72 186 77 186 l 67 186 q 55 194 57 188 q 54 208 54 201 z "},"":{"ha":368,"x_min":16,"x_max":320,"o":"m 17 250 q 18 253 17 251 q 18 256 18 255 q 48 243 34 250 q 74 232 61 237 q 102 224 87 227 q 135 221 116 221 q 186 227 159 221 q 236 245 213 233 q 274 278 258 258 q 289 325 289 298 q 284 353 289 340 q 270 375 279 365 q 249 390 261 384 q 222 395 236 395 q 197 390 208 395 q 174 377 185 384 q 153 365 164 371 q 129 360 142 360 q 119 361 124 360 q 114 369 114 362 q 123 385 114 376 q 146 404 133 393 q 175 427 160 415 q 204 455 191 440 q 227 487 218 470 q 236 522 236 503 q 231 542 236 535 q 219 553 227 549 q 202 557 212 557 q 181 558 192 558 q 133 547 153 558 q 102 511 113 537 q 87 521 91 513 q 84 537 84 529 q 98 563 84 553 q 132 577 113 572 q 171 584 151 582 q 199 586 190 586 q 248 568 230 586 q 265 522 265 551 q 262 497 265 509 q 254 475 259 486 q 242 453 249 464 q 229 430 236 442 q 264 413 247 424 q 293 387 281 402 q 312 354 305 372 q 319 317 319 336 q 302 265 319 287 q 258 228 284 243 q 202 205 232 213 q 147 197 172 197 q 115 201 136 197 q 71 210 93 204 q 33 227 50 217 q 17 250 17 237 z "},"":{"ha":197,"x_min":22,"x_max":157,"o":"m 99 770 q 83 750 91 762 q 64 728 75 738 q 43 717 54 719 q 22 728 33 715 l 71 812 q 93 852 77 833 q 122 886 109 872 q 151 884 136 905 q 157 856 161 872 q 142 823 153 840 q 119 793 132 807 q 99 770 106 779 z "},"":{"ha":590,"x_min":45,"x_max":453,"o":"m 126 715 q 125 469 119 563 q 143 326 130 374 q 176 271 156 278 q 218 285 195 263 q 264 351 241 307 q 309 452 288 396 q 350 570 331 507 q 380 688 369 632 q 392 700 382 699 q 408 701 401 701 q 418 701 411 701 q 427 700 425 700 q 428 668 427 689 q 430 620 429 647 q 433 564 431 593 q 435 507 434 534 q 437 458 437 480 q 439 427 438 437 q 441 303 438 347 q 449 239 445 259 q 453 218 450 222 q 439 222 449 221 q 408 210 429 224 q 396 254 396 224 q 397 322 396 285 q 397 399 399 359 q 382 469 396 439 q 377 422 385 453 q 352 357 369 392 q 310 286 335 321 q 254 223 285 250 q 190 184 224 197 q 119 182 156 171 q 82 -54 100 18 q 54 -110 64 -125 q 45 4 43 -95 q 66 278 46 103 l 66 704 l 126 715 z "},"":{"ha":514,"x_min":16,"x_max":460,"o":"m 119 422 q 67 429 87 422 q 36 452 47 437 q 20 489 24 467 q 16 541 16 511 q 37 628 16 593 q 94 686 58 663 q 173 719 129 708 q 262 734 217 730 q 350 739 308 739 l 422 739 q 429 739 425 739 q 433 738 433 738 q 441 703 438 722 q 446 656 445 685 q 448 585 448 628 q 446 478 448 543 q 440 323 444 414 q 433 111 437 233 q 439 92 435 106 q 448 63 444 79 q 456 32 453 47 q 460 4 460 16 l 433 4 q 428 12 433 4 q 418 31 423 20 q 406 54 412 42 q 397 75 400 66 q 394 85 396 79 q 391 100 392 92 q 388 114 389 107 q 387 123 387 121 l 387 673 q 363 656 376 665 q 338 640 351 648 l 338 618 q 337 587 338 608 q 336 534 336 567 q 333 444 335 500 q 329 306 331 388 q 323 106 327 224 q 330 87 326 100 q 339 59 335 75 q 347 28 343 43 q 350 0 350 12 l 323 0 q 319 8 323 0 l 308 27 q 297 50 302 38 q 289 71 292 62 q 286 81 288 75 q 281 96 283 88 q 278 110 279 103 q 277 119 277 117 l 277 498 q 218 443 256 464 q 119 422 179 422 z "},"":{"ha":241,"x_min":53,"x_max":178,"o":"m 53 300 q 56 322 53 311 q 64 342 58 334 q 81 357 71 351 q 104 363 91 363 q 131 359 118 363 q 154 347 144 355 q 171 329 164 339 q 178 307 178 319 q 156 263 178 277 q 107 250 134 250 q 64 260 76 250 q 53 300 53 270 z "},"":{"ha":355,"x_min":62,"x_max":311,"o":"m 62 -205 l 62 -197 q 62 -184 62 -191 q 62 -171 62 -178 l 62 -164 q 74 -155 65 -160 q 87 -151 83 -149 q 106 -165 100 -153 q 124 -193 113 -178 q 158 -222 136 -208 q 227 -243 180 -236 q 249 -237 245 -247 q 252 -214 252 -227 q 231 -178 250 -191 q 187 -153 213 -164 q 134 -130 161 -141 q 90 -99 107 -118 q 67 -49 72 -80 q 83 33 62 -18 q 92 59 84 53 q 111 62 100 65 q 132 49 122 58 q 146 26 142 39 q 145 1 151 14 q 122 -20 140 -12 q 136 -73 122 -54 q 172 -104 151 -92 q 217 -125 193 -117 q 262 -144 241 -133 q 296 -175 282 -156 q 311 -227 311 -194 q 304 -252 311 -239 q 288 -277 298 -266 q 266 -295 278 -288 q 240 -302 254 -302 q 168 -300 201 -302 q 112 -287 136 -297 q 75 -258 88 -277 q 62 -205 62 -239 z "},"":{"ha":130,"x_min":34,"x_max":104,"o":"m 69 499 q 75 499 71 499 q 81 498 79 498 q 90 478 88 486 q 92 458 92 470 q 92 446 92 451 q 91 435 92 440 q 87 424 90 430 q 81 411 84 418 l 81 226 q 86 218 82 224 q 94 206 90 213 q 101 192 99 199 q 104 180 104 186 l 81 180 q 75 184 79 180 q 65 192 70 187 q 55 202 60 197 q 45 211 49 207 q 44 216 45 213 q 40 222 42 219 q 36 228 38 225 q 35 232 35 231 l 35 483 q 46 494 35 488 q 69 499 57 499 z "},"":{"ha":224,"x_min":0,"x_max":208,"o":"m 1 206 q 1 212 1 208 q 1 222 1 217 q 1 232 1 228 q 1 240 1 237 q 4 277 1 257 q 14 316 8 297 q 33 353 21 335 q 63 384 45 371 q 104 406 80 398 q 157 414 127 414 q 188 406 177 414 q 202 385 198 397 q 206 358 206 372 q 207 334 207 345 q 200 283 207 310 q 177 235 193 256 q 134 198 162 213 q 66 184 107 184 q 46 184 54 184 q 30 188 37 185 q 16 195 23 191 q 1 206 9 199 m 32 217 q 50 211 40 211 q 70 211 60 211 q 124 224 103 211 q 156 254 144 236 q 172 294 168 272 q 177 334 177 315 q 178 353 177 343 q 175 373 178 363 q 164 388 172 382 q 141 393 156 393 q 137 378 141 383 q 128 372 134 373 q 115 369 123 370 q 100 367 108 369 q 84 362 92 365 q 70 348 76 358 q 43 294 56 320 q 31 240 31 268 q 31 235 31 238 q 31 228 31 232 q 32 222 32 225 q 32 217 32 219 z "},"":{"ha":754,"x_min":102,"x_max":715,"o":"m 376 172 q 389 197 376 176 q 420 243 403 218 q 454 289 438 267 q 473 316 469 311 q 498 350 479 323 q 541 409 518 377 q 584 468 564 441 q 609 502 604 495 q 622 521 614 510 q 637 543 629 532 q 648 563 644 555 l 654 571 l 654 605 q 631 615 654 606 q 575 635 608 624 q 508 657 543 646 q 452 675 473 669 l 391 688 q 353 694 370 692 q 331 697 335 697 q 302 709 312 701 q 293 746 293 716 q 302 766 293 762 q 319 769 311 769 q 326 768 321 769 q 331 768 331 768 l 678 652 q 687 648 681 651 q 699 642 693 646 q 710 633 705 639 q 715 618 715 627 q 711 587 715 601 q 700 559 707 574 q 677 523 693 548 q 644 471 662 498 q 610 419 627 444 q 587 385 594 395 q 559 348 579 376 q 514 289 538 320 q 468 229 490 258 q 437 189 446 201 l 429 180 q 418 172 425 176 q 407 161 412 167 q 399 155 401 156 l 392 155 q 382 160 388 156 q 376 165 377 164 q 376 168 376 168 l 376 172 m 184 123 q 198 149 184 127 q 229 194 212 170 q 262 240 247 218 q 283 267 278 262 q 309 301 289 274 q 351 360 328 328 q 394 418 374 392 q 419 453 414 445 q 432 471 425 460 q 446 494 439 483 q 458 514 453 506 l 464 522 l 464 556 q 440 566 464 557 q 385 586 416 575 q 318 608 353 597 q 262 625 283 620 q 237 631 256 628 l 201 639 q 162 646 180 643 q 140 648 144 648 q 112 660 122 652 q 102 697 102 667 q 111 717 102 713 q 129 720 121 720 q 136 720 132 720 q 140 719 140 719 l 487 604 q 496 600 490 602 q 509 593 503 597 q 520 584 515 590 q 525 570 525 578 q 521 538 525 552 q 510 510 517 525 q 488 474 503 499 q 453 422 472 449 l 419 370 q 396 336 403 346 q 368 299 388 327 q 323 240 347 271 q 277 180 300 209 q 245 140 255 152 l 239 132 q 229 123 235 127 q 217 113 222 118 q 209 104 212 107 l 201 104 q 192 111 198 107 q 184 117 186 115 q 184 119 184 119 l 184 123 z "},"":{"ha":750,"x_min":45,"x_max":612,"o":"m 110 628 q 117 627 113 628 q 122 627 121 627 q 132 600 130 611 q 134 574 134 590 q 134 558 134 565 q 133 545 134 551 q 129 530 132 538 q 122 513 126 523 l 122 274 q 127 263 123 271 q 136 247 132 256 q 144 230 141 239 q 146 214 146 221 l 122 214 q 116 219 121 214 q 106 230 111 223 q 95 243 100 236 q 85 254 90 249 q 83 260 85 256 q 79 268 81 264 q 76 276 77 272 q 75 281 75 280 l 75 606 q 86 621 75 614 q 110 628 98 628 m 45 -121 q 79 23 60 -47 q 129 163 98 94 l 435 875 l 519 956 l 547 956 q 537 907 547 935 q 511 848 528 879 q 476 784 495 817 q 438 720 457 751 q 402 662 419 689 q 377 614 385 635 q 228 273 300 444 q 92 -73 156 102 l 92 -88 q 90 -113 92 -99 q 83 -139 88 -126 q 69 -156 79 -152 q 66 -157 68 -157 l 60 -157 q 57 -156 58 -157 q 52 -146 56 -155 q 45 -132 47 -137 l 45 -121 m 526 255 q 525 264 529 259 q 518 270 521 270 q 493 265 512 272 q 446 249 473 259 q 389 226 420 238 q 331 203 359 214 q 281 185 304 192 q 249 177 259 177 q 232 183 235 177 q 230 196 230 188 q 234 211 230 204 q 243 224 238 218 q 255 237 248 231 q 267 249 261 242 q 281 269 272 256 q 302 296 291 282 q 320 320 312 309 q 329 334 328 331 q 341 353 332 339 q 361 387 350 367 q 386 430 372 407 q 413 475 400 453 q 437 516 426 497 q 455 547 448 536 q 463 566 460 556 q 472 585 467 576 q 486 599 477 593 q 509 605 495 605 q 518 604 511 605 q 526 604 525 604 q 557 571 543 588 q 583 535 572 553 q 601 496 594 516 q 608 456 608 476 q 604 429 608 441 q 596 404 600 417 l 587 380 q 581 356 582 369 q 576 314 578 334 q 573 276 575 295 q 572 238 572 257 q 572 198 572 219 l 572 166 q 573 140 572 153 q 575 113 574 128 q 581 78 577 99 q 588 56 583 67 q 597 34 592 45 q 607 13 602 23 q 611 -8 611 2 q 575 6 589 -8 q 553 40 561 21 q 540 81 544 60 q 536 114 537 102 q 533 142 535 122 q 530 185 532 163 q 527 228 529 207 q 526 255 526 248 m 312 242 l 321 242 q 339 247 322 242 q 378 259 355 252 q 424 273 400 265 q 464 285 448 280 q 483 292 473 287 q 501 302 493 296 q 514 315 509 308 q 519 332 519 323 q 519 341 519 335 q 518 348 518 347 q 516 364 517 353 q 514 386 515 375 q 512 407 513 397 q 509 419 510 417 q 504 439 507 426 q 499 462 502 451 q 494 481 497 473 q 492 490 492 490 l 482 497 q 477 492 480 496 q 468 484 473 488 q 460 475 464 479 q 455 469 457 470 q 446 455 453 466 q 432 431 440 445 q 415 402 424 417 q 398 372 405 387 q 384 347 390 358 q 374 334 378 337 q 362 317 371 329 q 343 291 353 304 q 325 265 333 277 q 312 249 316 253 l 312 242 m 544 482 q 543 461 544 474 q 542 435 542 448 q 547 411 543 422 q 562 399 551 400 q 576 421 571 408 q 581 444 581 434 l 581 448 q 577 460 580 452 q 572 478 575 469 q 565 495 569 488 q 562 505 562 502 q 558 512 561 507 q 553 519 555 517 q 544 501 544 512 l 544 482 z "},"":{"ha":769,"x_min":22,"x_max":693,"o":"m 75 656 q 83 655 78 656 q 88 655 87 655 q 100 623 97 636 q 102 592 102 610 q 102 573 102 581 q 100 557 102 565 q 96 540 99 549 q 88 520 93 531 l 88 235 q 94 223 90 231 q 104 204 99 214 q 112 183 109 193 q 115 164 115 172 l 88 164 q 82 170 87 164 q 71 182 77 175 q 59 198 65 190 q 49 211 53 206 q 47 219 49 214 q 42 228 44 223 q 38 238 40 233 q 37 244 37 242 l 37 630 q 49 647 37 639 q 75 656 62 656 m 22 -174 q 56 -30 37 -100 q 106 110 75 41 l 412 822 l 496 903 l 524 903 q 514 854 524 882 q 488 795 505 826 q 453 731 472 764 q 415 667 434 699 q 379 609 396 636 q 354 562 362 582 q 205 220 277 391 q 69 -126 133 49 l 69 -141 q 67 -165 69 -152 q 60 -192 65 -179 q 46 -209 56 -205 q 43 -210 45 -210 l 37 -210 q 34 -209 35 -210 q 28 -199 33 -208 q 22 -184 24 -190 l 22 -174 m 326 20 q 327 35 326 30 q 337 48 327 40 q 404 110 368 78 q 469 177 439 142 q 519 248 499 211 q 538 325 538 285 q 508 378 538 363 q 429 394 478 394 q 378 384 396 394 q 348 365 360 375 q 323 346 335 355 q 287 337 310 337 q 270 342 273 337 q 266 356 266 347 q 286 389 266 375 q 332 412 305 403 q 389 424 359 420 q 441 427 419 427 q 497 420 470 427 q 544 400 523 413 q 576 369 564 387 q 587 328 587 351 q 567 249 587 286 q 518 176 547 211 q 453 107 489 141 q 387 41 418 74 q 382 34 386 40 q 378 27 379 29 q 392 21 387 22 q 406 20 397 20 q 413 20 409 20 q 417 20 417 20 l 647 55 l 693 55 q 672 39 693 46 q 621 24 652 31 q 552 12 590 18 q 482 2 515 6 q 424 -5 449 -3 q 392 -8 399 -8 l 382 -8 q 370 -7 376 -8 q 356 -7 363 -7 l 348 -7 q 328 4 331 -4 q 326 20 326 11 z "},"":{"ha":1084,"x_min":20,"x_max":940,"o":"m 22 252 q 22 256 22 253 q 23 260 23 258 q 63 243 45 252 q 100 228 82 235 q 138 218 118 222 q 184 215 158 215 q 254 222 217 215 q 322 246 291 230 q 374 287 354 263 q 395 348 395 312 q 389 382 395 366 q 370 410 382 398 q 340 429 357 422 q 303 436 323 436 q 268 429 284 436 q 238 414 253 422 q 208 398 223 405 q 176 392 193 392 q 162 393 169 392 q 155 403 155 394 q 168 423 155 412 q 199 448 180 434 q 239 477 218 462 q 279 512 260 493 q 310 552 297 531 q 322 598 322 574 q 316 623 322 614 q 300 637 310 632 q 276 642 290 641 q 247 643 262 643 q 180 630 208 643 q 138 584 153 616 q 118 596 123 586 q 113 617 113 606 q 133 649 113 637 q 179 668 153 661 q 233 676 206 674 q 272 679 259 679 q 339 656 315 679 q 363 598 363 634 q 359 566 363 582 q 347 537 354 551 q 331 509 340 523 q 313 480 322 495 q 361 459 338 473 q 401 426 384 445 q 427 384 417 407 q 437 337 437 361 q 413 271 437 299 q 353 223 389 242 q 276 195 317 204 q 200 185 235 185 q 156 189 185 185 q 96 201 126 193 q 44 222 66 209 q 22 252 22 235 m 315 -113 q 349 31 330 -39 q 399 171 368 102 l 705 883 l 789 964 l 817 964 q 807 915 817 943 q 781 856 798 887 q 746 792 765 825 q 708 728 727 760 q 672 670 689 697 q 647 623 655 643 q 498 281 570 452 q 362 -65 426 110 l 362 -80 q 360 -104 362 -91 q 353 -131 358 -118 q 339 -148 349 -144 q 336 -149 338 -149 l 330 -149 q 327 -148 328 -149 q 321 -138 326 -146 q 315 -123 317 -129 l 315 -113 m 843 277 q 841 287 846 281 q 834 293 837 293 q 804 288 827 295 q 751 269 782 281 q 686 244 721 258 q 620 219 652 231 q 563 198 588 206 q 526 190 537 190 q 506 196 509 190 q 503 211 503 202 q 508 228 503 220 q 519 243 513 235 q 532 256 524 250 q 546 270 540 263 q 563 293 552 278 q 586 322 574 307 q 607 349 597 337 q 617 364 616 361 q 631 386 621 370 q 654 424 641 401 q 683 471 667 446 q 713 522 699 497 q 741 568 728 547 q 761 602 754 589 q 771 623 767 612 q 781 644 775 634 q 797 660 787 654 q 823 666 807 666 q 834 666 826 666 q 843 665 842 665 q 879 628 862 647 q 908 588 895 609 q 929 545 921 567 q 936 500 936 523 q 932 470 936 484 q 923 443 928 457 l 913 416 q 906 389 907 403 q 900 342 902 364 q 897 300 899 321 q 895 258 895 279 q 895 214 895 236 l 895 177 q 896 149 895 163 q 899 119 897 135 q 906 79 901 103 q 913 55 908 67 q 924 31 919 43 q 935 7 930 19 q 940 -17 940 -5 q 899 0 915 -17 q 873 38 883 16 q 859 83 863 59 q 854 119 855 106 q 851 151 853 128 q 847 199 849 174 q 844 246 846 224 q 843 277 843 269 m 597 263 l 608 263 q 628 268 609 263 q 673 281 647 274 q 726 296 699 288 q 771 310 754 304 q 793 317 782 313 q 814 329 804 322 q 829 344 823 335 q 835 362 835 352 q 834 373 835 366 q 834 381 834 380 q 831 398 833 386 q 829 423 830 410 q 826 446 828 435 q 823 459 824 457 q 818 481 821 468 q 812 507 815 495 q 806 529 809 519 q 803 538 803 538 l 793 547 q 786 541 790 546 q 777 532 782 537 q 767 522 771 527 q 761 515 763 517 q 751 500 759 511 q 735 473 744 488 q 715 440 726 458 q 696 407 704 423 q 680 380 687 391 q 669 364 673 368 q 655 345 666 359 q 633 317 644 332 q 612 288 622 302 q 597 270 602 274 l 597 263 m 863 529 q 862 507 863 521 q 861 477 861 492 q 867 450 862 462 q 884 437 871 439 q 900 461 894 447 q 906 488 906 476 l 906 491 q 901 505 904 496 q 895 525 899 515 q 888 544 891 536 q 884 555 884 552 q 880 563 883 557 q 874 571 876 568 q 863 550 863 563 l 863 529 z "},"":{"ha":532,"x_min":-5,"x_max":487,"o":"m 228 696 q 235 679 228 688 q 251 661 241 670 q 273 648 261 653 q 293 642 284 642 q 309 654 306 642 q 312 673 312 665 q 294 707 312 692 q 252 723 276 723 q 233 715 237 723 q 228 696 228 708 m 182 361 q 200 299 182 327 q 245 245 219 271 q 304 194 272 219 q 364 144 337 170 q 409 88 390 117 q 427 23 427 58 q 415 -29 427 -8 q 383 -63 403 -50 q 333 -82 362 -76 q 271 -88 304 -88 q 190 -85 231 -88 q 114 -67 148 -83 q 97 -58 110 -66 q 79 -47 83 -50 q 75 -43 78 -46 q 67 -37 71 -40 q 60 -31 63 -33 q 55 -29 57 -29 q 37 -28 48 -27 q 17 -33 26 -29 q 2 -43 8 -37 q -4 -59 -4 -49 q 15 -82 -4 -72 q 63 -102 34 -93 q 128 -117 93 -110 q 196 -128 163 -124 q 253 -135 228 -133 q 288 -137 279 -137 q 371 -125 334 -137 q 433 -89 407 -112 q 472 -35 458 -66 q 486 34 486 -4 q 467 97 486 66 q 419 158 447 128 q 357 215 390 187 q 295 268 324 242 q 248 319 267 294 q 229 367 229 344 q 236 402 229 385 q 243 439 243 419 q 214 432 225 439 q 194 413 202 424 q 184 388 187 402 q 182 361 182 375 z "},"":{"ha":911,"x_min":23,"x_max":888,"o":"m 118 35 q 119 42 118 38 q 119 46 119 46 q 162 122 140 85 q 208 195 184 159 q 254 268 232 231 q 296 343 277 305 q 269 365 290 355 q 216 385 247 374 q 152 410 186 396 q 90 444 118 425 q 42 490 61 464 q 23 552 23 517 q 47 616 23 589 q 107 663 72 644 q 182 690 142 681 q 250 700 221 700 q 355 680 309 700 q 449 627 400 659 q 477 654 465 639 q 498 686 488 669 q 516 721 502 696 q 545 774 530 746 q 573 828 559 803 q 591 864 587 853 q 609 874 602 872 q 628 876 616 876 q 634 876 629 876 q 640 876 639 876 q 661 760 654 819 q 671 640 667 700 q 677 521 674 581 q 686 401 680 461 q 701 401 690 401 q 718 400 712 400 q 755 404 736 400 q 793 413 774 408 q 832 422 812 418 q 872 426 852 426 l 876 426 q 882 420 878 425 q 888 415 886 416 q 862 391 880 400 q 821 377 844 382 q 774 367 799 372 q 731 356 750 362 q 699 342 712 350 q 686 319 686 334 q 690 264 686 292 q 698 210 693 237 q 707 154 703 182 q 711 98 711 126 q 710 79 711 91 q 707 54 709 66 q 699 33 705 42 q 681 23 693 23 q 656 43 667 23 q 639 95 646 64 q 627 163 632 126 q 619 235 623 201 q 612 296 616 270 q 604 331 608 323 q 564 334 593 332 q 503 337 534 335 q 442 341 471 339 q 403 343 414 343 l 389 343 q 338 318 362 343 q 295 254 315 293 q 256 172 275 216 q 220 89 237 127 q 183 24 202 50 q 142 -1 164 -1 q 123 10 127 -1 q 118 35 118 22 m 391 401 q 417 391 401 395 q 449 388 433 388 q 479 388 465 388 q 505 388 494 388 q 518 389 510 388 q 534 389 526 389 q 549 390 543 389 q 556 391 555 391 l 568 401 q 559 426 571 404 q 528 471 547 448 q 492 515 510 495 q 468 534 475 534 q 465 533 467 534 q 461 532 464 532 q 423 469 441 502 q 391 401 406 437 m 83 553 q 107 492 83 518 q 167 448 132 465 q 241 422 202 430 q 311 414 281 414 q 350 433 330 414 q 387 479 370 453 q 416 532 404 505 q 427 574 427 559 q 406 604 427 590 q 355 629 384 618 q 297 646 326 640 q 255 652 269 652 q 205 646 235 652 q 149 628 176 640 q 102 597 121 616 q 83 553 83 579 m 509 598 q 522 555 509 581 q 555 505 536 529 q 595 463 574 480 q 632 445 616 445 q 631 465 632 452 q 630 495 631 479 q 629 525 629 511 q 628 545 628 538 q 622 595 625 564 q 615 656 618 627 q 608 709 612 686 q 604 734 605 732 l 591 757 q 585 751 590 755 q 579 746 581 747 q 566 720 575 738 q 545 681 556 701 q 524 642 533 661 q 510 616 514 623 q 509 606 510 613 q 509 598 509 600 m 564 1015 q 539 1037 555 1023 q 511 1068 524 1051 q 493 1102 498 1085 q 502 1131 488 1119 q 519 1141 513 1141 q 537 1133 526 1141 q 570 1098 551 1118 q 598 1058 590 1078 l 656 974 q 631 962 644 960 q 606 973 617 964 q 583 994 594 982 q 564 1015 572 1006 z "},"":{"ha":911,"x_min":23,"x_max":888,"o":"m 118 35 q 119 42 118 38 q 119 46 119 46 q 162 122 140 85 q 208 195 184 159 q 254 268 232 231 q 296 343 277 305 q 269 365 290 355 q 216 385 247 374 q 152 410 186 396 q 90 444 118 425 q 42 490 61 464 q 23 552 23 517 q 47 616 23 589 q 107 663 72 644 q 182 690 142 681 q 250 700 221 700 q 355 680 309 700 q 449 627 400 659 q 477 654 465 639 q 498 686 488 669 q 516 721 502 696 q 545 774 530 746 q 573 828 559 803 q 591 864 587 853 q 609 874 602 872 q 628 876 616 876 q 634 876 629 876 q 640 876 639 876 q 661 760 654 819 q 671 640 667 700 q 677 521 674 581 q 686 401 680 461 q 701 401 690 401 q 718 400 712 400 q 755 404 736 400 q 793 413 774 408 q 832 422 812 418 q 872 426 852 426 l 876 426 q 882 420 878 425 q 888 415 886 416 q 862 391 880 400 q 821 377 844 382 q 774 367 799 372 q 731 356 750 362 q 699 342 712 350 q 686 319 686 334 q 690 264 686 292 q 698 210 693 237 q 707 154 703 182 q 711 98 711 126 q 710 79 711 91 q 707 54 709 66 q 699 33 705 42 q 681 23 693 23 q 656 43 667 23 q 639 95 646 64 q 627 163 632 126 q 619 235 623 201 q 612 296 616 270 q 604 331 608 323 q 564 334 593 332 q 503 337 534 335 q 442 341 471 339 q 403 343 414 343 l 389 343 q 338 318 362 343 q 295 254 315 293 q 256 172 275 216 q 220 89 237 127 q 183 24 202 50 q 142 -1 164 -1 q 123 10 127 -1 q 118 35 118 22 m 391 401 q 417 391 401 395 q 449 388 433 388 q 479 388 465 388 q 505 388 494 388 q 518 389 510 388 q 534 389 526 389 q 549 390 543 389 q 556 391 555 391 l 568 401 q 559 426 571 404 q 528 471 547 448 q 492 515 510 495 q 468 534 475 534 q 465 533 467 534 q 461 532 464 532 q 423 469 441 502 q 391 401 406 437 m 83 553 q 107 492 83 518 q 167 448 132 465 q 241 422 202 430 q 311 414 281 414 q 350 433 330 414 q 387 479 370 453 q 416 532 404 505 q 427 574 427 559 q 406 604 427 590 q 355 629 384 618 q 297 646 326 640 q 255 652 269 652 q 205 646 235 652 q 149 628 176 640 q 102 597 121 616 q 83 553 83 579 m 509 598 q 522 555 509 581 q 555 505 536 529 q 595 463 574 480 q 632 445 616 445 q 631 465 632 452 q 630 495 631 479 q 629 525 629 511 q 628 545 628 538 q 622 595 625 564 q 615 656 618 627 q 608 709 612 686 q 604 734 605 732 l 591 757 q 585 751 590 755 q 579 746 581 747 q 566 720 575 738 q 545 681 556 701 q 524 642 533 661 q 510 616 514 623 q 509 606 510 613 q 509 598 509 600 m 650 1021 q 633 1001 642 1013 q 615 979 625 989 q 594 968 605 970 q 572 979 583 966 l 621 1063 q 644 1103 628 1084 q 673 1137 659 1123 q 701 1135 686 1156 q 708 1107 712 1123 q 693 1074 704 1090 q 669 1044 682 1058 q 650 1021 656 1029 z "},"":{"ha":911,"x_min":23,"x_max":888,"o":"m 118 35 q 119 42 118 38 q 119 46 119 46 q 162 122 140 85 q 208 195 184 159 q 254 268 232 231 q 296 343 277 305 q 269 365 290 355 q 216 385 247 374 q 152 410 186 396 q 90 444 118 425 q 42 490 61 464 q 23 552 23 517 q 47 616 23 589 q 107 663 72 644 q 182 690 142 681 q 250 700 221 700 q 355 680 309 700 q 449 627 400 659 q 477 654 465 639 q 498 686 488 669 q 516 721 502 696 q 545 774 530 746 q 573 828 559 803 q 591 864 587 853 q 609 874 602 872 q 628 876 616 876 q 634 876 629 876 q 640 876 639 876 q 661 760 654 819 q 671 640 667 700 q 677 521 674 581 q 686 401 680 461 q 701 401 690 401 q 718 400 712 400 q 755 404 736 400 q 793 413 774 408 q 832 422 812 418 q 872 426 852 426 l 876 426 q 882 420 878 425 q 888 415 886 416 q 862 391 880 400 q 821 377 844 382 q 774 367 799 372 q 731 356 750 362 q 699 342 712 350 q 686 319 686 334 q 690 264 686 292 q 698 210 693 237 q 707 154 703 182 q 711 98 711 126 q 710 79 711 91 q 707 54 709 66 q 699 33 705 42 q 681 23 693 23 q 656 43 667 23 q 639 95 646 64 q 627 163 632 126 q 619 235 623 201 q 612 296 616 270 q 604 331 608 323 q 564 334 593 332 q 503 337 534 335 q 442 341 471 339 q 403 343 414 343 l 389 343 q 338 318 362 343 q 295 254 315 293 q 256 172 275 216 q 220 89 237 127 q 183 24 202 50 q 142 -1 164 -1 q 123 10 127 -1 q 118 35 118 22 m 391 401 q 417 391 401 395 q 449 388 433 388 q 479 388 465 388 q 505 388 494 388 q 518 389 510 388 q 534 389 526 389 q 549 390 543 389 q 556 391 555 391 l 568 401 q 559 426 571 404 q 528 471 547 448 q 492 515 510 495 q 468 534 475 534 q 465 533 467 534 q 461 532 464 532 q 423 469 441 502 q 391 401 406 437 m 83 553 q 107 492 83 518 q 167 448 132 465 q 241 422 202 430 q 311 414 281 414 q 350 433 330 414 q 387 479 370 453 q 416 532 404 505 q 427 574 427 559 q 406 604 427 590 q 355 629 384 618 q 297 646 326 640 q 255 652 269 652 q 205 646 235 652 q 149 628 176 640 q 102 597 121 616 q 83 553 83 579 m 509 598 q 522 555 509 581 q 555 505 536 529 q 595 463 574 480 q 632 445 616 445 q 631 465 632 452 q 630 495 631 479 q 629 525 629 511 q 628 545 628 538 q 622 595 625 564 q 615 656 618 627 q 608 709 612 686 q 604 734 605 732 l 591 757 q 585 751 590 755 q 579 746 581 747 q 566 720 575 738 q 545 681 556 701 q 524 642 533 661 q 510 616 514 623 q 509 606 510 613 q 509 598 509 600 m 606 1053 q 597 1044 604 1053 q 583 1026 591 1036 q 569 1007 575 1016 q 563 997 563 998 q 509 941 528 955 q 486 931 491 926 q 484 955 480 936 q 498 999 488 974 q 522 1052 509 1024 q 549 1101 536 1080 q 572 1135 562 1123 q 585 1138 582 1146 q 604 1156 591 1150 q 627 1162 616 1162 l 632 1162 q 656 1101 648 1122 q 669 1072 665 1081 q 677 1060 673 1063 q 685 1046 681 1057 q 698 1014 689 1036 q 723 947 707 991 q 690 920 703 926 q 668 919 677 914 q 653 937 659 924 q 641 970 647 951 q 627 1010 635 989 q 606 1053 618 1032 z "},"":{"ha":911,"x_min":23,"x_max":888,"o":"m 118 35 q 119 42 118 38 q 119 46 119 46 q 162 122 140 85 q 208 195 184 159 q 254 268 232 231 q 296 343 277 305 q 269 365 290 355 q 216 385 247 374 q 152 410 186 396 q 90 444 118 425 q 42 490 61 464 q 23 552 23 517 q 47 616 23 589 q 107 663 72 644 q 182 690 142 681 q 250 700 221 700 q 355 680 309 700 q 449 627 400 659 q 477 654 465 639 q 498 686 488 669 q 516 721 502 696 q 545 774 530 746 q 573 828 559 803 q 591 864 587 853 q 609 874 602 872 q 628 876 616 876 q 634 876 629 876 q 640 876 639 876 q 661 760 654 819 q 671 640 667 700 q 677 521 674 581 q 686 401 680 461 q 701 401 690 401 q 718 400 712 400 q 755 404 736 400 q 793 413 774 408 q 832 422 812 418 q 872 426 852 426 l 876 426 q 882 420 878 425 q 888 415 886 416 q 862 391 880 400 q 821 377 844 382 q 774 367 799 372 q 731 356 750 362 q 699 342 712 350 q 686 319 686 334 q 690 264 686 292 q 698 210 693 237 q 707 154 703 182 q 711 98 711 126 q 710 79 711 91 q 707 54 709 66 q 699 33 705 42 q 681 23 693 23 q 656 43 667 23 q 639 95 646 64 q 627 163 632 126 q 619 235 623 201 q 612 296 616 270 q 604 331 608 323 q 564 334 593 332 q 503 337 534 335 q 442 341 471 339 q 403 343 414 343 l 389 343 q 338 318 362 343 q 295 254 315 293 q 256 172 275 216 q 220 89 237 127 q 183 24 202 50 q 142 -1 164 -1 q 123 10 127 -1 q 118 35 118 22 m 391 401 q 417 391 401 395 q 449 388 433 388 q 479 388 465 388 q 505 388 494 388 q 518 389 510 388 q 534 389 526 389 q 549 390 543 389 q 556 391 555 391 l 568 401 q 559 426 571 404 q 528 471 547 448 q 492 515 510 495 q 468 534 475 534 q 465 533 467 534 q 461 532 464 532 q 423 469 441 502 q 391 401 406 437 m 83 553 q 107 492 83 518 q 167 448 132 465 q 241 422 202 430 q 311 414 281 414 q 350 433 330 414 q 387 479 370 453 q 416 532 404 505 q 427 574 427 559 q 406 604 427 590 q 355 629 384 618 q 297 646 326 640 q 255 652 269 652 q 205 646 235 652 q 149 628 176 640 q 102 597 121 616 q 83 553 83 579 m 509 598 q 522 555 509 581 q 555 505 536 529 q 595 463 574 480 q 632 445 616 445 q 631 465 632 452 q 630 495 631 479 q 629 525 629 511 q 628 545 628 538 q 622 595 625 564 q 615 656 618 627 q 608 709 612 686 q 604 734 605 732 l 591 757 q 585 751 590 755 q 579 746 581 747 q 566 720 575 738 q 545 681 556 701 q 524 642 533 661 q 510 616 514 623 q 509 606 510 613 q 509 598 509 600 m 818 1066 q 817 1021 819 1050 q 808 963 814 993 q 793 911 802 933 q 776 887 785 888 q 730 909 754 891 q 682 949 707 926 q 633 994 658 971 q 583 1034 608 1017 q 534 1054 559 1050 q 487 1044 510 1058 q 454 959 472 989 q 425 933 435 929 q 419 977 415 937 q 452 1097 423 1016 q 514 1120 483 1122 q 574 1103 545 1119 q 630 1063 604 1088 q 680 1013 656 1038 q 724 970 704 989 q 762 952 745 952 q 768 968 765 952 q 774 1004 772 983 q 777 1044 776 1024 q 776 1076 777 1065 l 818 1066 z "},"":{"ha":911,"x_min":23,"x_max":888,"o":"m 118 35 q 119 42 118 38 q 119 46 119 46 q 162 122 140 85 q 208 195 184 159 q 254 268 232 231 q 296 343 277 305 q 269 365 290 355 q 216 385 247 374 q 152 410 186 396 q 90 444 118 425 q 42 490 61 464 q 23 552 23 517 q 47 616 23 589 q 107 663 72 644 q 182 690 142 681 q 250 700 221 700 q 355 680 309 700 q 449 627 400 659 q 477 654 465 639 q 498 686 488 669 q 516 721 502 696 q 545 774 530 746 q 573 828 559 803 q 591 864 587 853 q 609 874 602 872 q 628 876 616 876 q 634 876 629 876 q 640 876 639 876 q 661 760 654 819 q 671 640 667 700 q 677 521 674 581 q 686 401 680 461 q 701 401 690 401 q 718 400 712 400 q 755 404 736 400 q 793 413 774 408 q 832 422 812 418 q 872 426 852 426 l 876 426 q 882 420 878 425 q 888 415 886 416 q 862 391 880 400 q 821 377 844 382 q 774 367 799 372 q 731 356 750 362 q 699 342 712 350 q 686 319 686 334 q 690 264 686 292 q 698 210 693 237 q 707 154 703 182 q 711 98 711 126 q 710 79 711 91 q 707 54 709 66 q 699 33 705 42 q 681 23 693 23 q 656 43 667 23 q 639 95 646 64 q 627 163 632 126 q 619 235 623 201 q 612 296 616 270 q 604 331 608 323 q 564 334 593 332 q 503 337 534 335 q 442 341 471 339 q 403 343 414 343 l 389 343 q 338 318 362 343 q 295 254 315 293 q 256 172 275 216 q 220 89 237 127 q 183 24 202 50 q 142 -1 164 -1 q 123 10 127 -1 q 118 35 118 22 m 391 401 q 417 391 401 395 q 449 388 433 388 q 479 388 465 388 q 505 388 494 388 q 518 389 510 388 q 534 389 526 389 q 549 390 543 389 q 556 391 555 391 l 568 401 q 559 426 571 404 q 528 471 547 448 q 492 515 510 495 q 468 534 475 534 q 465 533 467 534 q 461 532 464 532 q 423 469 441 502 q 391 401 406 437 m 83 553 q 107 492 83 518 q 167 448 132 465 q 241 422 202 430 q 311 414 281 414 q 350 433 330 414 q 387 479 370 453 q 416 532 404 505 q 427 574 427 559 q 406 604 427 590 q 355 629 384 618 q 297 646 326 640 q 255 652 269 652 q 205 646 235 652 q 149 628 176 640 q 102 597 121 616 q 83 553 83 579 m 509 598 q 522 555 509 581 q 555 505 536 529 q 595 463 574 480 q 632 445 616 445 q 631 465 632 452 q 630 495 631 479 q 629 525 629 511 q 628 545 628 538 q 622 595 625 564 q 615 656 618 627 q 608 709 612 686 q 604 734 605 732 l 591 757 q 585 751 590 755 q 579 746 581 747 q 566 720 575 738 q 545 681 556 701 q 524 642 533 661 q 510 616 514 623 q 509 606 510 613 q 509 598 509 600 m 476 960 q 482 987 476 974 q 506 1001 488 1001 q 535 990 522 1001 q 548 964 548 979 q 536 937 548 945 q 507 928 524 928 q 483 935 490 928 q 476 960 476 941 m 670 960 q 677 987 670 974 q 701 1001 684 1001 q 730 990 716 1001 q 743 964 743 979 q 730 937 743 945 q 703 928 718 928 q 677 935 684 928 q 670 960 670 941 z "},"":{"ha":911,"x_min":23,"x_max":888,"o":"m 506 860 q 506 876 506 864 q 506 892 506 888 q 513 946 506 917 q 540 1000 521 975 q 589 1040 559 1024 q 667 1057 620 1057 q 699 1048 688 1057 q 713 1029 709 1040 q 718 1004 718 1017 l 718 982 q 711 934 718 959 q 688 888 705 909 q 644 854 671 868 q 661 758 655 807 q 671 640 667 700 q 677 521 674 581 q 686 401 680 461 q 701 401 690 401 q 718 400 712 400 q 755 404 736 400 q 793 413 774 408 q 832 422 812 418 q 872 426 852 426 l 876 426 q 882 420 878 425 l 888 415 q 862 391 880 400 q 821 377 844 382 q 774 367 799 372 q 731 356 750 362 q 699 342 712 350 q 686 319 686 334 q 690 264 686 292 q 698 210 693 237 q 707 154 703 182 q 711 98 711 126 q 710 79 711 91 q 707 54 709 66 q 699 33 705 42 q 681 23 693 23 q 656 43 667 23 q 639 95 646 64 q 627 163 632 126 q 619 235 623 201 q 612 296 616 270 q 604 331 608 323 q 564 334 593 332 q 503 337 534 335 q 442 341 471 339 q 403 343 414 343 l 389 343 q 338 318 362 343 q 295 254 315 293 q 256 172 275 216 q 220 89 237 127 q 183 24 202 50 q 142 -1 164 -1 q 123 10 127 -1 q 118 35 118 22 q 119 42 118 38 q 119 46 119 46 q 162 122 140 85 q 208 195 184 159 q 254 268 232 231 q 296 343 277 305 q 269 365 290 355 q 216 385 247 374 q 152 410 186 396 q 90 444 118 425 q 42 490 61 464 q 23 552 23 517 q 47 616 23 589 q 107 663 72 644 q 182 690 142 681 q 250 700 221 700 q 355 680 309 700 q 449 627 400 659 q 477 654 465 639 q 498 686 488 669 q 516 721 502 696 q 545 774 530 746 q 572 827 559 803 q 579 840 576 834 l 574 840 q 535 844 548 840 q 506 860 522 848 m 83 553 q 107 492 83 518 q 167 448 132 465 q 241 422 202 430 q 311 414 281 414 q 350 433 330 414 q 387 479 370 453 q 416 532 404 505 q 427 574 427 559 q 406 604 427 590 q 355 629 384 618 q 297 646 326 640 q 255 652 269 652 q 205 646 235 652 q 149 628 176 640 q 102 597 121 616 q 83 553 83 579 m 509 598 q 522 555 509 581 q 555 505 536 529 q 595 463 574 480 q 632 445 616 445 q 631 465 632 452 q 630 495 631 479 q 629 525 629 511 q 628 545 628 538 q 622 595 625 564 q 615 656 618 627 q 608 709 612 686 q 604 734 605 732 l 591 757 q 585 751 590 755 q 579 746 581 747 q 566 720 575 738 q 545 681 556 701 q 524 642 533 661 q 510 616 514 623 q 509 606 510 613 q 509 598 509 600 m 537 871 q 556 865 545 865 l 594 865 q 609 874 602 872 q 628 876 616 876 q 631 876 628 876 l 632 876 q 666 905 654 888 q 683 943 678 922 q 688 982 688 963 q 688 1000 688 990 q 686 1018 689 1009 q 675 1032 684 1027 q 650 1038 667 1038 q 642 1019 650 1023 q 623 1014 635 1015 q 600 1010 612 1013 q 576 994 587 1008 q 550 944 563 968 q 537 892 537 920 l 537 871 m 391 401 q 417 391 401 395 q 449 388 433 388 q 479 388 465 388 q 505 388 494 388 q 518 389 510 388 q 534 389 526 389 q 549 390 543 389 q 556 391 555 391 l 568 401 q 559 426 571 404 q 528 471 547 448 q 492 515 510 495 q 468 534 475 534 q 465 533 467 534 q 461 532 464 532 q 423 469 441 502 q 391 401 406 437 z "},"":{"ha":1348,"x_min":23,"x_max":1320,"o":"m 118 35 q 119 42 118 38 q 119 46 119 46 q 162 122 140 85 q 208 195 184 159 q 254 268 232 231 q 296 343 277 305 q 269 365 290 355 q 216 385 247 374 q 152 410 186 396 q 90 444 118 425 q 42 490 61 464 q 23 552 23 517 q 47 616 23 589 q 107 663 72 644 q 182 690 142 681 q 250 700 221 700 q 355 680 309 700 q 449 627 400 659 q 477 654 465 639 q 498 686 488 669 q 516 721 502 696 q 545 774 530 746 q 573 828 559 803 q 591 864 587 853 q 609 874 602 872 q 628 876 616 876 q 634 876 629 876 q 640 876 639 876 q 659 774 652 826 q 669 671 665 723 q 764 698 711 686 q 869 716 818 709 q 962 726 920 723 q 1028 730 1005 730 l 1059 730 q 1091 728 1072 730 q 1130 724 1111 726 q 1162 720 1149 722 l 1177 719 l 1190 707 l 1177 694 q 1061 689 1116 693 q 950 679 1005 685 q 840 663 895 673 q 727 636 784 652 q 724 625 726 633 q 721 607 723 616 q 718 589 719 598 q 715 576 716 581 l 715 567 q 716 555 715 563 q 718 543 718 548 q 718 534 718 537 q 937 545 829 534 q 1157 555 1046 555 l 1173 555 q 1187 553 1181 555 q 1198 545 1194 551 q 1202 528 1202 538 q 1171 509 1202 521 q 1095 484 1141 498 q 993 452 1048 469 q 888 415 937 434 q 850 386 876 396 q 791 370 823 376 q 761 345 772 357 q 750 321 750 334 l 750 319 q 750 316 750 317 q 757 311 751 315 q 762 304 762 307 q 764 302 762 302 l 764 300 l 765 298 l 764 296 q 762 293 762 294 l 750 281 q 744 268 749 277 q 739 258 739 259 q 755 181 739 213 q 796 130 770 149 q 857 100 822 110 q 929 91 891 91 q 1025 106 982 91 q 1107 146 1069 121 q 1179 207 1145 172 q 1248 281 1214 241 q 1253 288 1249 282 q 1260 302 1256 294 q 1267 317 1264 311 q 1271 328 1271 324 q 1272 334 1271 330 q 1272 342 1272 339 q 1267 355 1272 350 q 1256 361 1263 359 q 1242 364 1249 363 q 1226 365 1234 365 q 1244 391 1226 384 q 1278 399 1261 399 q 1309 385 1298 399 q 1320 351 1320 372 q 1299 275 1320 313 q 1246 200 1279 236 q 1171 134 1214 164 q 1084 81 1128 103 q 996 45 1039 58 q 917 31 952 31 q 831 45 867 31 q 769 85 795 60 q 726 143 743 110 q 697 217 709 176 q 706 157 701 187 q 711 98 711 127 q 710 79 711 91 q 707 54 709 66 q 699 33 705 42 q 681 23 693 23 q 656 43 667 23 q 639 95 646 64 q 627 163 632 126 q 619 235 623 201 q 612 296 616 270 q 604 331 608 323 l 403 343 l 389 343 q 338 318 362 343 q 295 254 315 293 q 256 172 275 216 q 220 89 237 127 q 183 24 202 50 q 142 -1 164 -1 q 123 10 127 -1 q 118 35 118 22 m 83 553 q 107 492 83 518 q 167 448 132 465 q 241 422 202 430 q 311 414 281 414 q 350 433 330 414 q 387 479 370 453 q 416 532 404 505 q 427 574 427 559 q 406 604 427 590 q 355 629 384 618 q 297 646 326 640 q 255 652 269 652 q 205 646 235 652 q 149 628 176 640 q 102 597 121 616 q 83 553 83 579 m 509 598 q 522 555 509 581 q 555 505 536 529 q 595 463 574 480 q 632 445 616 445 q 631 465 632 452 q 630 495 631 479 q 629 525 629 511 q 628 545 628 538 q 625 563 624 547 q 627 602 625 579 q 630 650 628 624 q 629 699 632 677 q 617 738 625 722 q 591 757 609 754 q 585 751 590 755 q 579 746 581 747 l 510 616 q 509 606 510 613 q 509 598 509 600 m 391 401 q 417 391 401 395 q 449 388 433 388 q 479 388 465 388 q 505 388 494 388 q 518 389 510 388 q 534 389 526 389 q 549 390 543 389 q 556 391 555 391 l 568 401 q 559 426 571 404 q 528 471 547 448 q 492 515 510 495 q 468 534 475 534 q 465 533 467 534 q 461 532 464 532 q 423 469 441 502 q 391 401 406 437 m 713 510 q 715 460 713 481 q 720 426 718 441 q 727 411 722 411 l 739 411 q 757 418 741 411 q 795 433 773 425 q 842 452 818 442 q 880 469 865 463 l 928 494 q 876 503 905 500 q 818 508 848 506 q 761 510 788 510 l 713 510 z "},"":{"ha":627,"x_min":34,"x_max":604,"o":"m 217 -205 l 217 -197 q 218 -184 217 -191 q 218 -171 218 -178 l 218 -164 q 230 -155 221 -160 q 243 -151 239 -149 q 262 -165 256 -153 q 279 -193 269 -178 q 313 -222 290 -208 q 382 -243 336 -236 q 405 -237 401 -247 q 408 -214 408 -227 q 387 -178 406 -191 q 342 -153 368 -164 q 290 -130 317 -141 q 245 -99 263 -118 q 222 -47 228 -80 q 229 5 220 -27 q 187 16 208 9 q 105 66 140 34 q 52 146 71 99 q 34 255 34 194 q 38 336 34 286 q 52 443 42 385 q 80 558 62 500 q 123 663 98 616 q 182 741 148 711 q 260 770 216 770 q 353 739 315 770 q 417 663 392 708 q 456 566 442 617 q 473 473 469 514 q 458 447 471 457 q 433 437 446 437 l 426 437 l 420 444 q 415 449 416 448 q 414 459 415 453 q 414 473 414 465 q 413 488 414 481 q 412 496 412 494 q 419 543 412 522 q 426 585 426 563 l 426 591 q 393 631 410 610 q 359 670 377 652 q 319 699 340 688 q 270 711 297 711 q 208 686 236 711 q 160 622 180 661 q 125 535 140 583 q 100 440 110 487 q 87 353 91 393 q 83 290 83 313 q 95 193 83 237 q 134 115 107 148 q 201 64 161 83 q 241 50 221 54 q 248 58 244 56 q 267 62 256 65 q 288 49 278 58 l 290 46 l 297 46 q 357 52 326 46 q 418 66 388 57 q 478 90 449 76 q 532 119 507 103 q 541 125 534 119 q 555 136 548 130 q 570 147 563 142 q 579 155 578 152 q 585 155 581 155 q 591 156 590 156 q 598 155 594 156 q 604 155 602 155 q 578 104 597 126 q 532 64 559 81 q 473 34 506 46 q 408 14 441 22 q 347 1 376 5 q 300 -1 320 0 q 278 -20 294 -12 q 292 -73 278 -54 q 327 -104 307 -92 q 372 -125 347 -117 q 417 -144 396 -133 q 452 -175 438 -156 q 467 -227 467 -194 q 460 -252 467 -239 q 444 -277 454 -266 q 421 -295 434 -288 q 396 -302 408 -302 q 324 -300 357 -302 q 268 -287 292 -297 q 231 -258 244 -277 q 217 -205 217 -239 z "},"":{"ha":792,"x_min":24,"x_max":758,"o":"m 119 250 q 92 269 100 259 q 83 296 83 278 q 86 312 83 305 q 94 325 90 319 q 103 338 99 331 q 107 354 107 345 q 108 392 107 370 q 106 436 109 414 q 96 478 103 458 q 71 510 88 498 q 83 520 75 511 q 95 532 92 529 l 95 534 q 95 536 95 534 q 95 538 95 537 q 86 563 95 556 q 66 572 77 570 q 42 578 54 575 q 24 591 30 581 q 73 627 39 612 q 150 653 107 642 q 239 673 193 665 q 331 687 286 681 q 411 695 376 693 q 467 697 446 697 l 498 697 q 530 695 510 697 q 568 691 549 693 q 602 688 587 689 q 616 686 616 686 l 628 675 l 616 662 q 389 646 498 658 q 165 604 279 635 q 163 593 164 601 q 159 575 161 585 q 156 557 157 566 q 155 545 155 548 q 155 536 155 543 q 155 524 155 530 q 156 511 156 517 q 156 502 156 506 q 376 512 267 502 q 595 522 484 522 q 612 522 604 522 q 626 520 620 522 q 636 512 632 518 q 640 495 640 506 q 607 476 640 488 q 524 448 574 464 q 414 414 473 433 q 305 374 355 395 q 222 332 255 354 q 189 290 189 311 l 189 286 q 189 285 189 286 q 195 279 190 283 q 201 271 201 274 q 202 270 201 270 l 202 267 q 203 266 202 266 q 203 265 203 266 q 202 263 202 264 q 201 260 201 262 q 195 254 201 259 q 189 250 190 250 q 182 236 187 245 q 178 225 178 227 q 193 149 178 180 q 235 97 209 117 q 295 68 260 77 q 368 58 330 58 q 464 73 420 58 q 545 114 507 88 q 618 174 583 140 q 686 250 652 209 q 691 256 688 250 q 699 271 694 263 q 706 286 703 278 q 709 296 709 293 q 710 302 709 297 q 711 309 711 307 q 706 322 711 317 q 694 330 701 327 q 680 333 688 332 q 665 334 673 334 q 682 359 665 353 q 718 366 700 366 q 748 353 738 366 q 758 319 758 339 q 738 242 758 281 q 685 168 718 203 q 610 101 652 132 q 522 48 567 71 q 434 12 477 26 q 355 -1 391 -1 q 256 18 296 -1 q 190 73 217 38 q 147 153 163 107 q 119 250 132 198 m 152 477 q 155 429 152 449 q 158 395 156 410 q 165 380 160 380 l 178 380 q 195 386 179 380 q 234 401 212 392 q 280 421 256 411 q 319 437 304 431 q 329 442 323 438 q 343 450 335 446 q 357 457 351 453 q 368 461 363 461 q 315 471 343 468 q 257 476 286 475 q 200 477 228 477 q 152 477 172 477 m 399 983 q 374 1006 389 991 q 345 1037 358 1020 q 328 1071 332 1054 q 336 1100 323 1088 q 354 1109 347 1109 q 372 1101 361 1109 q 405 1067 385 1086 q 433 1027 425 1047 l 491 943 q 465 931 479 929 q 440 942 452 933 q 418 963 429 951 q 399 983 407 975 z "},"":{"ha":792,"x_min":24,"x_max":758,"o":"m 119 250 q 92 269 100 259 q 83 296 83 278 q 86 312 83 305 q 94 325 90 319 q 103 338 99 331 q 107 354 107 345 q 108 392 107 370 q 106 436 109 414 q 96 478 103 458 q 71 510 88 498 q 83 520 75 511 q 95 532 92 529 l 95 534 q 95 536 95 534 q 95 538 95 537 q 86 563 95 556 q 66 572 77 570 q 42 578 54 575 q 24 591 30 581 q 73 627 39 612 q 150 653 107 642 q 239 673 193 665 q 331 687 286 681 q 411 695 376 693 q 467 697 446 697 l 498 697 q 530 695 510 697 q 568 691 549 693 q 602 688 587 689 q 616 686 616 686 l 628 675 l 616 662 q 389 646 498 658 q 165 604 279 635 q 163 593 164 601 q 159 575 161 585 q 156 557 157 566 q 155 545 155 548 q 155 536 155 543 q 155 524 155 530 q 156 511 156 517 q 156 502 156 506 q 376 512 267 502 q 595 522 484 522 q 612 522 604 522 q 626 520 620 522 q 636 512 632 518 q 640 495 640 506 q 607 476 640 488 q 524 448 574 464 q 414 414 473 433 q 305 374 355 395 q 222 332 255 354 q 189 290 189 311 l 189 286 q 189 285 189 286 q 195 279 190 283 q 201 271 201 274 q 202 270 201 270 l 202 267 q 203 266 202 266 q 203 265 203 266 q 202 263 202 264 q 201 260 201 262 q 195 254 201 259 q 189 250 190 250 q 182 236 187 245 q 178 225 178 227 q 193 149 178 180 q 235 97 209 117 q 295 68 260 77 q 368 58 330 58 q 464 73 420 58 q 545 114 507 88 q 618 174 583 140 q 686 250 652 209 q 691 256 688 250 q 699 271 694 263 q 706 286 703 278 q 709 296 709 293 q 710 302 709 297 q 711 309 711 307 q 706 322 711 317 q 694 330 701 327 q 680 333 688 332 q 665 334 673 334 q 682 359 665 353 q 718 366 700 366 q 748 353 738 366 q 758 319 758 339 q 738 242 758 281 q 685 168 718 203 q 610 101 652 132 q 522 48 567 71 q 434 12 477 26 q 355 -1 391 -1 q 256 18 296 -1 q 190 73 217 38 q 147 153 163 107 q 119 250 132 198 m 152 477 q 155 429 152 449 q 158 395 156 410 q 165 380 160 380 l 178 380 q 195 386 179 380 q 234 401 212 392 q 280 421 256 411 q 319 437 304 431 q 329 442 323 438 q 343 450 335 446 q 357 457 351 453 q 368 461 363 461 q 315 471 343 468 q 257 476 286 475 q 200 477 228 477 q 152 477 172 477 m 393 979 q 377 959 385 971 q 359 937 369 947 q 338 926 349 928 q 316 937 327 924 l 365 1021 q 387 1061 372 1042 q 416 1095 403 1081 q 445 1093 430 1114 q 452 1065 456 1081 q 437 1032 448 1048 q 413 1002 426 1016 q 393 979 400 987 z "},"":{"ha":792,"x_min":24,"x_max":758,"o":"m 119 250 q 92 269 100 259 q 83 296 83 278 q 86 312 83 305 q 94 325 90 319 q 103 338 99 331 q 107 354 107 345 q 108 392 107 370 q 106 436 109 414 q 96 478 103 458 q 71 510 88 498 q 83 520 75 511 q 95 532 92 529 l 95 534 q 95 536 95 534 q 95 538 95 537 q 86 563 95 556 q 66 572 77 570 q 42 578 54 575 q 24 591 30 581 q 73 627 39 612 q 150 653 107 642 q 239 673 193 665 q 331 687 286 681 q 411 695 376 693 q 467 697 446 697 l 498 697 q 530 695 510 697 q 568 691 549 693 q 602 688 587 689 q 616 686 616 686 l 628 675 l 616 662 q 389 646 498 658 q 165 604 279 635 q 163 593 164 601 q 159 575 161 585 q 156 557 157 566 q 155 545 155 548 q 155 536 155 543 q 155 524 155 530 q 156 511 156 517 q 156 502 156 506 q 376 512 267 502 q 595 522 484 522 q 612 522 604 522 q 626 520 620 522 q 636 512 632 518 q 640 495 640 506 q 607 476 640 488 q 524 448 574 464 q 414 414 473 433 q 305 374 355 395 q 222 332 255 354 q 189 290 189 311 l 189 286 q 189 285 189 286 q 195 279 190 283 q 201 271 201 274 q 202 270 201 270 l 202 267 q 203 266 202 266 q 203 265 203 266 q 202 263 202 264 q 201 260 201 262 q 195 254 201 259 q 189 250 190 250 q 182 236 187 245 q 178 225 178 227 q 193 149 178 180 q 235 97 209 117 q 295 68 260 77 q 368 58 330 58 q 464 73 420 58 q 545 114 507 88 q 618 174 583 140 q 686 250 652 209 q 691 256 688 250 q 699 271 694 263 q 706 286 703 278 q 709 296 709 293 q 710 302 709 297 q 711 309 711 307 q 706 322 711 317 q 694 330 701 327 q 680 333 688 332 q 665 334 673 334 q 682 359 665 353 q 718 366 700 366 q 748 353 738 366 q 758 319 758 339 q 738 242 758 281 q 685 168 718 203 q 610 101 652 132 q 522 48 567 71 q 434 12 477 26 q 355 -1 391 -1 q 256 18 296 -1 q 190 73 217 38 q 147 153 163 107 q 119 250 132 198 m 152 477 q 155 429 152 449 q 158 395 156 410 q 165 380 160 380 l 178 380 q 195 386 179 380 q 234 401 212 392 q 280 421 256 411 q 319 437 304 431 q 329 442 323 438 q 343 450 335 446 q 357 457 351 453 q 368 461 363 461 q 315 471 343 468 q 257 476 286 475 q 200 477 228 477 q 152 477 172 477 m 452 1053 q 443 1044 449 1053 q 429 1026 437 1036 q 414 1007 420 1016 q 408 997 408 998 q 355 941 373 955 q 331 931 336 926 q 330 955 326 936 q 344 999 334 974 q 368 1052 354 1024 q 394 1101 381 1080 q 417 1135 407 1123 q 430 1138 427 1146 q 449 1156 437 1150 q 472 1162 461 1162 l 477 1162 q 502 1101 494 1122 q 514 1072 510 1081 q 522 1060 518 1063 q 530 1046 526 1057 q 543 1014 534 1036 q 568 947 552 991 q 535 920 548 926 q 513 919 522 914 q 498 937 505 924 q 486 970 492 951 q 472 1010 480 989 q 452 1053 464 1032 z "},"":{"ha":792,"x_min":24,"x_max":758,"o":"m 119 250 q 92 269 100 259 q 83 296 83 278 q 86 312 83 305 q 94 325 90 319 q 103 338 99 331 q 107 354 107 345 q 108 392 107 370 q 106 436 109 414 q 96 478 103 458 q 71 510 88 498 q 83 520 75 511 q 95 532 92 529 l 95 534 q 95 536 95 534 q 95 538 95 537 q 86 563 95 556 q 66 572 77 570 q 42 578 54 575 q 24 591 30 581 q 73 627 39 612 q 150 653 107 642 q 239 673 193 665 q 331 687 286 681 q 411 695 376 693 q 467 697 446 697 l 498 697 q 530 695 510 697 q 568 691 549 693 q 602 688 587 689 q 616 686 616 686 l 628 675 l 616 662 q 389 646 498 658 q 165 604 279 635 q 163 593 164 601 q 159 575 161 585 q 156 557 157 566 q 155 545 155 548 q 155 536 155 543 q 155 524 155 530 q 156 511 156 517 q 156 502 156 506 q 376 512 267 502 q 595 522 484 522 q 612 522 604 522 q 626 520 620 522 q 636 512 632 518 q 640 495 640 506 q 607 476 640 488 q 524 448 574 464 q 414 414 473 433 q 305 374 355 395 q 222 332 255 354 q 189 290 189 311 l 189 286 q 189 285 189 286 q 195 279 190 283 q 201 271 201 274 q 202 270 201 270 l 202 267 q 203 266 202 266 q 203 265 203 266 q 202 263 202 264 q 201 260 201 262 q 195 254 201 259 q 189 250 190 250 q 182 236 187 245 q 178 225 178 227 q 193 149 178 180 q 235 97 209 117 q 295 68 260 77 q 368 58 330 58 q 464 73 420 58 q 545 114 507 88 q 618 174 583 140 q 686 250 652 209 q 691 256 688 250 q 699 271 694 263 q 706 286 703 278 q 709 296 709 293 q 710 302 709 297 q 711 309 711 307 q 706 322 711 317 q 694 330 701 327 q 680 333 688 332 q 665 334 673 334 q 682 359 665 353 q 718 366 700 366 q 748 353 738 366 q 758 319 758 339 q 738 242 758 281 q 685 168 718 203 q 610 101 652 132 q 522 48 567 71 q 434 12 477 26 q 355 -1 391 -1 q 256 18 296 -1 q 190 73 217 38 q 147 153 163 107 q 119 250 132 198 m 152 477 q 155 429 152 449 q 158 395 156 410 q 165 380 160 380 l 178 380 q 195 386 179 380 q 234 401 212 392 q 280 421 256 411 q 319 437 304 431 q 329 442 323 438 q 343 450 335 446 q 357 457 351 453 q 368 461 363 461 q 315 471 343 468 q 257 476 286 475 q 200 477 228 477 q 152 477 172 477 m 262 949 q 268 977 262 963 q 292 990 274 990 q 321 979 308 990 q 334 954 334 968 q 321 926 334 935 q 293 917 309 917 q 269 924 275 917 q 262 949 262 930 m 456 949 q 463 977 456 963 q 487 990 469 990 q 515 979 502 990 q 529 954 529 968 q 516 926 529 935 q 488 917 503 917 q 463 924 469 917 q 456 949 456 930 z "},"":{"ha":176,"x_min":18,"x_max":182,"o":"m 47 225 q 31 477 38 355 q 23 728 23 600 q 23 741 23 731 q 24 760 23 750 q 24 780 24 770 q 24 792 24 789 q 34 816 26 802 q 53 830 42 830 q 68 822 62 830 q 77 803 75 814 q 81 783 80 792 q 83 770 83 773 q 86 737 84 760 q 90 690 88 715 q 93 644 91 666 q 95 616 95 623 q 95 579 95 606 q 95 515 95 552 q 95 437 95 479 q 95 359 95 396 q 95 296 95 323 q 95 260 95 270 q 105 192 95 225 q 126 125 115 159 q 146 59 137 92 q 156 -8 156 26 q 125 7 140 -8 q 100 44 111 22 q 79 94 88 66 q 64 146 71 121 q 53 193 57 172 q 47 225 49 214 m 90 983 q 64 1006 80 991 q 36 1037 49 1020 q 18 1071 23 1054 q 27 1100 14 1088 q 45 1109 38 1109 q 62 1101 52 1109 q 96 1067 76 1086 q 123 1027 115 1047 l 182 943 q 156 931 170 929 q 131 942 142 933 q 109 963 119 951 q 90 983 98 975 z "},"":{"ha":176,"x_min":12,"x_max":156,"o":"m 47 225 q 31 477 38 355 q 23 728 23 600 q 23 741 23 731 q 24 760 23 750 q 24 780 24 770 q 24 792 24 789 q 34 816 26 802 q 53 830 42 830 q 68 822 62 830 q 77 803 75 814 q 81 783 80 792 q 83 770 83 773 q 86 737 84 760 q 90 690 88 715 q 93 644 91 666 q 95 616 95 623 q 95 579 95 606 q 95 515 95 552 q 95 437 95 479 q 95 359 95 396 q 95 296 95 323 q 95 260 95 270 q 105 192 95 225 q 126 125 115 159 q 146 59 137 92 q 156 -8 156 26 q 125 7 140 -8 q 100 44 111 22 q 79 94 88 66 q 64 146 71 121 q 53 193 57 172 q 47 225 49 214 m 90 979 q 73 959 81 971 q 55 937 65 947 q 34 926 45 928 q 12 937 23 924 l 61 1021 q 83 1061 68 1042 q 113 1095 99 1081 q 141 1093 126 1114 q 148 1065 152 1081 q 133 1032 144 1048 q 109 1002 122 1016 q 90 979 96 987 z "},"":{"ha":176,"x_min":23,"x_max":263,"o":"m 47 225 q 31 477 38 355 q 23 728 23 600 q 23 741 23 731 q 24 760 23 750 q 24 780 24 770 q 24 792 24 789 q 34 816 26 802 q 53 830 42 830 q 68 822 62 830 q 77 803 75 814 q 81 783 80 792 q 83 770 83 773 q 86 737 84 760 q 90 690 88 715 q 93 644 91 666 q 95 616 95 623 q 95 579 95 606 q 95 515 95 552 q 95 437 95 479 q 95 359 95 396 q 95 296 95 323 q 95 260 95 270 q 105 192 95 225 q 126 125 115 159 q 146 59 137 92 q 156 -8 156 26 q 125 7 140 -8 q 100 44 111 22 q 79 94 88 66 q 64 146 71 121 q 53 193 57 172 q 47 225 49 214 m 146 1053 q 138 1044 144 1053 q 123 1026 132 1036 q 109 1007 115 1016 q 103 997 103 998 q 50 941 68 955 q 26 931 31 926 q 24 955 20 936 q 39 999 28 974 q 62 1052 49 1024 q 89 1101 76 1080 q 112 1135 102 1123 q 125 1138 122 1146 q 144 1156 132 1150 q 167 1162 156 1162 l 172 1162 q 197 1101 189 1122 q 209 1072 205 1081 q 217 1060 213 1063 q 225 1046 221 1057 q 238 1014 229 1036 q 263 947 247 991 q 230 920 243 926 q 208 919 217 914 q 193 937 199 924 q 181 970 187 951 q 167 1010 175 989 q 146 1053 159 1032 z "},"":{"ha":176,"x_min":-42,"x_max":225,"o":"m 47 225 q 31 477 38 355 q 23 728 23 600 q 23 741 23 731 q 24 760 23 750 q 24 780 24 770 q 24 792 24 789 q 34 816 26 802 q 53 830 42 830 q 68 822 62 830 q 77 803 75 814 q 81 783 80 792 q 83 770 83 773 q 86 737 84 760 q 90 690 88 715 q 93 644 91 666 q 95 616 95 623 q 95 579 95 606 q 95 515 95 552 q 95 437 95 479 q 95 359 95 396 q 95 296 95 323 q 95 260 95 270 q 105 192 95 225 q 126 125 115 159 q 146 59 137 92 q 156 -8 156 26 q 125 7 140 -8 q 100 44 111 22 q 79 94 88 66 q 64 146 71 121 q 53 193 57 172 q 47 225 49 214 m -42 949 q -36 977 -42 963 q -12 990 -30 990 q 17 979 4 990 q 30 954 30 968 q 18 926 30 935 q -11 917 5 917 q -35 924 -28 917 q -42 949 -42 930 m 152 949 q 159 977 152 963 q 183 990 165 990 q 212 979 198 990 q 225 954 225 968 q 212 926 225 935 q 184 917 199 917 q 159 924 165 917 q 152 949 152 930 z "},"":{"ha":697,"x_min":18,"x_max":665,"o":"m 18 391 q 22 412 18 404 q 42 426 27 419 q 60 427 49 426 q 85 428 71 427 q 115 429 99 429 l 148 431 l 148 442 q 148 467 148 445 q 146 519 148 488 q 144 587 145 551 q 144 656 144 624 q 143 709 144 688 q 142 734 142 731 q 144 753 142 739 q 146 781 145 766 q 150 810 148 796 q 155 827 152 823 q 186 849 175 845 q 217 853 197 853 q 330 832 274 853 q 435 774 385 811 q 527 689 486 738 q 599 586 568 640 q 647 474 629 532 q 665 363 665 416 q 640 237 665 302 q 571 119 614 172 q 470 33 528 66 q 347 -1 412 -1 q 311 1 328 -1 q 275 7 293 4 q 238 12 256 9 q 201 11 220 14 q 170 35 193 18 q 123 71 148 52 q 77 107 99 91 q 47 130 56 123 q 28 147 35 140 q 20 172 20 155 q 56 162 41 172 q 85 140 71 152 q 115 119 99 129 q 151 110 130 110 q 155 201 155 161 q 153 272 155 241 q 149 324 152 302 q 146 363 146 346 q 117 364 134 363 q 79 365 100 365 l 68 365 q 54 366 62 365 q 39 366 46 366 l 30 366 q 19 378 20 372 q 18 391 18 384 m 189 761 q 189 703 189 742 q 189 616 189 663 q 190 519 189 568 q 197 434 191 471 l 220 437 q 254 439 241 441 q 278 435 267 437 q 302 431 289 433 q 338 435 315 430 l 343 435 q 368 427 353 435 q 384 406 384 419 q 381 378 384 392 q 361 363 378 363 q 340 370 349 363 q 319 377 331 377 l 313 377 q 244 361 266 366 q 210 357 222 357 l 237 71 q 241 64 237 69 q 250 58 245 60 q 261 54 252 57 q 281 46 270 50 q 304 39 293 42 q 319 35 315 37 l 327 35 q 396 52 361 35 q 464 96 431 69 q 524 159 496 123 q 571 233 551 195 q 604 309 591 271 q 616 380 616 347 q 600 465 616 419 q 555 557 583 511 q 491 646 528 604 q 413 722 454 689 q 329 774 372 754 q 245 793 286 793 q 227 793 236 793 q 209 789 217 792 q 195 780 201 787 q 189 761 189 773 z "},"":{"ha":781,"x_min":34,"x_max":746,"o":"m 155 532 q 151 509 155 532 q 144 453 148 486 q 137 387 141 420 q 130 331 133 354 l 130 319 q 123 275 127 307 q 113 207 118 243 q 102 139 107 171 q 95 95 96 107 q 79 68 91 79 q 52 58 68 58 q 40 64 43 58 q 35 80 37 71 q 34 98 34 90 q 34 111 34 107 q 41 264 34 184 q 60 423 47 343 q 90 582 72 503 q 130 734 107 661 q 136 743 132 741 q 147 746 141 746 q 159 746 153 746 q 168 746 165 746 q 174 746 171 746 q 180 746 178 746 l 189 746 q 191 740 189 746 q 195 726 193 734 q 199 710 197 718 q 201 697 201 703 q 225 600 209 661 q 267 467 241 538 q 323 323 292 396 q 394 191 355 250 q 476 95 433 132 q 567 58 519 58 q 609 75 590 58 q 642 117 628 91 q 667 176 656 144 q 684 239 677 209 q 695 296 692 270 q 699 336 699 323 q 676 545 699 444 q 616 746 654 646 q 591 766 608 757 q 567 781 575 776 q 578 792 571 791 q 593 793 585 793 q 640 762 618 793 q 677 684 661 731 q 708 579 694 636 q 730 469 722 522 q 742 374 738 416 q 746 317 746 332 q 739 219 746 274 q 711 115 731 164 q 654 33 690 66 q 562 -1 618 -1 q 466 32 510 -1 q 385 117 422 65 q 315 234 347 170 q 256 360 283 298 q 207 474 229 422 q 165 556 184 526 l 155 532 m 609 1057 q 608 1012 610 1040 q 599 954 605 983 q 585 901 593 924 q 567 878 576 879 q 522 899 545 882 q 473 939 498 917 q 424 985 449 962 q 374 1024 399 1008 q 326 1044 350 1040 q 278 1035 301 1048 q 245 949 263 979 q 216 924 227 920 q 210 967 206 928 q 243 1088 214 1006 q 305 1111 274 1112 q 366 1094 336 1109 q 421 1053 395 1078 q 471 1004 448 1028 q 515 961 495 979 q 553 943 536 943 q 559 958 556 943 q 565 994 563 974 q 568 1035 567 1015 q 567 1066 568 1055 l 609 1057 z "},"":{"ha":640,"x_min":23,"x_max":605,"o":"m 23 231 q 32 319 23 270 q 58 417 41 368 q 101 513 75 467 q 162 595 127 559 q 239 654 197 632 q 331 675 281 675 q 411 656 374 675 q 478 606 448 636 q 532 534 509 575 q 571 451 555 494 q 596 367 587 408 q 605 292 605 326 q 589 203 605 244 q 545 130 572 163 q 479 73 517 98 q 400 32 442 49 q 314 7 358 15 q 227 -1 270 -1 q 130 15 168 -1 q 67 62 91 31 q 33 135 43 92 q 23 231 23 178 m 71 201 q 83 135 71 163 q 117 90 95 107 q 168 66 138 73 q 235 58 198 58 q 350 71 292 58 q 454 113 408 84 q 530 188 500 142 q 559 298 559 233 q 543 396 559 339 q 499 505 528 453 q 429 592 471 556 q 338 628 388 628 q 299 626 315 628 q 260 616 283 624 l 260 609 l 260 604 q 262 597 260 602 q 267 585 264 591 q 271 574 270 579 q 273 567 273 568 q 266 549 273 555 q 250 540 259 543 q 231 536 241 537 q 213 532 221 534 q 140 475 168 513 q 97 390 113 437 q 76 293 81 343 q 71 201 71 243 m 332 791 q 307 813 323 799 q 279 844 292 827 q 261 878 266 861 q 270 907 256 895 q 288 917 281 917 q 305 909 294 917 q 338 874 319 894 q 366 834 358 854 l 425 750 q 399 739 412 736 q 374 749 385 741 q 351 770 362 758 q 332 791 340 783 z "},"":{"ha":640,"x_min":23,"x_max":605,"o":"m 23 231 q 32 319 23 270 q 58 417 41 368 q 101 513 75 467 q 162 595 127 559 q 239 654 197 632 q 331 675 281 675 q 411 656 374 675 q 478 606 448 636 q 532 534 509 575 q 571 451 555 494 q 596 367 587 408 q 605 292 605 326 q 589 203 605 244 q 545 130 572 163 q 479 73 517 98 q 400 32 442 49 q 314 7 358 15 q 227 -1 270 -1 q 130 15 168 -1 q 67 62 91 31 q 33 135 43 92 q 23 231 23 178 m 71 201 q 83 135 71 163 q 117 90 95 107 q 168 66 138 73 q 235 58 198 58 q 350 71 292 58 q 454 113 408 84 q 530 188 500 142 q 559 298 559 233 q 543 396 559 339 q 499 505 528 453 q 429 592 471 556 q 338 628 388 628 q 299 626 315 628 q 260 616 283 624 l 260 609 l 260 604 q 262 597 260 602 q 267 585 264 591 q 271 574 270 579 q 273 567 273 568 q 266 549 273 555 q 250 540 259 543 q 231 536 241 537 q 213 532 221 534 q 140 475 168 513 q 97 390 113 437 q 76 293 81 343 q 71 201 71 243 m 296 798 q 279 777 288 789 q 261 755 271 765 q 240 744 251 746 q 218 755 229 742 l 267 840 q 290 880 274 860 q 319 913 305 899 q 347 911 332 932 q 354 883 358 899 q 339 850 350 867 q 315 820 328 834 q 296 798 302 806 z "},"":{"ha":640,"x_min":23,"x_max":605,"o":"m 23 231 q 32 319 23 270 q 58 417 41 368 q 101 513 75 467 q 162 595 127 559 q 239 654 197 632 q 331 675 281 675 q 411 656 374 675 q 478 606 448 636 q 532 534 509 575 q 571 451 555 494 q 596 367 587 408 q 605 292 605 326 q 589 203 605 244 q 545 130 572 163 q 479 73 517 98 q 400 32 442 49 q 314 7 358 15 q 227 -1 270 -1 q 130 15 168 -1 q 67 62 91 31 q 33 135 43 92 q 23 231 23 178 m 71 201 q 83 135 71 163 q 117 90 95 107 q 168 66 138 73 q 235 58 198 58 q 350 71 292 58 q 454 113 408 84 q 530 188 500 142 q 559 298 559 233 q 543 396 559 339 q 499 505 528 453 q 429 592 471 556 q 338 628 388 628 q 299 626 315 628 q 260 616 283 624 l 260 609 l 260 604 q 262 597 260 602 q 267 585 264 591 q 271 574 270 579 q 273 567 273 568 q 266 549 273 555 q 250 540 259 543 q 231 536 241 537 q 213 532 221 534 q 140 475 168 513 q 97 390 113 437 q 76 293 81 343 q 71 201 71 243 m 332 878 q 323 869 330 878 q 309 851 317 861 q 295 832 301 841 q 289 822 289 823 q 235 766 254 780 q 212 756 217 751 q 210 780 206 761 q 224 824 214 799 q 248 877 235 849 q 275 926 262 905 q 298 960 288 948 q 311 963 308 971 q 330 981 317 975 q 353 987 342 987 l 358 987 q 382 926 374 947 q 395 897 391 906 q 403 885 399 888 q 411 871 407 882 q 424 839 415 861 q 449 772 433 817 q 416 745 429 751 q 394 744 403 739 q 379 762 385 749 q 367 795 373 776 q 353 836 361 814 q 332 878 345 857 z "},"":{"ha":640,"x_min":23,"x_max":605,"o":"m 23 231 q 32 319 23 270 q 58 417 41 368 q 101 513 75 467 q 162 595 127 559 q 239 654 197 632 q 331 675 281 675 q 411 656 374 675 q 478 606 448 636 q 532 534 509 575 q 571 451 555 494 q 596 367 587 408 q 605 292 605 326 q 589 203 605 244 q 545 130 572 163 q 479 73 517 98 q 400 32 442 49 q 314 7 358 15 q 227 -1 270 -1 q 130 15 168 -1 q 67 62 91 31 q 33 135 43 92 q 23 231 23 178 m 71 201 q 83 135 71 163 q 117 90 95 107 q 168 66 138 73 q 235 58 198 58 q 350 71 292 58 q 454 113 408 84 q 530 188 500 142 q 559 298 559 233 q 543 396 559 339 q 499 505 528 453 q 429 592 471 556 q 338 628 388 628 q 299 626 315 628 q 260 616 283 624 l 260 609 l 260 604 q 262 597 260 602 q 267 585 264 591 q 271 574 270 579 q 273 567 273 568 q 266 549 273 555 q 250 540 259 543 q 231 536 241 537 q 213 532 221 534 q 140 475 168 513 q 97 390 113 437 q 76 293 81 343 q 71 201 71 243 m 521 849 q 519 804 522 833 q 511 746 517 776 q 496 694 505 716 q 479 670 488 671 q 433 692 457 674 q 385 732 410 709 q 336 777 361 754 q 286 817 311 800 q 237 837 262 833 q 190 827 213 841 q 157 742 175 772 q 128 716 138 712 q 122 760 118 720 q 155 880 126 799 q 217 903 186 905 q 277 886 248 902 q 333 846 307 871 q 383 796 359 821 q 427 753 407 772 q 465 735 448 735 q 471 751 468 735 q 477 787 475 766 q 479 827 479 807 q 479 859 480 848 l 521 849 z "},"":{"ha":640,"x_min":23,"x_max":605,"o":"m 23 231 q 32 319 23 270 q 58 417 41 368 q 101 513 75 467 q 162 595 127 559 q 239 654 197 632 q 331 675 281 675 q 411 656 374 675 q 478 606 448 636 q 532 534 509 575 q 571 451 555 494 q 596 367 587 408 q 605 292 605 326 q 589 203 605 244 q 545 130 572 163 q 479 73 517 98 q 400 32 442 49 q 314 7 358 15 q 227 -1 270 -1 q 130 15 168 -1 q 67 62 91 31 q 33 135 43 92 q 23 231 23 178 m 71 201 q 83 135 71 163 q 117 90 95 107 q 168 66 138 73 q 235 58 198 58 q 350 71 292 58 q 454 113 408 84 q 530 188 500 142 q 559 298 559 233 q 543 396 559 339 q 499 505 528 453 q 429 592 471 556 q 338 628 388 628 q 299 626 315 628 q 260 616 283 624 l 260 609 l 260 604 q 262 597 260 602 q 267 585 264 591 q 271 574 270 579 q 273 567 273 568 q 266 549 273 555 q 250 540 259 543 q 231 536 241 537 q 213 532 221 534 q 140 475 168 513 q 97 390 113 437 q 76 293 81 343 q 71 201 71 243 m 186 753 q 192 780 186 766 q 216 793 198 793 q 245 783 232 793 q 258 757 258 772 q 245 729 258 738 q 217 720 233 720 q 193 727 199 720 q 186 753 186 734 m 380 753 q 387 780 380 766 q 411 793 393 793 q 439 783 426 793 q 453 757 453 772 q 440 729 453 738 q 412 720 427 720 q 387 727 393 720 q 380 753 380 734 z "},"":{"ha":444,"x_min":57,"x_max":433,"o":"m 193 279 q 142 222 164 254 q 100 156 121 190 q 78 156 92 153 q 58 164 64 159 q 57 171 57 165 q 58 179 57 176 q 77 208 64 187 q 105 251 91 228 q 132 294 119 274 q 151 321 145 313 q 156 333 152 323 q 160 347 160 343 q 137 369 149 355 q 117 398 125 382 q 106 431 109 414 q 111 465 103 448 l 130 469 l 206 392 l 307 492 q 310 475 313 486 q 302 457 307 464 q 290 437 298 450 q 273 410 282 425 q 256 381 264 395 q 244 363 247 368 q 272 321 262 336 q 302 289 282 307 q 366 234 331 259 q 433 179 401 209 q 402 163 419 167 q 370 172 385 159 l 210 297 q 203 290 208 294 l 193 279 z "},"":{"ha":640,"x_min":23,"x_max":605,"o":"m 99 -77 q 123 18 111 -28 q 66 62 90 34 q 33 135 43 92 q 23 231 23 178 q 32 319 23 270 q 58 417 41 368 q 101 513 75 467 q 162 595 127 559 q 239 654 197 632 q 331 675 281 675 q 411 656 374 675 l 415 654 l 425 673 l 494 735 l 515 735 q 507 697 515 718 q 486 652 499 677 q 465 617 477 636 l 477 605 q 532 534 509 575 q 571 451 555 494 q 596 367 587 408 q 605 292 605 326 q 589 203 605 244 q 545 130 572 163 q 479 73 517 98 q 400 32 442 49 q 314 7 358 15 q 227 -1 270 -1 q 157 5 189 -1 l 138 -41 l 138 -52 q 137 -71 138 -61 q 132 -91 136 -81 q 119 -104 127 -100 l 118 -104 l 111 -104 q 110 -104 111 -104 q 105 -96 109 -102 q 99 -85 102 -90 l 99 -77 m 235 58 q 350 71 292 58 q 454 113 408 84 q 530 188 500 142 q 559 298 559 233 q 543 396 559 339 q 499 505 528 453 q 441 581 475 548 q 425 557 433 568 q 396 513 410 534 q 376 477 382 492 q 251 220 311 349 q 180 62 216 141 q 235 58 206 58 m 71 201 q 83 135 71 163 q 115 91 95 107 q 141 75 127 81 q 168 137 153 106 l 396 614 q 338 628 368 628 q 299 626 315 628 q 260 616 283 624 l 260 604 q 262 597 260 602 q 267 585 264 591 q 271 574 270 579 q 273 567 273 568 q 266 549 273 555 q 250 540 259 543 q 231 536 241 537 q 213 532 221 534 q 140 475 168 513 q 97 390 113 437 q 76 293 81 343 q 71 201 71 243 z "},"":{"ha":532,"x_min":24,"x_max":498,"o":"m 53 605 q 66 599 60 605 q 75 585 72 593 q 81 568 79 576 q 83 556 83 560 l 83 250 q 95 185 83 218 q 127 123 107 152 q 175 77 148 95 q 235 58 202 58 q 309 79 277 58 q 367 132 342 99 q 410 207 392 164 q 440 292 429 250 q 456 376 452 335 q 461 449 461 416 q 461 489 461 461 q 458 551 461 517 q 449 623 454 586 q 433 688 444 659 q 406 733 422 716 q 368 746 391 750 q 366 748 368 746 q 365 751 365 750 q 378 774 365 766 q 403 783 391 783 q 434 770 420 783 q 458 740 448 758 q 476 698 469 722 q 488 652 483 674 q 494 610 492 629 q 498 579 496 591 q 498 562 498 578 q 498 526 498 547 q 498 484 498 506 q 498 449 498 463 q 498 422 498 441 q 498 384 498 404 q 498 345 498 363 q 498 319 498 327 q 465 216 486 271 q 413 112 445 160 q 336 32 381 64 q 231 0 292 0 q 149 24 187 0 q 83 84 111 47 q 40 165 56 121 q 24 250 24 209 l 24 579 q 33 591 24 582 q 47 604 42 600 l 50 604 q 51 604 50 604 q 53 605 52 605 m 269 983 q 243 1006 259 991 q 215 1037 228 1020 q 197 1071 202 1054 q 206 1100 193 1088 q 224 1109 217 1109 q 241 1101 231 1109 q 275 1067 255 1086 q 302 1027 294 1047 l 361 943 q 335 931 349 929 q 310 942 321 933 q 288 963 298 951 q 269 983 277 975 z "},"":{"ha":532,"x_min":24,"x_max":498,"o":"m 53 605 q 66 599 60 605 q 75 585 72 593 q 81 568 79 576 q 83 556 83 560 l 83 250 q 95 185 83 218 q 127 123 107 152 q 175 77 148 95 q 235 58 202 58 q 309 79 277 58 q 367 132 342 99 q 410 207 392 164 q 440 292 429 250 q 456 376 452 335 q 461 449 461 416 q 461 489 461 461 q 458 551 461 517 q 449 623 454 586 q 433 688 444 659 q 406 733 422 716 q 368 746 391 750 q 366 748 368 746 q 365 751 365 750 q 378 774 365 766 q 403 783 391 783 q 434 770 420 783 q 458 740 448 758 q 476 698 469 722 q 488 652 483 674 q 494 610 492 629 q 498 579 496 591 q 498 562 498 578 q 498 526 498 547 q 498 484 498 506 q 498 449 498 463 q 498 422 498 441 q 498 384 498 404 q 498 345 498 363 q 498 319 498 327 q 465 216 486 271 q 413 112 445 160 q 336 32 381 64 q 231 0 292 0 q 149 24 187 0 q 83 84 111 47 q 40 165 56 121 q 24 250 24 209 l 24 579 q 33 591 24 582 q 47 604 42 600 l 50 604 q 51 604 50 604 q 53 605 52 605 m 263 979 q 247 959 255 971 q 229 937 239 947 q 208 926 218 928 q 186 937 197 924 l 235 1021 q 257 1061 241 1042 q 286 1095 273 1081 q 315 1093 300 1114 q 321 1065 326 1081 q 307 1032 317 1048 q 283 1002 296 1016 q 263 979 270 987 z "},"":{"ha":532,"x_min":24,"x_max":498,"o":"m 53 605 q 66 599 60 605 q 75 585 72 593 q 81 568 79 576 q 83 556 83 560 l 83 250 q 95 185 83 218 q 127 123 107 152 q 175 77 148 95 q 235 58 202 58 q 309 79 277 58 q 367 132 342 99 q 410 207 392 164 q 440 292 429 250 q 456 376 452 335 q 461 449 461 416 q 461 489 461 461 q 458 551 461 517 q 449 623 454 586 q 433 688 444 659 q 406 733 422 716 q 368 746 391 750 q 366 748 368 746 q 365 751 365 750 q 378 774 365 766 q 403 783 391 783 q 434 770 420 783 q 458 740 448 758 q 476 698 469 722 q 488 652 483 674 q 494 610 492 629 q 498 579 496 591 q 498 562 498 578 q 498 526 498 547 q 498 484 498 506 q 498 449 498 463 q 498 422 498 441 q 498 384 498 404 q 498 345 498 363 q 498 319 498 327 q 465 216 486 271 q 413 112 445 160 q 336 32 381 64 q 231 0 292 0 q 149 24 187 0 q 83 84 111 47 q 40 165 56 121 q 24 250 24 209 l 24 579 q 33 591 24 582 q 47 604 42 600 l 50 604 q 51 604 50 604 q 53 605 52 605 m 239 977 q 230 968 236 977 q 216 950 224 960 q 201 931 208 940 q 195 921 195 922 q 142 865 160 879 q 118 855 123 850 q 117 879 113 860 q 131 923 121 898 q 155 976 141 948 q 181 1025 168 1004 q 204 1059 194 1047 q 217 1062 214 1070 q 236 1080 224 1074 q 259 1086 248 1086 l 264 1086 q 289 1025 281 1046 q 301 996 297 1005 q 309 984 305 987 q 317 970 313 981 q 330 938 321 960 q 355 871 339 916 q 322 844 335 850 q 300 843 309 838 q 286 861 292 848 q 273 894 279 875 q 259 935 267 913 q 239 977 251 956 z "},"":{"ha":532,"x_min":24,"x_max":498,"o":"m 53 605 q 66 599 60 605 q 75 585 72 593 q 81 568 79 576 q 83 556 83 560 l 83 250 q 95 185 83 218 q 127 123 107 152 q 175 77 148 95 q 235 58 202 58 q 309 79 277 58 q 367 132 342 99 q 410 207 392 164 q 440 292 429 250 q 456 376 452 335 q 461 449 461 416 q 461 489 461 461 q 458 551 461 517 q 449 623 454 586 q 433 688 444 659 q 406 733 422 716 q 368 746 391 750 q 366 748 368 746 q 365 751 365 750 q 378 774 365 766 q 403 783 391 783 q 434 770 420 783 q 458 740 448 758 q 476 698 469 722 q 488 652 483 674 q 494 610 492 629 q 498 579 496 591 q 498 562 498 578 q 498 526 498 547 q 498 484 498 506 q 498 449 498 463 q 498 422 498 441 q 498 384 498 404 q 498 345 498 363 q 498 319 498 327 q 465 216 486 271 q 413 112 445 160 q 336 32 381 64 q 231 0 292 0 q 149 24 187 0 q 83 84 111 47 q 40 165 56 121 q 24 250 24 209 l 24 579 q 33 591 24 582 q 47 604 42 600 l 50 604 q 51 604 50 604 q 53 605 52 605 m 132 949 q 138 977 132 963 q 161 990 144 990 q 191 979 178 990 q 203 954 203 968 q 191 926 203 935 q 163 917 179 917 q 138 924 145 917 q 132 949 132 930 m 326 949 q 332 977 326 963 q 357 990 339 990 q 385 979 372 990 q 399 954 399 968 q 386 926 399 935 q 358 917 373 917 q 332 924 339 917 q 326 949 326 930 z "},"":{"ha":604,"x_min":22,"x_max":568,"o":"m 331 -61 q 336 9 331 -26 q 349 79 342 45 q 361 149 355 114 q 368 218 368 183 l 368 225 q 231 267 294 239 q 122 339 168 294 q 50 446 76 384 q 23 590 23 507 q 22 623 23 602 q 26 663 22 644 q 40 696 30 682 q 71 711 50 711 q 98 707 90 711 q 107 682 107 703 q 103 648 107 665 q 95 616 99 632 q 87 584 91 601 q 83 551 83 567 q 103 455 83 502 q 158 373 123 408 q 237 316 193 338 q 331 294 282 294 q 341 294 335 294 q 355 295 347 294 q 370 296 363 296 q 380 296 376 296 q 418 352 404 312 q 442 441 433 392 q 458 545 452 491 q 476 644 465 600 q 503 717 487 688 q 545 746 518 746 q 551 741 547 746 q 556 734 555 736 q 559 724 557 732 q 562 703 560 715 q 565 680 563 692 q 568 662 567 669 l 568 656 q 554 530 568 591 q 519 409 540 468 q 473 292 498 350 q 428 176 449 235 q 393 56 407 117 q 378 -72 378 -5 q 386 -168 378 -121 q 393 -263 393 -214 q 363 -251 376 -263 q 345 -220 351 -239 q 334 -177 338 -201 q 330 -131 331 -153 q 330 -90 330 -109 q 331 -61 331 -71 m 300 979 q 283 959 292 971 q 265 937 275 947 q 244 926 255 928 q 222 937 233 924 l 271 1021 q 294 1061 278 1042 q 323 1095 309 1081 q 351 1093 336 1114 q 358 1065 362 1081 q 343 1032 354 1048 q 319 1002 332 1016 q 300 979 307 987 z "},"":{"ha":453,"x_min":22,"x_max":423,"o":"m 104 136 q 68 3 87 42 q 38 -24 50 -35 q 22 46 26 -12 q 30 206 19 104 q 52 333 43 273 q 64 453 60 393 q 69 574 68 513 q 71 701 71 635 q 82 823 66 776 q 115 885 98 869 q 145 882 133 901 q 148 811 157 864 l 148 781 q 148 738 148 762 q 147 686 148 713 q 146 635 146 659 q 144 591 145 610 q 144 562 144 571 l 160 562 q 179 581 165 567 q 209 609 193 594 q 243 635 225 624 q 278 646 262 646 q 320 629 301 646 q 355 584 339 612 q 384 522 372 556 q 405 456 396 488 q 418 395 414 423 q 423 353 423 368 q 398 269 423 308 q 336 199 373 229 q 254 151 298 168 q 168 134 209 134 q 146 133 151 134 q 138 131 141 132 q 130 131 136 130 q 104 136 125 132 m 267 585 q 195 501 227 549 q 142 399 164 453 q 110 288 121 345 q 99 178 99 231 q 184 187 138 178 q 269 218 229 197 q 336 273 309 239 q 363 359 363 308 q 358 420 363 387 q 342 486 353 453 q 313 545 331 518 q 267 585 294 571 z "},"":{"ha":781,"x_min":113,"x_max":758,"o":"m 213 556 q 207 481 209 532 q 203 366 205 431 q 199 226 202 300 q 195 81 197 152 q 189 -50 193 11 q 180 -149 184 -110 q 176 -170 179 -157 q 170 -193 174 -182 q 159 -215 165 -205 q 144 -231 153 -225 q 125 -185 132 -227 q 116 -83 119 -144 q 113 46 113 -23 q 114 177 113 115 q 117 283 115 239 q 118 338 118 327 q 119 382 118 351 q 121 456 119 414 q 128 547 123 498 q 141 646 133 597 q 161 741 149 696 q 191 823 174 787 q 233 880 209 859 q 286 901 256 901 q 349 884 321 901 q 397 843 377 868 q 428 786 416 818 q 439 722 439 754 q 430 672 439 696 q 410 627 420 648 q 391 583 400 605 q 381 538 381 562 q 454 537 414 538 q 537 530 495 536 q 619 512 579 525 q 690 477 659 499 q 740 420 722 454 q 758 338 758 387 q 741 245 758 289 q 692 163 723 201 q 622 95 662 125 q 536 43 582 65 q 444 10 491 22 q 354 -1 397 -1 l 343 46 q 465 68 404 46 q 576 131 526 91 q 656 227 625 171 q 688 347 688 282 q 670 412 688 384 q 625 458 652 439 q 562 488 597 477 q 494 498 528 498 q 448 493 475 498 q 389 480 420 488 q 326 460 358 472 q 266 437 294 449 l 254 514 q 302 557 278 534 q 342 607 326 581 q 370 663 359 633 q 381 728 381 693 q 377 768 381 747 q 364 804 373 788 q 340 831 355 821 q 302 841 324 841 q 271 823 285 841 q 248 778 258 806 q 231 717 237 750 q 220 652 225 684 q 214 594 216 620 q 213 556 213 568 z "},"":{"ha":621,"x_min":23,"x_max":656,"o":"m 331 165 q 284 114 311 141 q 227 64 258 87 q 163 25 197 41 q 95 9 130 9 q 23 79 23 9 q 47 154 23 107 q 109 252 71 201 q 193 352 146 304 q 285 432 239 400 q 370 472 331 464 q 433 449 408 480 q 427 376 433 412 q 416 303 422 339 q 406 232 411 267 q 400 160 400 197 q 402 135 400 152 q 409 101 404 118 q 422 71 414 84 q 444 58 430 58 q 497 66 476 58 q 534 86 518 75 q 561 113 549 98 q 585 142 572 127 q 614 171 598 157 q 656 193 631 184 q 656 189 656 193 q 656 182 656 184 q 636 115 656 148 q 585 56 616 81 q 515 14 553 30 q 439 -1 476 -1 q 389 16 408 -1 q 359 58 370 34 q 342 112 347 83 q 331 165 336 141 m 355 343 q 366 404 369 388 q 346 417 362 420 q 304 394 330 414 q 248 347 278 374 q 189 285 218 319 q 133 220 159 251 q 91 165 107 190 q 71 130 75 141 q 68 83 62 99 q 87 60 75 66 q 116 58 100 54 q 142 71 132 62 q 201 125 165 91 q 269 199 236 160 q 327 277 302 239 q 355 343 351 316 m 340 623 q 315 645 331 631 q 287 676 300 659 q 269 710 274 693 q 278 739 264 727 q 296 749 289 749 q 313 741 302 749 q 347 706 327 726 q 374 666 366 686 l 433 582 q 407 570 420 568 q 382 581 393 572 q 359 602 370 590 q 340 623 349 614 z "},"":{"ha":621,"x_min":23,"x_max":656,"o":"m 331 165 q 284 114 311 141 q 227 64 258 87 q 163 25 197 41 q 95 9 130 9 q 23 79 23 9 q 47 154 23 107 q 109 252 71 201 q 193 352 146 304 q 285 432 239 400 q 370 472 331 464 q 433 449 408 480 q 427 376 433 412 q 416 303 422 339 q 406 232 411 267 q 400 160 400 197 q 402 135 400 152 q 409 101 404 118 q 422 71 414 84 q 444 58 430 58 q 497 66 476 58 q 534 86 518 75 q 561 113 549 98 q 585 142 572 127 q 614 171 598 157 q 656 193 631 184 q 656 189 656 193 q 656 182 656 184 q 636 115 656 148 q 585 56 616 81 q 515 14 553 30 q 439 -1 476 -1 q 389 16 408 -1 q 359 58 370 34 q 342 112 347 83 q 331 165 336 141 m 355 343 q 366 404 369 388 q 346 417 362 420 q 304 394 330 414 q 248 347 278 374 q 189 285 218 319 q 133 220 159 251 q 91 165 107 190 q 71 130 75 141 q 68 83 62 99 q 87 60 75 66 q 116 58 100 54 q 142 71 132 62 q 201 125 165 91 q 269 199 236 160 q 327 277 302 239 q 355 343 351 316 m 308 608 q 292 587 300 600 q 273 566 283 575 q 252 554 263 556 q 231 566 241 552 l 279 650 q 302 690 286 670 q 331 723 317 709 q 359 722 345 742 q 366 693 370 709 q 351 661 362 677 q 328 630 340 644 q 308 608 315 616 z "}}}
